<?xml version="1.0" encoding="utf-8" standalone="no"?>
<!DOCTYPE svg PUBLIC "-//W3C//DTD SVG 1.1//EN"
  "http://www.w3.org/Graphics/SVG/1.1/DTD/svg11.dtd">
<!-- Created with matplotlib (https://matplotlib.org/) -->
<svg height="216pt" version="1.1" viewBox="0 0 1944 216" width="1944pt" xmlns="http://www.w3.org/2000/svg" xmlns:xlink="http://www.w3.org/1999/xlink">
 <metadata>
  <rdf:RDF xmlns:cc="http://creativecommons.org/ns#" xmlns:dc="http://purl.org/dc/elements/1.1/" xmlns:rdf="http://www.w3.org/1999/02/22-rdf-syntax-ns#">
   <cc:Work>
    <dc:type rdf:resource="http://purl.org/dc/dcmitype/StillImage"/>
    <dc:date>2021-11-04T01:40:10.346856</dc:date>
    <dc:format>image/svg+xml</dc:format>
    <dc:creator>
     <cc:Agent>
      <dc:title>Matplotlib v3.3.4, https://matplotlib.org/</dc:title>
     </cc:Agent>
    </dc:creator>
   </cc:Work>
  </rdf:RDF>
 </metadata>
 <defs>
  <style type="text/css">*{stroke-linecap:butt;stroke-linejoin:round;}</style>
 </defs>
 <g id="figure_1">
  <g id="patch_1">
   <path d="M 0 216 
L 1944 216 
L 1944 0 
L 0 0 
z
" style="fill:#ffffff;"/>
  </g>
  <g id="axes_1">
   <g id="patch_2">
    <path d="M 243 183.6 
L 1749.6 183.6 
L 1749.6 25.92 
L 243 25.92 
z
" style="fill:#ffffff;"/>
   </g>
   <g id="matplotlib.axis_1">
    <g id="xtick_1">
     <g id="line2d_1">
      <defs>
       <path d="M 0 0 
L 0 3.5 
" id="m5581461d42" style="stroke:#000000;stroke-width:0.8;"/>
      </defs>
      <g>
       <use style="stroke:#000000;stroke-width:0.8;" x="403.704" xlink:href="#m5581461d42" y="183.6"/>
      </g>
     </g>
     <g id="text_1">
      <!-- 25 -->
      <g transform="translate(398.704 197.875)scale(0.1 -0.1)">
       <defs>
        <path d="M 1.65625 0 
L 1.65625 2.734375 
Q 3.171875 4.640625 7.125 8.6875 
L 18.015625 20.015625 
Q 19.28125 21.34375 24.21875 26.90625 
Q 27.9375 31.15625 30.03125 34.640625 
Q 32.125 38.140625 33.09375 41.4375 
Q 34.078125 44.734375 34.078125 47.703125 
Q 34.078125 52.78125 31.25 56.5 
Q 27.59375 61.421875 20.609375 61.421875 
Q 16.703125 61.421875 13.765625 60.15625 
Q 10.84375 58.890625 9.84375 57.34375 
Q 8.84375 55.8125 6.890625 48.53125 
L 3.953125 48.53125 
Q 5.125 55.078125 5.609375 62.015625 
Q 8.6875 64.9375 10.765625 66.203125 
Q 12.84375 67.484375 15.859375 68.234375 
Q 18.890625 69 22.46875 69 
Q 28.859375 69 33.25 66.828125 
Q 37.640625 64.65625 40.28125 60.359375 
Q 42.921875 56.0625 42.921875 50.640625 
Q 42.921875 44.78125 39.921875 39.09375 
Q 36.921875 33.40625 27.4375 23.96875 
L 19.09375 15.671875 
Q 14.546875 11.140625 12.203125 8.453125 
L 33.640625 8.453125 
Q 40.09375 8.453125 46.296875 9.078125 
L 46.625 8.6875 
Q 46.34375 6.84375 46.34375 4.34375 
Q 46.34375 2.09375 46.625 0.53125 
L 46.296875 0 
Q 42.828125 0.203125 38.375 0.296875 
Q 28.421875 0.484375 25.046875 0.484375 
Q 20.796875 0.484375 10.75 0.296875 
Q 5.21875 0.203125 1.65625 0 
z
" id="Palatino-Roman-50"/>
        <path d="M 6.453125 1.078125 
Q 5.328125 4.390625 4.640625 6.15625 
L 1.421875 14.109375 
L 3.8125 15.53125 
Q 8.203125 7.515625 9.21875 6.5625 
Q 10.25 5.609375 13.8125 4.34375 
Q 17.390625 3.078125 21.09375 3.078125 
Q 25.984375 3.078125 29.65625 5.125 
Q 33.34375 7.171875 35.375 11.25 
Q 37.40625 15.328125 37.40625 21.09375 
Q 37.40625 29.59375 32.78125 33.6875 
Q 28.171875 37.796875 21.875 37.796875 
Q 18.171875 37.796875 15.140625 36.375 
Q 12.84375 35.25 9.671875 31.78125 
L 7.671875 32.375 
L 8.25 44.4375 
Q 8.34375 47.171875 8.34375 48.875 
L 8.34375 57.5625 
Q 8.34375 61.46875 8.109375 65.375 
Q 8.015625 66.890625 7.953125 67.828125 
L 8.59375 68.3125 
Q 16.546875 67.71875 25.296875 67.71875 
Q 32.71875 67.71875 43.0625 68.3125 
L 43.3125 67.828125 
Q 42.96875 65.328125 42.96875 63.328125 
Q 42.96875 62.359375 43.0625 59.96875 
L 42.578125 59.671875 
Q 35.796875 60.109375 22.265625 60.109375 
Q 17.28125 60.109375 12.84375 59.96875 
Q 12.109375 53.21875 11.859375 39.65625 
Q 15.765625 42.484375 18.890625 43.578125 
Q 22.015625 44.671875 25.828125 44.671875 
Q 31.5 44.671875 36.203125 42.25 
Q 40.921875 39.84375 43.453125 35.296875 
Q 46 30.765625 46 25.34375 
Q 46 16.890625 40.234375 9.625 
Q 31.546875 -1.421875 16.890625 -1.421875 
Q 13.671875 -1.421875 11.390625 -0.859375 
Q 9.125 -0.296875 6.453125 1.078125 
z
" id="Palatino-Roman-53"/>
       </defs>
       <use xlink:href="#Palatino-Roman-50"/>
       <use x="50" xlink:href="#Palatino-Roman-53"/>
      </g>
     </g>
    </g>
    <g id="xtick_2">
     <g id="line2d_2">
      <g>
       <use style="stroke:#000000;stroke-width:0.8;" x="571.104" xlink:href="#m5581461d42" y="183.6"/>
      </g>
     </g>
     <g id="text_2">
      <!-- 50 -->
      <g transform="translate(566.104 197.875)scale(0.1 -0.1)">
       <defs>
        <path d="M 3.03125 30.21875 
Q 3.03125 44.140625 5.03125 51.703125 
Q 7.03125 59.28125 12.296875 64.203125 
Q 17.578125 69.140625 25.6875 69.140625 
Q 29.78125 69.140625 33.265625 67.75 
Q 36.765625 66.359375 38.984375 64.234375 
Q 41.21875 62.109375 42.75 59 
Q 44.28125 55.90625 44.921875 52.78125 
Q 46.390625 45.65625 46.390625 37.25 
Q 46.390625 26.3125 44.671875 18.5 
Q 43.703125 14.0625 41.890625 10.375 
Q 40.09375 6.6875 37.59375 4.09375 
Q 35.109375 1.515625 31.59375 -0.015625 
Q 28.078125 -1.5625 23.6875 -1.5625 
Q 18.359375 -1.5625 14.546875 0.6875 
Q 10.75 2.9375 8.5 6.453125 
Q 5.375 11.46875 4.203125 17.9375 
Q 3.03125 24.421875 3.03125 30.21875 
z
M 11.421875 33.0625 
Q 11.421875 26.03125 12.34375 19.265625 
Q 13.28125 12.5 15.28125 8.296875 
Q 16.65625 5.46875 19.28125 3.65625 
Q 21.921875 1.859375 25.203125 1.859375 
Q 30.765625 1.859375 33.734375 6.5 
Q 38.03125 13.140625 38.03125 32.90625 
Q 38.03125 41.40625 37.125 48.171875 
Q 36.234375 54.9375 34.125 59.28125 
Q 32.765625 62.0625 30.296875 63.84375 
Q 27.828125 65.625 24.359375 65.625 
Q 20.5625 65.625 17.546875 63.1875 
Q 14.546875 60.75 12.984375 54.328125 
Q 11.421875 47.90625 11.421875 33.0625 
z
" id="Palatino-Roman-48"/>
       </defs>
       <use xlink:href="#Palatino-Roman-53"/>
       <use x="50" xlink:href="#Palatino-Roman-48"/>
      </g>
     </g>
    </g>
    <g id="xtick_3">
     <g id="line2d_3">
      <g>
       <use style="stroke:#000000;stroke-width:0.8;" x="738.504" xlink:href="#m5581461d42" y="183.6"/>
      </g>
     </g>
     <g id="text_3">
      <!-- 75 -->
      <g transform="translate(733.504 197.875)scale(0.1 -0.1)">
       <defs>
        <path d="M 6.59375 0 
L 5.5625 1.03125 
Q 7.28125 3.5625 15.234375 16.109375 
Q 17.828125 20.265625 28.125 37.015625 
Q 32.328125 43.84375 39.453125 56.34375 
Q 40.09375 57.421875 41.21875 59.578125 
L 40.71875 60.0625 
L 25.59375 60.0625 
Q 21.046875 60.0625 16.15625 59.890625 
Q 11.28125 59.71875 10.203125 59.28125 
Q 9.578125 59.03125 9.28125 58.640625 
L 8.890625 58.0625 
L 7.46875 47.40625 
L 4.59375 47.40625 
L 4.828125 60.25 
Q 4.828125 63.421875 4.59375 68.265625 
L 5.5625 68.75 
Q 9.46875 68.40625 16.265625 68.109375 
Q 25.046875 67.78125 27.78125 67.78125 
Q 33.890625 67.78125 49.515625 68.453125 
L 49.515625 65.53125 
L 42.484375 53.078125 
Q 40.234375 49.03125 31.640625 33.15625 
Q 25.640625 22.015625 21.140625 12.453125 
Q 17.71875 5.21875 15.765625 0 
Q 12.984375 0.25 11.078125 0.25 
Q 9.03125 0.25 6.59375 0 
z
" id="Palatino-Roman-55"/>
       </defs>
       <use xlink:href="#Palatino-Roman-55"/>
       <use x="50" xlink:href="#Palatino-Roman-53"/>
      </g>
     </g>
    </g>
    <g id="xtick_4">
     <g id="line2d_4">
      <g>
       <use style="stroke:#000000;stroke-width:0.8;" x="905.904" xlink:href="#m5581461d42" y="183.6"/>
      </g>
     </g>
     <g id="text_4">
      <!-- 100 -->
      <g transform="translate(898.404 197.875)scale(0.1 -0.1)">
       <defs>
        <path d="M 7.46875 55.609375 
L 6.59375 55.859375 
L 6.109375 59.859375 
L 6.59375 60.359375 
Q 11.8125 61.859375 17.96875 64.5 
Q 27.046875 68.359375 29.640625 69.671875 
L 30.90625 69.1875 
Q 30.125 46.828125 30.125 43.5 
L 30.125 25.390625 
Q 30.125 14.546875 30.375 8.984375 
Q 30.515625 5.71875 31.171875 4.859375 
Q 31.84375 4 33.125 3.625 
Q 34.421875 3.265625 41.609375 2.984375 
L 41.609375 0 
Q 29.25 0.390625 26.125 0.390625 
Q 23.78125 0.390625 9.578125 0 
L 9.578125 2.984375 
Q 17 3.421875 18.140625 3.6875 
Q 19.28125 3.953125 19.84375 4.484375 
Q 20.40625 5.03125 20.65625 6 
Q 21.046875 7.515625 21.328125 14.71875 
Q 21.625 21.921875 21.625 25.640625 
L 21.625 44.875 
Q 21.625 56.640625 21.578125 59.625 
Q 21.578125 60.9375 21.234375 61.28125 
Q 21.046875 61.46875 20.703125 61.46875 
Q 20.265625 61.46875 18.453125 60.6875 
Q 10.15625 56.984375 7.46875 55.609375 
z
" id="Palatino-Roman-49"/>
       </defs>
       <use xlink:href="#Palatino-Roman-49"/>
       <use x="50" xlink:href="#Palatino-Roman-48"/>
       <use x="100" xlink:href="#Palatino-Roman-48"/>
      </g>
     </g>
    </g>
    <g id="xtick_5">
     <g id="line2d_5">
      <g>
       <use style="stroke:#000000;stroke-width:0.8;" x="1073.304" xlink:href="#m5581461d42" y="183.6"/>
      </g>
     </g>
     <g id="text_5">
      <!-- 125 -->
      <g transform="translate(1065.804 197.875)scale(0.1 -0.1)">
       <use xlink:href="#Palatino-Roman-49"/>
       <use x="50" xlink:href="#Palatino-Roman-50"/>
       <use x="100" xlink:href="#Palatino-Roman-53"/>
      </g>
     </g>
    </g>
    <g id="xtick_6">
     <g id="line2d_6">
      <g>
       <use style="stroke:#000000;stroke-width:0.8;" x="1240.704" xlink:href="#m5581461d42" y="183.6"/>
      </g>
     </g>
     <g id="text_6">
      <!-- 150 -->
      <g transform="translate(1233.204 197.875)scale(0.1 -0.1)">
       <use xlink:href="#Palatino-Roman-49"/>
       <use x="50" xlink:href="#Palatino-Roman-53"/>
       <use x="100" xlink:href="#Palatino-Roman-48"/>
      </g>
     </g>
    </g>
    <g id="xtick_7">
     <g id="line2d_7">
      <g>
       <use style="stroke:#000000;stroke-width:0.8;" x="1408.104" xlink:href="#m5581461d42" y="183.6"/>
      </g>
     </g>
     <g id="text_7">
      <!-- 175 -->
      <g transform="translate(1400.604 197.875)scale(0.1 -0.1)">
       <use xlink:href="#Palatino-Roman-49"/>
       <use x="50" xlink:href="#Palatino-Roman-55"/>
       <use x="100" xlink:href="#Palatino-Roman-53"/>
      </g>
     </g>
    </g>
    <g id="xtick_8">
     <g id="line2d_8">
      <g>
       <use style="stroke:#000000;stroke-width:0.8;" x="1575.504" xlink:href="#m5581461d42" y="183.6"/>
      </g>
     </g>
     <g id="text_8">
      <!-- 200 -->
      <g transform="translate(1568.004 197.875)scale(0.1 -0.1)">
       <use xlink:href="#Palatino-Roman-50"/>
       <use x="50" xlink:href="#Palatino-Roman-48"/>
       <use x="100" xlink:href="#Palatino-Roman-48"/>
      </g>
     </g>
    </g>
    <g id="xtick_9">
     <g id="line2d_9">
      <g>
       <use style="stroke:#000000;stroke-width:0.8;" x="1742.904" xlink:href="#m5581461d42" y="183.6"/>
      </g>
     </g>
     <g id="text_9">
      <!-- 225 -->
      <g transform="translate(1735.404 197.875)scale(0.1 -0.1)">
       <use xlink:href="#Palatino-Roman-50"/>
       <use x="50" xlink:href="#Palatino-Roman-50"/>
       <use x="100" xlink:href="#Palatino-Roman-53"/>
      </g>
     </g>
    </g>
    <g id="text_10">
     <!-- Codon position -->
     <g transform="translate(962.044531 211.904687)scale(0.1 -0.1)">
      <defs>
       <path d="M 68.109375 8.640625 
L 66.21875 4.109375 
Q 60.5 1.21875 55.03125 -0.078125 
Q 49.5625 -1.375 43.109375 -1.375 
Q 35.546875 -1.375 29.046875 0.53125 
Q 22.5625 2.4375 17.703125 5.96875 
Q 12.84375 9.515625 9.765625 13.90625 
Q 6.6875 18.3125 5.078125 23.453125 
Q 3.46875 28.609375 3.46875 34.765625 
Q 3.46875 50.34375 14.328125 60.5625 
Q 25.203125 70.796875 44 70.796875 
Q 48.4375 70.796875 52.21875 70.28125 
Q 56 69.78125 61.4375 68.328125 
Q 66.890625 66.890625 68.109375 66.65625 
Q 67.046875 63.96875 66.5 61.375 
Q 65.71875 57.234375 65.4375 51.765625 
L 62.359375 51.765625 
L 62.3125 57.515625 
Q 61.8125 62.3125 57 64.65625 
Q 52.203125 67 42.921875 67 
Q 35.984375 66.890625 31.140625 65.203125 
Q 26.3125 63.53125 22.625 59.890625 
Q 18.953125 56.25 16.609375 50.65625 
Q 14.265625 45.0625 14.203125 36.625 
Q 14.203125 21.828125 23.234375 12.8125 
Q 32.28125 3.8125 47.125 3.8125 
Q 53.8125 3.8125 59.515625 5.671875 
Q 63.421875 6.9375 67.28125 9.671875 
z
" id="Palatino-Roman-67"/>
       <path d="M 3.328125 22.46875 
Q 3.328125 33.40625 10.28125 40.3125 
Q 17.234375 47.21875 28.125 47.21875 
Q 38.375 47.21875 44.8125 40.765625 
Q 51.265625 34.328125 51.265625 24.125 
Q 51.265625 17 47.9375 11.078125 
Q 44.625 5.171875 38.5625 1.828125 
Q 32.515625 -1.515625 25.25 -1.515625 
Q 19.578125 -1.515625 15.640625 0.390625 
Q 11.71875 2.296875 9.28125 5.171875 
Q 6.84375 8.0625 5.5625 11.078125 
Q 3.328125 16.40625 3.328125 22.46875 
z
M 12.546875 26.078125 
Q 12.546875 20.0625 14.546875 13.859375 
Q 16.546875 7.671875 20.328125 4.8125 
Q 24.125 1.953125 28.5625 1.953125 
Q 34.234375 1.953125 38.03125 6.4375 
Q 41.84375 10.9375 41.84375 20.265625 
Q 41.84375 28.03125 39.578125 33.671875 
Q 37.3125 39.3125 33.796875 41.625 
Q 30.28125 43.953125 26.03125 43.953125 
Q 20.015625 43.953125 16.28125 39.59375 
Q 12.546875 35.25 12.546875 26.078125 
z
" id="Palatino-Roman-111"/>
       <path d="M 33.15625 66.3125 
L 33.15625 69.09375 
Q 38.578125 69.671875 42.3125 70.484375 
Q 46.046875 71.296875 49.609375 72.46875 
L 50.25 72.015625 
Q 50.046875 67.875 49.8125 56 
L 49.609375 48.1875 
L 49.609375 17.625 
Q 49.609375 12.640625 49.78125 9 
Q 49.953125 5.375 50.390625 4.65625 
Q 50.828125 3.953125 51.84375 3.515625 
Q 52.875 3.078125 57.953125 2.640625 
L 57.953125 0 
Q 52 0.34375 49.5625 0.34375 
Q 47.46875 0.34375 40.96875 0 
Q 41.109375 3.375 41.21875 9.078125 
Q 39.265625 7.671875 35.96875 4.828125 
Q 32.671875 2 30.8125 0.203125 
Q 26.90625 -0.78125 23.921875 -0.78125 
Q 18.40625 -0.78125 13.765625 1.953125 
Q 9.125 4.6875 6.609375 9.890625 
Q 4.109375 15.09375 4.109375 21.578125 
Q 4.109375 26.46875 5.640625 30.828125 
Q 7.171875 35.203125 9.515625 37.59375 
Q 10.84375 38.96875 15.53125 41.75 
Q 20.21875 44.53125 23.125 45.765625 
Q 26.03125 47.015625 29.4375 47.015625 
Q 32.515625 47.015625 35.46875 46.265625 
Q 38.421875 45.515625 41.21875 43.953125 
L 41.21875 56.78125 
Q 41.21875 63.578125 40.625 65.046875 
Q 40.4375 65.578125 39.890625 65.828125 
Q 38.921875 66.265625 33.15625 66.3125 
z
M 41.21875 35.59375 
Q 37.890625 39.265625 34.25 40.9375 
Q 30.609375 42.625 27.09375 42.625 
Q 23.09375 42.625 19.71875 40.578125 
Q 16.359375 38.53125 14.578125 34.375 
Q 12.796875 30.21875 12.796875 24.421875 
Q 12.796875 15.484375 17.234375 10.453125 
Q 21.6875 5.421875 27.9375 5.421875 
Q 31.203125 5.421875 33.78125 6.78125 
Q 36.375 8.15625 38.328125 10.78125 
Q 40.28125 13.421875 40.828125 16.65625 
Q 41.21875 18.796875 41.21875 27.25 
z
" id="Palatino-Roman-100"/>
       <path d="M 1.375 0 
L 1.375 2.78125 
L 6 2.828125 
Q 7.03125 2.875 7.59375 3.1875 
Q 8.15625 3.515625 8.453125 4 
Q 8.984375 4.984375 9.125 7.46875 
Q 9.125 8.109375 9.421875 21.484375 
L 9.421875 27.296875 
Q 9.421875 31.203125 9.28125 35.6875 
Q 9.125 38.578125 8.8125 39.109375 
Q 8.5 39.65625 7.71875 39.921875 
Q 6.9375 40.1875 1.375 40.140625 
L 1.375 42.921875 
Q 11.234375 44.28125 15.765625 46.484375 
Q 16.75 46.96875 17.09375 46.96875 
Q 17.4375 46.96875 17.625 46.71875 
Q 17.828125 46.484375 17.828125 46 
Q 17.828125 45.65625 17.78125 45.21875 
Q 17.625 43.453125 17.484375 37.796875 
L 26.5625 45.5625 
Q 30.5625 47.015625 34.125 47.015625 
Q 38.09375 47.015625 41.625 45.40625 
Q 45.171875 43.796875 46.953125 41.359375 
Q 48.734375 38.921875 49.3125 35.203125 
Q 49.65625 33.015625 49.65625 22.953125 
L 49.65625 14.3125 
Q 49.65625 7.953125 50 5.671875 
Q 50.25 4.203125 50.75 3.640625 
Q 51.265625 3.078125 52.34375 2.9375 
L 57.5625 2.78125 
L 57.5625 0 
Q 52.78125 0.34375 49.609375 0.34375 
Q 46.875 0.34375 40.53125 0 
Q 41.21875 12.0625 41.21875 15.234375 
L 41.21875 23.4375 
Q 41.21875 31.109375 40.625 33.5 
Q 39.796875 36.765625 36.859375 38.765625 
Q 33.9375 40.765625 29.78125 40.765625 
Q 26.125 40.765625 23.09375 39.03125 
Q 20.0625 37.3125 18.765625 35.03125 
Q 17.484375 32.765625 17.484375 27.390625 
L 17.484375 21.484375 
Q 17.78125 8.796875 17.78125 7.765625 
Q 17.875 5.328125 18.359375 4.203125 
Q 18.5625 3.765625 18.953125 3.4375 
Q 19.34375 3.125 20.171875 2.9375 
Q 20.453125 2.875 25.53125 2.78125 
L 25.53125 0 
Q 19.578125 0.34375 14.75 0.34375 
Q 10.640625 0.34375 1.375 0 
z
" id="Palatino-Roman-110"/>
       <path id="Palatino-Roman-32"/>
       <path d="M 1.765625 40.1875 
L 1.765625 43.015625 
Q 2.640625 43.015625 5.46875 43.421875 
Q 8.296875 43.84375 11.765625 44.84375 
Q 15.234375 45.84375 17 46.78125 
Q 17.53125 47.078125 17.875 47.078125 
Q 18.21875 47.078125 18.4375 46.828125 
Q 18.65625 46.578125 18.65625 46 
Q 18.65625 45.75 18.609375 44.828125 
Q 18.5 43.40625 18.5 42.234375 
L 18.5 37.0625 
Q 26.765625 44.734375 28.8125 45.703125 
Q 31.5 47.015625 36.8125 47.015625 
Q 43.015625 47.015625 47.5 44.203125 
Q 52 41.40625 54.03125 36.9375 
Q 56.0625 32.46875 56.0625 27.390625 
Q 56.0625 24.3125 55.34375 21.578125 
Q 54.640625 18.84375 53.53125 16.421875 
Q 52.4375 14.015625 51.09375 11.984375 
Q 49.75 9.96875 48.578125 8.9375 
Q 47.90625 8.296875 45.046875 6 
Q 42.1875 3.71875 38.9375 2.03125 
Q 35.6875 0.34375 34.421875 -0.046875 
Q 31.640625 -0.921875 28.515625 -0.921875 
Q 26.078125 -0.921875 23.75 -0.328125 
Q 21.4375 0.25 18.5 1.65625 
L 18.5 -6.109375 
Q 18.75 -18.453125 18.796875 -19.734375 
Q 18.84375 -22.125 19.390625 -23.25 
Q 19.578125 -23.78125 19.984375 -24.09375 
Q 20.40625 -24.421875 21.1875 -24.5625 
Q 21.625 -24.65625 27 -24.75 
L 27 -27.546875 
Q 20.90625 -27.296875 10.84375 -27.296875 
Q 5.28125 -27.296875 2.296875 -27.546875 
L 2.296875 -24.75 
L 6.9375 -24.703125 
Q 7.953125 -24.65625 8.515625 -24.34375 
Q 9.078125 -24.03125 9.375 -23.53125 
Q 9.90625 -22.5625 10.0625 -20.0625 
Q 10.109375 -19.4375 10.359375 -6.109375 
L 10.359375 11.234375 
Q 10.359375 19.671875 10.15625 28.5625 
Q 9.96875 37.453125 9.734375 38.25 
Q 9.515625 39.0625 9.03125 39.46875 
Q 8.546875 39.890625 7.765625 40.046875 
z
M 18.5 10.0625 
Q 21.09375 7.421875 24.40625 5.90625 
Q 27.734375 4.390625 31.390625 4.390625 
Q 35.84375 4.390625 39.46875 6.609375 
Q 43.109375 8.84375 45.234375 13.53125 
Q 47.359375 18.21875 47.359375 23.734375 
Q 47.359375 29.046875 45.328125 32.984375 
Q 43.3125 36.921875 39.59375 38.890625 
Q 35.890625 40.875 32.125 40.875 
Q 29.34375 40.875 26.625 39.765625 
Q 23.921875 38.671875 21.71875 36.5625 
Q 19.53125 34.46875 18.796875 32.5625 
Q 18.5 31.640625 18.5 29 
z
" id="Palatino-Roman-112"/>
       <path d="M 4.546875 14.75 
L 7.46875 14.75 
Q 7.515625 11.921875 7.765625 10.25 
Q 8.015625 8.59375 8.59375 7 
Q 9.1875 5.421875 10.40625 4.3125 
Q 11.625 3.21875 13.0625 2.609375 
Q 14.5 2 15.984375 1.796875 
Q 17.484375 1.609375 20.515625 1.609375 
Q 25.484375 1.609375 28.6875 4.25 
Q 31.890625 6.890625 31.890625 11.46875 
Q 31.890625 13.53125 30.890625 15.09375 
Q 29.890625 16.65625 28 17.53125 
Q 26.125 18.40625 19.921875 19.8125 
Q 13.71875 21.234375 11.921875 21.875 
Q 9.1875 22.90625 7.5625 24.359375 
Q 5.953125 25.828125 5 28.078125 
Q 4.046875 30.328125 4.046875 32.953125 
Q 4.046875 36.8125 6.078125 40.0625 
Q 8.109375 43.3125 12.453125 45.328125 
Q 16.796875 47.359375 21.921875 47.359375 
Q 25 47.359375 29.046875 46.5 
Q 33.109375 45.65625 35.640625 44.390625 
Q 35.296875 38.96875 35.15625 33.34375 
L 32.375 33.34375 
Q 32.125 36.921875 31.8125 38.03125 
Q 31.5 39.15625 30.953125 40.03125 
Q 30.421875 40.921875 29.09375 41.921875 
Q 27.78125 42.921875 25.703125 43.703125 
Q 23.640625 44.484375 20.609375 44.484375 
Q 16.3125 44.484375 13.6875 41.9375 
Q 11.078125 39.40625 11.078125 35.984375 
Q 11.078125 34.078125 11.828125 32.703125 
Q 12.59375 31.34375 13.859375 30.484375 
Q 15.140625 29.640625 17.4375 28.953125 
L 25.53125 26.953125 
Q 31.6875 25.390625 34 24.265625 
Q 36.328125 23.140625 37.734375 20.765625 
Q 39.15625 18.40625 39.15625 15.09375 
Q 39.15625 8.5 33.703125 3.59375 
Q 28.265625 -1.3125 19.140625 -1.3125 
Q 14.9375 -1.3125 7.953125 -0.046875 
Q 4.109375 0.6875 3.8125 0.984375 
Q 3.609375 1.125 3.609375 1.46875 
Q 3.609375 1.8125 3.71875 2.296875 
Q 4.15625 4.390625 4.296875 6.390625 
Q 4.4375 8.40625 4.546875 14.75 
z
" id="Palatino-Roman-115"/>
       <path d="M 14.109375 68.75 
Q 16.40625 68.75 17.984375 67.140625 
Q 19.578125 65.53125 19.578125 63.234375 
Q 19.578125 60.984375 17.96875 59.375 
Q 16.359375 57.765625 14.109375 57.765625 
Q 11.8125 57.765625 10.203125 59.375 
Q 8.59375 60.984375 8.59375 63.234375 
Q 8.59375 65.53125 10.203125 67.140625 
Q 11.8125 68.75 14.109375 68.75 
z
M 2.203125 40.1875 
L 2.203125 42.96875 
Q 11.671875 44.046875 18.109375 47.078125 
L 19.1875 46.296875 
Q 18.796875 35.890625 18.796875 30.375 
L 18.796875 21.484375 
Q 19.046875 8.796875 19.09375 7.765625 
Q 19.140625 5.328125 19.625 4.203125 
Q 19.875 3.765625 20.265625 3.4375 
Q 20.65625 3.125 21.4375 2.9375 
Q 21.734375 2.875 26.859375 2.78125 
L 26.859375 0 
Q 19.4375 0.34375 14.984375 0.34375 
Q 11.078125 0.34375 2.203125 0 
L 2.203125 2.78125 
L 6.84375 2.828125 
Q 7.859375 2.875 8.421875 3.1875 
Q 8.984375 3.515625 9.28125 4 
Q 9.8125 4.984375 9.96875 7.46875 
Q 9.96875 8.109375 10.25 21.484375 
L 10.25 30.078125 
Q 10.25 37.359375 9.765625 38.71875 
Q 9.46875 39.453125 8.703125 39.8125 
Q 7.953125 40.1875 2.203125 40.1875 
z
" id="Palatino-Roman-105"/>
       <path d="M 2.25 38.28125 
L 2.25 40.328125 
Q 7.125 42.1875 10.015625 43.65625 
Q 10.015625 55.28125 9.71875 58.5 
Q 14.796875 60.25 17.96875 62.25 
L 19.140625 61.28125 
Q 18.609375 57.234375 17.96875 43.40625 
Q 21.875 43.359375 22.65625 43.359375 
Q 23.09375 43.359375 27.6875 43.453125 
Q 30.21875 43.5 31.5 43.65625 
L 31.84375 43.3125 
L 30.8125 38.765625 
Q 27.734375 38.8125 25.140625 38.8125 
Q 22.5625 38.8125 17.96875 38.765625 
L 17.671875 18.890625 
Q 17.53125 11.625 17.765625 10.203125 
Q 18.015625 8.796875 18.703125 7.734375 
Q 19.390625 6.6875 20.484375 6.046875 
Q 21.578125 5.421875 24.21875 5.078125 
Q 26.21875 5.078125 27.46875 5.25 
Q 28.71875 5.421875 30.609375 6.109375 
L 31.203125 4.203125 
Q 28.90625 2.390625 26.765625 0.4375 
Q 24.90625 -0.25 23.296875 -0.46875 
Q 21.6875 -0.6875 19.578125 -0.6875 
Q 17 -0.6875 15.453125 -0.09375 
Q 13.921875 0.484375 12.640625 1.53125 
Q 11.375 2.59375 10.546875 4.203125 
Q 9.71875 5.8125 9.46875 9.28125 
Q 9.515625 12.59375 9.671875 16.546875 
Q 9.71875 17.328125 9.71875 18.265625 
L 9.71875 38.53125 
L 7.71875 38.53125 
Q 5.28125 38.53125 2.25 38.28125 
z
" id="Palatino-Roman-116"/>
      </defs>
      <use xlink:href="#Palatino-Roman-67"/>
      <use x="70.898438" xlink:href="#Palatino-Roman-111"/>
      <use x="125.488281" xlink:href="#Palatino-Roman-100"/>
      <use x="186.572266" xlink:href="#Palatino-Roman-111"/>
      <use x="241.162109" xlink:href="#Palatino-Roman-110"/>
      <use x="299.365234" xlink:href="#Palatino-Roman-32"/>
      <use x="324.365234" xlink:href="#Palatino-Roman-112"/>
      <use x="384.472656" xlink:href="#Palatino-Roman-111"/>
      <use x="439.0625" xlink:href="#Palatino-Roman-115"/>
      <use x="481.445312" xlink:href="#Palatino-Roman-105"/>
      <use x="510.546875" xlink:href="#Palatino-Roman-116"/>
      <use x="543.164062" xlink:href="#Palatino-Roman-105"/>
      <use x="572.265625" xlink:href="#Palatino-Roman-111"/>
      <use x="626.855469" xlink:href="#Palatino-Roman-110"/>
     </g>
    </g>
   </g>
   <g id="matplotlib.axis_2">
    <g id="ytick_1">
     <g id="line2d_10">
      <defs>
       <path d="M 0 0 
L -3.5 0 
" id="m8a78b6b7a8" style="stroke:#000000;stroke-width:0.8;"/>
      </defs>
      <g>
       <use style="stroke:#000000;stroke-width:0.8;" x="243" xlink:href="#m8a78b6b7a8" y="175.049082"/>
      </g>
     </g>
     <g id="text_11">
      <!-- −7500 -->
      <g transform="translate(209.940625 178.686582)scale(0.1 -0.1)">
       <defs>
        <path d="M 3.65625 32.234375 
L 57.078125 32.234375 
L 57.03125 26.8125 
L 3.609375 26.8125 
z
" id="Palatino-Roman-8722"/>
       </defs>
       <use xlink:href="#Palatino-Roman-8722"/>
       <use x="60.595703" xlink:href="#Palatino-Roman-55"/>
       <use x="110.595703" xlink:href="#Palatino-Roman-53"/>
       <use x="160.595703" xlink:href="#Palatino-Roman-48"/>
       <use x="210.595703" xlink:href="#Palatino-Roman-48"/>
      </g>
     </g>
    </g>
    <g id="ytick_2">
     <g id="line2d_11">
      <g>
       <use style="stroke:#000000;stroke-width:0.8;" x="243" xlink:href="#m8a78b6b7a8" y="149.430328"/>
      </g>
     </g>
     <g id="text_12">
      <!-- −5000 -->
      <g transform="translate(209.940625 153.067828)scale(0.1 -0.1)">
       <use xlink:href="#Palatino-Roman-8722"/>
       <use x="60.595703" xlink:href="#Palatino-Roman-53"/>
       <use x="110.595703" xlink:href="#Palatino-Roman-48"/>
       <use x="160.595703" xlink:href="#Palatino-Roman-48"/>
       <use x="210.595703" xlink:href="#Palatino-Roman-48"/>
      </g>
     </g>
    </g>
    <g id="ytick_3">
     <g id="line2d_12">
      <g>
       <use style="stroke:#000000;stroke-width:0.8;" x="243" xlink:href="#m8a78b6b7a8" y="123.811574"/>
      </g>
     </g>
     <g id="text_13">
      <!-- −2500 -->
      <g transform="translate(209.940625 127.449074)scale(0.1 -0.1)">
       <use xlink:href="#Palatino-Roman-8722"/>
       <use x="60.595703" xlink:href="#Palatino-Roman-50"/>
       <use x="110.595703" xlink:href="#Palatino-Roman-53"/>
       <use x="160.595703" xlink:href="#Palatino-Roman-48"/>
       <use x="210.595703" xlink:href="#Palatino-Roman-48"/>
      </g>
     </g>
    </g>
    <g id="ytick_4">
     <g id="line2d_13">
      <g>
       <use style="stroke:#000000;stroke-width:0.8;" x="243" xlink:href="#m8a78b6b7a8" y="98.19282"/>
      </g>
     </g>
     <g id="text_14">
      <!-- 0 -->
      <g transform="translate(231 101.83032)scale(0.1 -0.1)">
       <use xlink:href="#Palatino-Roman-48"/>
      </g>
     </g>
    </g>
    <g id="ytick_5">
     <g id="line2d_14">
      <g>
       <use style="stroke:#000000;stroke-width:0.8;" x="243" xlink:href="#m8a78b6b7a8" y="72.574066"/>
      </g>
     </g>
     <g id="text_15">
      <!-- 2500 -->
      <g transform="translate(216 76.211566)scale(0.1 -0.1)">
       <use xlink:href="#Palatino-Roman-50"/>
       <use x="50" xlink:href="#Palatino-Roman-53"/>
       <use x="100" xlink:href="#Palatino-Roman-48"/>
       <use x="150" xlink:href="#Palatino-Roman-48"/>
      </g>
     </g>
    </g>
    <g id="ytick_6">
     <g id="line2d_15">
      <g>
       <use style="stroke:#000000;stroke-width:0.8;" x="243" xlink:href="#m8a78b6b7a8" y="46.955312"/>
      </g>
     </g>
     <g id="text_16">
      <!-- 5000 -->
      <g transform="translate(216 50.592812)scale(0.1 -0.1)">
       <use xlink:href="#Palatino-Roman-53"/>
       <use x="50" xlink:href="#Palatino-Roman-48"/>
       <use x="100" xlink:href="#Palatino-Roman-48"/>
       <use x="150" xlink:href="#Palatino-Roman-48"/>
      </g>
     </g>
    </g>
    <g id="text_17">
     <!-- Feature importance -->
     <g transform="translate(203.185938 147.850625)rotate(-90)scale(0.1 -0.1)">
      <defs>
       <path d="M 2.15625 66.265625 
L 2.15625 69.390625 
Q 9.578125 69.09375 14.75 69.09375 
Q 18.40625 69.09375 27.875 69.28125 
Q 37.359375 69.484375 40.671875 69.484375 
Q 44.234375 69.484375 47.1875 69.40625 
Q 50.140625 69.34375 52.546875 69.140625 
Q 51.3125 64.984375 50.984375 54.34375 
L 47.90625 54.34375 
Q 47.46875 60.25 46.6875 63.421875 
Q 44.140625 64.3125 40.40625 64.71875 
Q 36.671875 65.140625 31.734375 65.140625 
Q 26.8125 65.140625 21.53125 64.546875 
Q 21.234375 61.921875 21.140625 59.625 
Q 21.09375 58.296875 20.90625 48.4375 
L 20.90625 37.59375 
Q 26.375 37.453125 30.5625 37.453125 
Q 36.765625 37.453125 40.484375 38.09375 
Q 41.890625 38.328125 42.296875 38.890625 
Q 42.71875 39.453125 43.21875 43.015625 
L 43.609375 46.046875 
L 46.6875 46.046875 
L 46.34375 34.90625 
L 46.6875 22.953125 
L 43.609375 22.953125 
L 43.265625 26.078125 
Q 42.71875 31.390625 42.484375 31.78125 
Q 42.09375 32.46875 40.625 32.8125 
Q 37.84375 33.453125 28.03125 33.453125 
Q 24.5625 33.453125 20.90625 33.25 
L 20.90625 23.390625 
Q 20.90625 16.75 21.09375 10.453125 
Q 21.1875 5.8125 21.75 4.921875 
Q 22.3125 4.046875 23.578125 3.625 
Q 24.859375 3.21875 30.609375 3.125 
L 30.609375 0 
Q 24.421875 0.390625 18.265625 0.390625 
Q 12.75 0.390625 2.15625 0 
L 2.15625 3.125 
Q 7.90625 3.21875 9.171875 3.625 
Q 10.453125 4.046875 10.9375 4.78125 
Q 11.53125 5.765625 11.671875 9.515625 
Q 11.71875 10.546875 11.859375 23.390625 
L 11.859375 46 
Q 11.859375 52.640625 11.71875 58.984375 
Q 11.578125 63.625 11.015625 64.46875 
Q 10.453125 65.328125 9.203125 65.734375 
Q 7.953125 66.15625 2.15625 66.265625 
z
" id="Palatino-Roman-70"/>
       <path d="M 43.171875 7.5625 
L 41.609375 4.046875 
Q 38.234375 1.953125 36.671875 1.265625 
Q 34.375 0.25 31.421875 -0.453125 
Q 28.46875 -1.171875 25.203125 -1.171875 
Q 18.75 -1.171875 13.515625 1.515625 
Q 8.296875 4.203125 5.390625 9.546875 
Q 2.484375 14.890625 2.484375 22.078125 
Q 2.484375 27.6875 4.015625 32.203125 
Q 5.5625 36.71875 7.515625 38.875 
Q 8.9375 40.4375 11.90625 42.453125 
Q 14.890625 44.484375 17.828125 45.65625 
Q 21.6875 47.265625 26.171875 47.265625 
Q 31.640625 47.265625 36.0625 44.765625 
Q 40.484375 42.28125 42.53125 37.984375 
Q 44.578125 33.6875 44.578125 28.265625 
Q 44.578125 26.90625 44.390625 24.953125 
Q 40.875 24.265625 38.09375 24.078125 
Q 32.8125 23.6875 27.546875 23.6875 
L 11.859375 23.6875 
Q 11.96875 16.703125 14.28125 12.375 
Q 16.609375 8.0625 20.671875 6 
Q 24.75 3.953125 29.15625 3.953125 
Q 32.125 3.953125 35.078125 4.90625 
Q 38.03125 5.859375 42.390625 8.40625 
z
M 11.859375 27.546875 
Q 13.234375 27.390625 17.046875 27.25 
Q 24.3125 27 27.046875 27 
Q 33.546875 27 35.59375 27.25 
Q 35.640625 28.421875 35.640625 29.046875 
Q 35.640625 36.765625 32.515625 40.375 
Q 29.390625 44 24.171875 44 
Q 18.65625 44 15.28125 40.03125 
Q 11.921875 36.078125 11.859375 27.546875 
z
" id="Palatino-Roman-101"/>
       <path d="M 10.59375 33.453125 
L 8.015625 34.125 
Q 8.0625 35.25 8.0625 37.203125 
Q 8.0625 39.265625 8.015625 40.484375 
Q 14.203125 44.53125 18.171875 45.953125 
Q 21.1875 46.96875 24.953125 46.96875 
Q 30.515625 46.96875 34.328125 44.875 
Q 38.140625 42.78125 39.984375 38.875 
Q 41.265625 36.140625 41.265625 31.390625 
L 41.0625 22.46875 
L 41.0625 7.90625 
Q 41.0625 5.5625 41.453125 4.546875 
Q 41.75 3.8125 42.390625 3.46875 
Q 42.875 3.171875 44.4375 3.078125 
L 47.609375 2.78125 
L 47.609375 0 
Q 43.609375 0.34375 40.578125 0.34375 
Q 37.640625 0.34375 32.765625 0 
L 33.015625 8.59375 
Q 23.046875 1.078125 21.1875 0.125 
Q 19.34375 -0.828125 16.5 -0.828125 
Q 10.59375 -0.828125 7.296875 2.3125 
Q 4 5.46875 4 10.6875 
Q 4 14.0625 5.140625 16.84375 
Q 6.296875 19.625 7.90625 21.265625 
Q 9.515625 22.90625 11.1875 23.6875 
Q 14.015625 25 20.390625 26.515625 
Q 26.765625 28.03125 33.015625 28.765625 
Q 33.0625 33.40625 31.890625 35.984375 
Q 30.71875 38.578125 27.921875 40.234375 
Q 25.140625 41.890625 21.140625 41.890625 
Q 18.265625 41.890625 16.09375 41.109375 
Q 13.921875 40.328125 13.421875 39.796875 
L 12.546875 38.03125 
Q 11.234375 35.109375 10.59375 33.453125 
z
M 33.015625 25.78125 
Q 26.65625 24.703125 22.15625 23.390625 
Q 17.671875 22.078125 15.828125 20.65625 
Q 14.703125 19.828125 13.875 18.171875 
Q 12.59375 15.71875 12.59375 12.75 
Q 12.59375 9.125 14.59375 7.09375 
Q 16.609375 5.078125 20.171875 5.078125 
Q 23.4375 5.078125 26.625 6.953125 
Q 29.828125 8.84375 33.015625 12.59375 
z
" id="Palatino-Roman-97"/>
       <path d="M 57.765625 2.78125 
L 57.765625 0 
Q 51.375 0.34375 48.09375 0.34375 
Q 44.484375 0.34375 40.765625 0 
Q 41.0625 3.953125 41.21875 8.890625 
Q 38.28125 6.546875 34.234375 2.484375 
Q 33.296875 1.5625 32.421875 1.125 
Q 30.328125 -0.046875 28.21875 -0.5625 
Q 26.125 -1.078125 23.1875 -1.078125 
Q 19.234375 -1.078125 16.578125 0 
Q 13.921875 1.078125 12.015625 3.265625 
Q 10.59375 4.890625 9.828125 7.453125 
Q 9.078125 10.015625 9.078125 13.625 
Q 9.078125 15.328125 9.203125 16.84375 
Q 9.328125 18.359375 9.328125 19.828125 
L 9.328125 28.171875 
Q 9.328125 29.4375 9.1875 34.578125 
Q 9.078125 37.796875 8.734375 38.765625 
Q 8.546875 39.265625 8.109375 39.546875 
Q 7.375 40.046875 5.515625 40.046875 
Q 2.828125 40.046875 1.265625 40.09375 
L 1.265625 42.875 
Q 11.765625 44.046875 16.5 46.625 
Q 17.28125 47.078125 17.71875 47.078125 
Q 18.0625 47.078125 18.28125 46.828125 
Q 18.5 46.578125 18.5 46.09375 
Q 18.5 45.703125 18.453125 45.125 
Q 18.265625 43.5625 18.109375 39.109375 
Q 17.828125 30.953125 17.828125 28.171875 
L 17.828125 18.65625 
Q 17.828125 12.703125 18.625 10.28125 
Q 19.4375 7.859375 21.75 6.421875 
Q 24.078125 4.984375 27.484375 4.984375 
Q 29.828125 4.984375 32.140625 5.78125 
Q 34.46875 6.59375 36.328125 8.109375 
Q 37.703125 9.234375 39.109375 11.140625 
Q 40.1875 12.546875 40.53125 13.296875 
Q 40.875 14.0625 40.96875 15.53125 
Q 41.21875 19.828125 41.21875 24.078125 
L 41.21875 28.171875 
Q 41.21875 29.4375 41.0625 34.578125 
Q 40.96875 37.796875 40.625 38.765625 
Q 40.4375 39.265625 39.984375 39.546875 
Q 39.265625 40.046875 37.40625 40.046875 
Q 34.71875 40.046875 33.15625 40.09375 
L 33.15625 42.875 
Q 43.65625 44.046875 48.390625 46.625 
Q 49.171875 47.078125 49.609375 47.078125 
Q 49.953125 47.078125 50.171875 46.828125 
Q 50.390625 46.578125 50.390625 46.09375 
Q 50.390625 45.703125 50.34375 45.125 
Q 50.203125 43.5625 50 38.921875 
Q 49.703125 30.953125 49.703125 28.171875 
L 49.703125 21.484375 
L 49.8125 14.703125 
Q 49.953125 8.796875 50 7.765625 
Q 50.046875 5.328125 50.53125 4.203125 
Q 50.78125 3.765625 51.171875 3.4375 
Q 51.5625 3.125 52.34375 2.9375 
Q 52.640625 2.875 57.765625 2.78125 
z
" id="Palatino-Roman-117"/>
       <path d="M 2.296875 0 
L 2.296875 2.78125 
Q 7.8125 2.875 8.25 2.984375 
Q 9.078125 3.125 9.484375 3.4375 
Q 9.90625 3.765625 10.15625 4.34375 
Q 10.640625 5.46875 10.75 7.859375 
Q 11.03125 20.90625 11.03125 21.484375 
L 11.03125 27.296875 
Q 11.03125 31.203125 10.890625 35.6875 
Q 10.796875 38.578125 10.46875 39.109375 
Q 10.15625 39.65625 9.34375 39.921875 
Q 8.546875 40.1875 2.984375 40.140625 
L 2.984375 42.921875 
Q 12.84375 44.28125 17.390625 46.484375 
Q 18.359375 46.96875 18.703125 46.96875 
Q 19.046875 46.96875 19.234375 46.71875 
Q 19.4375 46.484375 19.4375 46 
Q 19.4375 45.65625 19.390625 45.21875 
Q 19.140625 42.234375 19.09375 35.984375 
Q 21.296875 38.53125 23.140625 41.015625 
Q 25 43.5 25.828125 44.234375 
Q 27.296875 45.515625 29.203125 46.265625 
Q 31.109375 47.015625 33.15625 47.015625 
Q 35.203125 47.015625 37.203125 46.140625 
L 37.5 45.453125 
Q 36.765625 38.96875 36.671875 34.03125 
L 34.46875 34.03125 
Q 33.34375 36.375 31.859375 37.453125 
Q 30.375 38.53125 28.125 38.53125 
Q 24.359375 38.53125 21.71875 35.421875 
Q 19.09375 32.328125 19.09375 26.125 
L 19.09375 21.09375 
Q 19.09375 17.875 19.34375 9.328125 
Q 19.390625 6.296875 19.578125 5.46875 
Q 19.78125 4.640625 20.09375 4.265625 
Q 20.40625 3.90625 21.140625 3.65625 
Q 22.609375 3.21875 29.046875 2.78125 
L 29.046875 0 
Q 20.453125 0.34375 14.40625 0.34375 
Q 8.15625 0.34375 2.296875 0 
z
" id="Palatino-Roman-114"/>
       <path d="M 2.046875 0 
L 2.046875 2.78125 
L 6.6875 2.828125 
Q 7.71875 2.875 8.28125 3.1875 
Q 8.84375 3.515625 9.125 4 
Q 9.671875 4.984375 9.8125 7.46875 
Q 9.8125 8.109375 10.109375 21.484375 
L 10.109375 27.296875 
Q 10.109375 31.203125 9.96875 35.6875 
Q 9.8125 38.578125 9.5 39.109375 
Q 9.1875 39.65625 8.40625 39.921875 
Q 7.625 40.1875 2.046875 40.140625 
L 2.046875 42.921875 
Q 11.921875 44.28125 16.453125 46.484375 
Q 17.4375 46.96875 17.78125 46.96875 
Q 18.109375 46.96875 18.296875 46.71875 
Q 18.5 46.484375 18.5 46 
Q 18.5 45.65625 18.453125 45.21875 
Q 18.265625 42.875 18.171875 38.234375 
L 24.5625 44.09375 
Q 25.78125 45.171875 26.078125 45.3125 
Q 27.203125 45.953125 29.296875 46.484375 
Q 31.390625 47.015625 33.6875 47.015625 
Q 38.375 47.015625 42.03125 44.71875 
Q 45.703125 42.4375 47.65625 37.9375 
L 53.03125 42.921875 
Q 54.828125 44.578125 55.515625 44.96875 
Q 56.78125 45.703125 59.125 46.328125 
Q 61.46875 46.96875 63.765625 46.96875 
Q 69.34375 46.96875 73.09375 44.015625 
Q 76.859375 41.0625 77.9375 37.3125 
Q 78.609375 34.8125 78.609375 26.5625 
L 78.609375 21.484375 
L 78.765625 14.703125 
Q 78.90625 8.796875 78.90625 7.765625 
Q 79 5.328125 79.5 4.203125 
Q 79.6875 3.765625 80.09375 3.4375 
Q 80.515625 3.125 81.296875 2.9375 
Q 81.59375 2.875 86.671875 2.78125 
L 86.671875 0 
Q 80.515625 0.296875 78.265625 0.296875 
Q 76.125 0.296875 69.625 0 
L 70.0625 13.484375 
L 70.21875 18.75 
L 70.21875 22.953125 
Q 70.21875 31.15625 69.390625 34.15625 
Q 68.5625 37.15625 65.890625 39.015625 
Q 63.234375 40.875 59.71875 40.875 
Q 55.671875 40.875 52.390625 38.53125 
Q 49.953125 36.71875 49.171875 34.28125 
Q 48.390625 31.84375 48.390625 24.75 
L 48.390625 21.484375 
L 48.53125 14.703125 
Q 48.640625 8.796875 48.6875 7.765625 
Q 48.78125 5.328125 49.265625 4.203125 
Q 49.46875 3.765625 49.859375 3.4375 
Q 50.25 3.125 51.03125 2.9375 
Q 51.375 2.875 56.453125 2.78125 
L 56.453125 0 
Q 49.265625 0.390625 44.921875 0.390625 
Q 41.40625 0.390625 32.125 0 
L 32.125 2.78125 
L 36.765625 2.828125 
Q 37.84375 2.875 38.40625 3.1875 
Q 38.96875 3.515625 39.265625 4 
Q 39.796875 4.984375 39.890625 7.46875 
Q 39.9375 8.109375 40.1875 21.484375 
L 40.1875 25.296875 
Q 40.1875 31.59375 39.203125 34.5 
Q 38.234375 37.40625 35.78125 39.140625 
Q 33.34375 40.875 29.9375 40.875 
Q 27 40.875 24.390625 39.625 
Q 21.78125 38.375 20.359375 36.515625 
Q 18.953125 34.671875 18.65625 32.5625 
Q 18.171875 29.203125 18.171875 24.46875 
L 18.171875 21.484375 
Q 18.453125 8.796875 18.453125 7.765625 
Q 18.5625 5.328125 19.046875 4.203125 
Q 19.234375 3.765625 19.625 3.4375 
Q 20.015625 3.125 20.84375 2.9375 
Q 21.140625 2.875 26.21875 2.78125 
L 26.21875 0 
Q 19.484375 0.390625 14.75 0.390625 
Q 10.546875 0.390625 2.046875 0 
z
" id="Palatino-Roman-109"/>
       <path d="M 42.390625 5.609375 
L 40.4375 2.34375 
Q 37.0625 0.53125 33.765625 -0.296875 
Q 30.46875 -1.125 26.3125 -1.125 
Q 16.0625 -1.125 9.984375 5.046875 
Q 3.90625 11.234375 3.90625 22.015625 
Q 3.90625 27.734375 5.53125 31.953125 
Q 7.171875 36.1875 9.578125 38.484375 
Q 11.1875 40.09375 15.703125 42.65625 
Q 20.21875 45.21875 22.015625 45.953125 
Q 25.34375 47.359375 29.984375 47.359375 
Q 34.375 47.359375 37.890625 46.4375 
Q 40.140625 45.84375 42.390625 44.484375 
Q 41.796875 40.71875 41.546875 38.78125 
Q 41.3125 36.859375 40.921875 31.78125 
L 38.140625 31.78125 
Q 37.84375 36.53125 37.546875 37.703125 
Q 37.359375 38.421875 36.671875 39.015625 
Q 34.90625 40.375 32.140625 41.375 
Q 29.390625 42.390625 26.125 42.390625 
Q 22.015625 42.390625 19.015625 40.703125 
Q 16.015625 39.015625 14.359375 35.34375 
Q 12.703125 31.6875 12.703125 26.265625 
Q 12.703125 19.625 15.046875 14.25 
Q 17.390625 8.890625 21.40625 6.421875 
Q 25.4375 3.953125 30.421875 3.953125 
Q 32.90625 3.953125 35.265625 4.5625 
Q 37.640625 5.171875 41.359375 6.890625 
z
" id="Palatino-Roman-99"/>
      </defs>
      <use xlink:href="#Palatino-Roman-70"/>
      <use x="55.615234" xlink:href="#Palatino-Roman-101"/>
      <use x="103.515625" xlink:href="#Palatino-Roman-97"/>
      <use x="153.515625" xlink:href="#Palatino-Roman-116"/>
      <use x="186.132812" xlink:href="#Palatino-Roman-117"/>
      <use x="246.435547" xlink:href="#Palatino-Roman-114"/>
      <use x="284.1875" xlink:href="#Palatino-Roman-101"/>
      <use x="332.087891" xlink:href="#Palatino-Roman-32"/>
      <use x="357.087891" xlink:href="#Palatino-Roman-105"/>
      <use x="386.189453" xlink:href="#Palatino-Roman-109"/>
      <use x="474.470703" xlink:href="#Palatino-Roman-112"/>
      <use x="534.578125" xlink:href="#Palatino-Roman-111"/>
      <use x="589.167969" xlink:href="#Palatino-Roman-114"/>
      <use x="628.669922" xlink:href="#Palatino-Roman-116"/>
      <use x="661.287109" xlink:href="#Palatino-Roman-97"/>
      <use x="711.287109" xlink:href="#Palatino-Roman-110"/>
      <use x="769.490234" xlink:href="#Palatino-Roman-99"/>
      <use x="813.875" xlink:href="#Palatino-Roman-101"/>
     </g>
    </g>
   </g>
   <g id="line2d_16">
    <path clip-path="url(#p1f636a58d0)" d="M 243 98.19282 
L 249.696 82.448528 
L 256.392 32.742222 
L 263.088 63.456198 
L 269.784 32.490256 
L 276.48 98.19282 
L 283.176 36.85766 
L 289.872 175.835711 
L 296.568 76.764679 
L 303.264 98.19282 
L 343.44 98.19282 
L 350.136 106.945959 
L 356.832 98.19282 
L 370.224 98.19282 
L 376.92 93.349 
L 383.616 96.034829 
L 390.312 98.19282 
L 430.488 98.19282 
L 437.184 104.704533 
L 443.88 98.19282 
L 450.576 108.302493 
L 457.272 98.19282 
L 477.36 98.19282 
L 484.056 107.749435 
L 490.752 98.19282 
L 497.448 99.258468 
L 504.144 98.719337 
L 510.84 98.740303 
L 517.536 98.19282 
L 524.232 99.108557 
L 530.928 102.277085 
L 537.624 100.069394 
L 544.32 108.478032 
L 551.016 103.94255 
L 557.712 98.19282 
L 564.408 98.19282 
L 571.104 102.425417 
L 577.8 98.19282 
L 584.496 98.19282 
L 591.192 96.293753 
L 597.888 98.19282 
L 651.456 98.19282 
L 658.152 104.126308 
L 664.848 98.19282 
L 684.936 98.19282 
L 691.632 98.480057 
L 698.328 105.833101 
L 705.024 98.19282 
L 711.72 99.080715 
L 718.416 98.19282 
L 725.112 102.405691 
L 731.808 98.19282 
L 745.2 98.19282 
L 751.896 104.795849 
L 758.592 98.19282 
L 765.288 98.19282 
L 771.984 100.189884 
L 778.68 98.19282 
L 818.856 98.19282 
L 825.552 98.399604 
L 832.248 100.473965 
L 838.944 98.736368 
L 845.64 98.19282 
L 912.6 98.19282 
L 919.296 93.43759 
L 925.992 100.652774 
L 932.688 98.19282 
L 939.384 98.19282 
L 946.08 100.757319 
L 952.776 98.19282 
L 1046.52 98.19282 
L 1053.216 105.00621 
L 1059.912 98.19282 
L 1066.608 98.19282 
L 1073.304 100.188541 
L 1080 98.19282 
L 1126.872 98.19282 
L 1133.568 99.899736 
L 1140.264 98.19282 
L 1146.96 98.19282 
L 1153.656 104.586308 
L 1160.352 98.19282 
L 1167.048 97.441934 
L 1173.744 98.19282 
L 1207.224 98.19282 
L 1213.92 106.530607 
L 1220.616 100.137089 
L 1227.312 98.19282 
L 1247.4 98.19282 
L 1254.096 106.95965 
L 1260.792 93.908063 
L 1267.488 98.19282 
L 1280.88 98.19282 
L 1287.576 102.223214 
L 1294.272 97.035211 
L 1300.968 98.19282 
L 1307.664 98.19282 
L 1314.36 104.465326 
L 1321.056 98.19282 
L 1327.752 98.19282 
L 1334.448 99.630811 
L 1341.144 98.19282 
L 1347.84 98.19282 
L 1354.536 102.945878 
L 1361.232 98.19282 
L 1401.408 98.19282 
L 1408.104 97.39579 
L 1414.8 98.19282 
L 1421.496 99.281586 
L 1428.192 98.19282 
L 1454.976 98.19282 
L 1461.672 108.559777 
L 1468.368 98.19282 
L 1488.456 98.19282 
L 1495.152 93.523915 
L 1501.848 98.19282 
L 1508.544 96.885075 
L 1515.24 98.19282 
L 1521.936 90.209637 
L 1528.632 98.19282 
L 1555.416 98.19282 
L 1562.112 111.576334 
L 1568.808 108.333778 
L 1575.504 98.19282 
L 1582.2 113.531567 
L 1588.896 98.19282 
L 1649.16 98.19282 
L 1655.856 106.09929 
L 1662.552 98.19282 
L 1675.944 98.19282 
L 1682.64 110.056947 
L 1689.336 98.19282 
L 1696.032 98.19282 
L 1702.728 106.327512 
L 1709.424 98.19282 
L 1716.12 98.19282 
L 1722.816 109.465205 
L 1729.512 98.19282 
L 1749.6 98.19282 
L 1749.6 98.19282 
" style="fill:none;stroke:#ff1656;stroke-linecap:square;stroke-width:1.5;"/>
   </g>
   <g id="line2d_17">
    <path clip-path="url(#p1f636a58d0)" d="M 243 98.19282 
L 249.696 83.114687 
L 256.392 98.19282 
L 263.088 97.317222 
L 269.784 98.19282 
L 276.48 98.19282 
L 283.176 99.657639 
L 289.872 98.19282 
L 316.656 98.19282 
L 323.352 91.811793 
L 330.048 98.19282 
L 343.44 98.19282 
L 350.136 94.441814 
L 356.832 98.19282 
L 370.224 98.19282 
L 376.92 93.280957 
L 383.616 98.19282 
L 437.184 98.19282 
L 443.88 91.833764 
L 450.576 98.19282 
L 477.36 98.19282 
L 484.056 97.097403 
L 490.752 98.19282 
L 497.448 98.19282 
L 504.144 93.984673 
L 510.84 92.638879 
L 517.536 98.19282 
L 524.232 96.630137 
L 530.928 98.19282 
L 571.104 98.19282 
L 577.8 95.564592 
L 584.496 94.95836 
L 591.192 98.19282 
L 597.888 92.898899 
L 604.584 96.894359 
L 611.28 98.19282 
L 631.368 98.19282 
L 638.064 104.719187 
L 644.76 94.488102 
L 651.456 98.19282 
L 684.936 98.19282 
L 691.632 99.11818 
L 698.328 98.19282 
L 758.592 98.19282 
L 765.288 103.044735 
L 771.984 94.299261 
L 778.68 98.19282 
L 798.768 98.19282 
L 805.464 102.133589 
L 812.16 98.19282 
L 925.992 98.19282 
L 932.688 90.589789 
L 939.384 90.635872 
L 946.08 97.891215 
L 952.776 98.19282 
L 972.864 98.19282 
L 979.56 92.550125 
L 986.256 98.19282 
L 1066.608 98.19282 
L 1073.304 97.864951 
L 1080 98.19282 
L 1086.696 94.111127 
L 1093.392 98.19282 
L 1100.088 98.19282 
L 1106.784 90.233083 
L 1113.48 98.19282 
L 1120.176 98.19282 
L 1126.872 90.423943 
L 1133.568 97.445347 
L 1140.264 96.948148 
L 1146.96 98.19282 
L 1200.528 98.19282 
L 1207.224 94.748973 
L 1213.92 96.978614 
L 1220.616 98.19282 
L 1267.488 98.19282 
L 1274.184 94.159506 
L 1280.88 97.969086 
L 1287.576 98.153029 
L 1307.664 98.19282 
L 1314.36 96.616877 
L 1321.056 98.19282 
L 1347.84 98.19282 
L 1354.536 91.0631 
L 1361.232 98.19282 
L 1367.928 98.19282 
L 1374.624 94.951064 
L 1381.32 98.19282 
L 1414.8 98.19282 
L 1421.496 94.242869 
L 1428.192 98.19282 
L 1454.976 98.19282 
L 1461.672 88.468392 
L 1468.368 98.19282 
L 1495.152 98.19282 
L 1501.848 88.530676 
L 1508.544 98.19282 
L 1562.112 98.19282 
L 1568.808 97.356173 
L 1575.504 98.19282 
L 1635.768 98.19282 
L 1642.464 91.413729 
L 1649.16 104.608084 
L 1655.856 98.19282 
L 1675.944 98.19282 
L 1682.64 94.731337 
L 1689.336 98.19282 
L 1696.032 98.19282 
L 1702.728 93.797462 
L 1709.424 88.574505 
L 1716.12 98.19282 
L 1722.816 86.309622 
L 1729.512 96.046819 
L 1736.208 93.380419 
L 1742.904 84.514311 
L 1749.6 98.19282 
L 1749.6 98.19282 
" style="fill:none;stroke:#0194dd;stroke-linecap:square;stroke-width:1.5;"/>
   </g>
   <g id="line2d_18">
    <path clip-path="url(#p1f636a58d0)" d="M 243 98.19282 
L 249.696 101.268833 
L 256.392 98.19282 
L 263.088 133.552583 
L 269.784 98.19282 
L 276.48 98.19282 
L 283.176 92.774843 
L 289.872 98.19282 
L 316.656 98.19282 
L 323.352 102.740753 
L 330.048 98.19282 
L 336.744 98.19282 
L 343.44 100.216968 
L 350.136 111.654584 
L 356.832 98.19282 
L 363.528 98.19282 
L 370.224 104.55865 
L 376.92 112.007938 
L 383.616 98.19282 
L 390.312 98.19282 
L 397.008 105.108715 
L 403.704 98.19282 
L 450.576 98.19282 
L 457.272 130.15655 
L 463.968 98.19282 
L 470.664 100.152132 
L 477.36 100.710231 
L 484.056 98.19282 
L 517.536 98.19282 
L 524.232 89.219421 
L 530.928 98.19282 
L 551.016 98.19282 
L 557.712 100.328983 
L 564.408 98.19282 
L 571.104 98.19282 
L 577.8 100.113827 
L 584.496 101.367148 
L 591.192 98.19282 
L 597.888 110.780236 
L 604.584 98.19282 
L 644.76 98.19282 
L 651.456 90.751586 
L 658.152 98.19282 
L 684.936 98.19282 
L 691.632 97.909333 
L 698.328 96.926803 
L 705.024 98.19282 
L 711.72 85.207965 
L 718.416 98.19282 
L 745.2 98.19282 
L 751.896 90.456858 
L 758.592 98.19282 
L 818.856 98.19282 
L 825.552 89.411603 
L 832.248 98.19282 
L 872.424 98.19282 
L 879.12 104.871445 
L 885.816 98.19282 
L 946.08 98.19282 
L 952.776 99.758771 
L 959.472 98.19282 
L 1066.608 98.19282 
L 1073.304 92.225269 
L 1080 98.19282 
L 1086.696 99.644174 
L 1093.392 98.19282 
L 1106.784 98.19282 
L 1113.48 98.338601 
L 1120.176 98.19282 
L 1126.872 99.68086 
L 1133.568 98.19282 
L 1140.264 102.898462 
L 1146.96 98.19282 
L 1180.44 98.19282 
L 1187.136 96.064445 
L 1193.832 98.19282 
L 1213.92 98.19282 
L 1220.616 86.657207 
L 1227.312 98.19282 
L 1234.008 100.601055 
L 1240.704 98.19282 
L 1267.488 98.19282 
L 1274.184 101.489708 
L 1280.88 98.19282 
L 1287.576 91.987394 
L 1294.272 98.19282 
L 1367.928 98.19282 
L 1374.624 105.420977 
L 1381.32 98.19282 
L 1414.8 98.19282 
L 1421.496 106.225088 
L 1428.192 98.19282 
L 1434.888 98.19282 
L 1441.584 97.297158 
L 1448.28 98.19282 
L 1454.976 98.19282 
L 1461.672 99.880491 
L 1468.368 98.19282 
L 1481.76 98.19282 
L 1488.456 89.356471 
L 1495.152 98.19282 
L 1508.544 98.19282 
L 1515.24 96.291632 
L 1521.936 98.19282 
L 1588.896 98.19282 
L 1595.592 97.131363 
L 1602.288 98.19282 
L 1629.072 98.19282 
L 1635.768 92.631234 
L 1642.464 98.19282 
L 1649.16 92.210144 
L 1655.856 98.19282 
L 1682.64 98.19282 
L 1689.336 101.893367 
L 1696.032 98.19282 
L 1702.728 107.15923 
L 1709.424 104.720683 
L 1716.12 98.19282 
L 1722.816 98.19282 
L 1729.512 100.355115 
L 1736.208 103.449573 
L 1742.904 98.565317 
L 1749.6 98.19282 
L 1749.6 98.19282 
" style="fill:none;stroke:#06b658;stroke-linecap:square;stroke-width:1.5;"/>
   </g>
   <g id="line2d_19">
    <path clip-path="url(#p1f636a58d0)" d="M 243 98.19282 
L 249.696 161.929267 
L 256.392 160.324426 
L 263.088 100.286395 
L 269.784 98.19282 
L 276.48 103.067936 
L 283.176 147.473096 
L 289.872 75.436152 
L 296.568 98.19282 
L 303.264 98.19282 
L 309.96 78.173239 
L 316.656 98.19282 
L 336.744 98.19282 
L 343.44 89.952199 
L 350.136 80.981086 
L 356.832 98.19282 
L 370.224 98.19282 
L 376.92 100.826735 
L 383.616 98.19282 
L 423.792 98.19282 
L 430.488 98.945519 
L 437.184 98.19282 
L 517.536 98.19282 
L 524.232 112.550625 
L 530.928 80.450214 
L 537.624 98.19282 
L 584.496 98.19282 
L 591.192 104.842342 
L 597.888 98.19282 
L 624.672 98.19282 
L 631.368 92.94408 
L 638.064 96.094152 
L 644.76 98.19282 
L 664.848 98.19282 
L 671.544 92.467223 
L 678.24 98.19282 
L 684.936 98.19282 
L 691.632 89.794224 
L 698.328 98.19282 
L 718.416 98.19282 
L 725.112 96.302658 
L 731.808 98.19282 
L 738.504 93.626851 
L 745.2 98.19282 
L 751.896 98.19282 
L 758.592 96.447476 
L 765.288 96.397314 
L 771.984 98.19282 
L 778.68 99.723602 
L 785.376 98.19282 
L 805.464 98.19282 
L 812.16 96.0506 
L 818.856 98.19282 
L 872.424 98.19282 
L 879.12 92.224419 
L 885.816 98.19282 
L 892.512 98.19282 
L 899.208 88.389466 
L 905.904 98.19282 
L 912.6 98.19282 
L 919.296 100.426007 
L 925.992 98.19282 
L 932.688 98.19282 
L 939.384 98.407146 
L 946.08 98.19282 
L 966.168 98.19282 
L 972.864 93.585564 
L 979.56 98.19282 
L 986.256 98.538817 
L 992.952 98.19282 
L 999.648 98.19282 
L 1006.344 93.245152 
L 1013.04 98.19282 
L 1019.736 98.19282 
L 1026.432 88.53 
L 1033.128 98.19282 
L 1039.824 95.424601 
L 1046.52 98.19282 
L 1059.912 98.19282 
L 1066.608 103.322463 
L 1073.304 98.986376 
L 1080 98.19282 
L 1086.696 98.19282 
L 1093.392 102.941943 
L 1100.088 93.443554 
L 1106.784 98.19282 
L 1113.48 98.19282 
L 1120.176 93.575818 
L 1126.872 98.19282 
L 1227.312 98.19282 
L 1234.008 92.065808 
L 1240.704 98.19282 
L 1274.184 98.19282 
L 1280.88 98.952283 
L 1287.576 98.261816 
L 1300.968 98.19282 
L 1381.32 98.19282 
L 1388.016 101.366943 
L 1394.712 89.427025 
L 1401.408 98.19282 
L 1408.104 98.476235 
L 1414.8 98.19282 
L 1421.496 97.559166 
L 1428.192 98.19282 
L 1454.976 98.19282 
L 1461.672 97.343702 
L 1468.368 98.19282 
L 1508.544 98.19282 
L 1515.24 100.539631 
L 1521.936 98.19282 
L 1568.808 98.19282 
L 1575.504 97.081981 
L 1582.2 98.19282 
L 1588.896 91.062055 
L 1595.592 98.19282 
L 1602.288 111.184305 
L 1608.984 98.3133 
L 1615.68 98.19282 
L 1629.072 98.14521 
L 1635.768 100.068215 
L 1642.464 98.19282 
L 1662.552 98.19282 
L 1669.248 102.588701 
L 1675.944 98.19282 
L 1696.032 98.19282 
L 1702.728 97.062787 
L 1709.424 98.19282 
L 1716.12 101.280782 
L 1722.816 98.19282 
L 1749.6 98.19282 
L 1749.6 98.19282 
" style="fill:none;stroke:#ffda6b;stroke-linecap:square;stroke-width:1.5;"/>
   </g>
   <g id="patch_3">
    <path d="M 243 183.6 
L 243 25.92 
" style="fill:none;stroke:#000000;stroke-linecap:square;stroke-linejoin:miter;stroke-width:0.8;"/>
   </g>
   <g id="patch_4">
    <path d="M 1749.6 183.6 
L 1749.6 25.92 
" style="fill:none;stroke:#000000;stroke-linecap:square;stroke-linejoin:miter;stroke-width:0.8;"/>
   </g>
   <g id="patch_5">
    <path d="M 243 183.6 
L 1749.6 183.6 
" style="fill:none;stroke:#000000;stroke-linecap:square;stroke-linejoin:miter;stroke-width:0.8;"/>
   </g>
   <g id="patch_6">
    <path d="M 243 25.92 
L 1749.6 25.92 
" style="fill:none;stroke:#000000;stroke-linecap:square;stroke-linejoin:miter;stroke-width:0.8;"/>
   </g>
   <g id="legend_1">
    <g id="patch_7">
     <path d="M 1702.821875 94.03875 
L 1742.6 94.03875 
Q 1744.6 94.03875 1744.6 92.03875 
L 1744.6 32.92 
Q 1744.6 30.92 1742.6 30.92 
L 1702.821875 30.92 
Q 1700.821875 30.92 1700.821875 32.92 
L 1700.821875 92.03875 
Q 1700.821875 94.03875 1702.821875 94.03875 
z
" style="fill:#ffffff;opacity:0.8;stroke:#cccccc;stroke-linejoin:miter;"/>
    </g>
    <g id="line2d_20">
     <path d="M 1704.821875 38.695 
L 1724.821875 38.695 
" style="fill:none;stroke:#ff1656;stroke-linecap:square;stroke-width:1.5;"/>
    </g>
    <g id="line2d_21"/>
    <g id="text_18">
     <!-- A -->
     <g transform="translate(1732.821875 42.195)scale(0.1 -0.1)">
      <defs>
       <path d="M 1.703125 0 
L 1.703125 3.328125 
Q 5.5625 3.375 6.515625 3.640625 
Q 7.46875 3.90625 8.265625 4.65625 
Q 9.078125 5.421875 10.59375 8.59375 
Q 11.46875 10.40625 16.9375 22.3125 
L 29.15625 49.859375 
Q 31.15625 54.390625 37.703125 70.0625 
L 40.875 70.0625 
L 61.71875 21.09375 
Q 66.796875 9.1875 68.453125 6.15625 
Q 69.390625 4.4375 70.484375 3.90625 
Q 71.578125 3.375 75.4375 3.328125 
L 75.4375 0 
Q 67.828125 0.484375 64.796875 0.484375 
L 49.078125 0 
L 49.078125 3.328125 
Q 54.546875 3.421875 55.71875 3.65625 
Q 56.890625 3.90625 57.296875 4.359375 
Q 57.71875 4.828125 57.71875 5.515625 
Q 57.71875 6.59375 57.03125 8.296875 
L 51.03125 23.25 
L 22.75 23.25 
L 17.4375 10.6875 
Q 16.015625 7.328125 16.015625 5.765625 
Q 16.015625 5.078125 16.40625 4.640625 
Q 16.9375 4 18.0625 3.765625 
Q 19.875 3.375 24.421875 3.328125 
L 24.421875 0 
Q 16.15625 0.4375 12.0625 0.4375 
Q 7.328125 0.4375 1.703125 0 
z
M 24.421875 27.390625 
L 49.078125 27.390625 
L 36.859375 56.84375 
z
" id="Palatino-Roman-65"/>
      </defs>
      <use xlink:href="#Palatino-Roman-65"/>
     </g>
    </g>
    <g id="line2d_22">
     <path d="M 1704.821875 53.724687 
L 1724.821875 53.724687 
" style="fill:none;stroke:#0194dd;stroke-linecap:square;stroke-width:1.5;"/>
    </g>
    <g id="line2d_23"/>
    <g id="text_19">
     <!-- T -->
     <g transform="translate(1732.821875 57.224687)scale(0.1 -0.1)">
      <defs>
       <path d="M 5.609375 53.21875 
L 2.59375 53.21875 
Q 2.546875 64.890625 2.09375 69.390625 
Q 7.421875 69.1875 18.796875 68.890625 
Q 28.03125 68.703125 31.109375 68.703125 
Q 34.421875 68.703125 46.484375 69 
Q 55.21875 69.1875 59.234375 69.390625 
Q 58.640625 63.921875 58.453125 53.21875 
L 55.328125 53.21875 
L 54.9375 57.90625 
Q 54.546875 62.15625 54.390625 62.734375 
Q 54.25 63.328125 53.984375 63.5625 
Q 53.71875 63.8125 53.171875 63.96875 
Q 52.484375 64.109375 48.28125 64.34375 
Q 44.09375 64.59375 41.65625 64.59375 
L 35.6875 64.59375 
Q 35.203125 59.90625 35.203125 51.953125 
L 35.203125 23.390625 
Q 35.203125 16.75 35.359375 10.453125 
Q 35.5 5.8125 36.0625 4.921875 
Q 36.625 4.046875 37.859375 3.625 
Q 39.109375 3.21875 44.921875 3.125 
L 44.921875 0 
Q 36.1875 0.390625 31.78125 0.390625 
Q 29.890625 0.390625 16.546875 0 
L 16.546875 3.125 
Q 22.359375 3.21875 23.625 3.625 
Q 24.90625 4.046875 25.34375 4.78125 
Q 25.984375 5.765625 26.125 9.515625 
Q 26.125 10.546875 26.3125 23.390625 
L 26.3125 51.859375 
Q 26.3125 53.90625 26.21875 56.34375 
L 25.921875 64.59375 
L 18.65625 64.59375 
Q 12.359375 64.59375 8.640625 64.109375 
Q 7.46875 63.96875 7.125 63.484375 
Q 6.59375 62.640625 6.15625 58.15625 
z
" id="Palatino-Roman-84"/>
      </defs>
      <use xlink:href="#Palatino-Roman-84"/>
     </g>
    </g>
    <g id="line2d_24">
     <path d="M 1704.821875 68.754375 
L 1724.821875 68.754375 
" style="fill:none;stroke:#06b658;stroke-linecap:square;stroke-width:1.5;"/>
    </g>
    <g id="line2d_25"/>
    <g id="text_20">
     <!-- G -->
     <g transform="translate(1732.821875 72.254375)scale(0.1 -0.1)">
      <defs>
       <path d="M 69.53125 3.8125 
Q 62.109375 1.125 57.375 0.203125 
Q 49.03125 -1.421875 41.546875 -1.421875 
Q 30.28125 -1.421875 21.484375 3 
Q 12.703125 7.421875 7.90625 15.375 
Q 3.125 23.34375 3.125 34.1875 
Q 3.125 43.703125 6.5625 50.359375 
Q 10.015625 57.03125 15.15625 61.328125 
Q 20.3125 65.625 25.4375 67.671875 
Q 33.296875 70.796875 44.875 70.796875 
Q 50.296875 70.75 56.265625 69.546875 
Q 62.25 68.359375 69.78125 66.265625 
Q 69.046875 63.765625 68.65625 61.375 
Q 68.265625 58.984375 67.625 51.5625 
L 64.65625 51.5625 
L 64.40625 57.125 
Q 64.359375 58.40625 64.3125 59.1875 
Q 64.265625 59.96875 63.671875 61.1875 
Q 62.359375 62.9375 59.46875 64.359375 
Q 54.5 66.265625 51.25 66.890625 
Q 48 67.53125 43.5 67.53125 
Q 34.234375 67.53125 27.4375 63.578125 
Q 20.65625 59.625 17.15625 52.25 
Q 13.671875 44.875 13.671875 36.140625 
Q 13.671875 26.515625 17.75 18.828125 
Q 21.828125 11.140625 28.6875 7.0625 
Q 35.546875 2.984375 44.671875 2.984375 
Q 48.96875 2.984375 53 3.8125 
Q 57.03125 4.640625 59.8125 6.109375 
Q 60.25 8.0625 60.25 12.359375 
L 60.25 17.78125 
Q 60.25 22.078125 59.8125 22.796875 
Q 59.375 23.53125 57.4375 23.890625 
Q 55.515625 24.265625 48.578125 24.46875 
L 48.578125 27.4375 
L 63.8125 27.09375 
Q 68.265625 27.09375 72.90625 27.4375 
L 73.1875 25.09375 
L 69.53125 22.953125 
Q 68.953125 17.71875 68.953125 13.328125 
Q 68.953125 8.9375 69.53125 3.8125 
z
" id="Palatino-Roman-71"/>
      </defs>
      <use xlink:href="#Palatino-Roman-71"/>
     </g>
    </g>
    <g id="line2d_26">
     <path d="M 1704.821875 83.784063 
L 1724.821875 83.784063 
" style="fill:none;stroke:#ffda6b;stroke-linecap:square;stroke-width:1.5;"/>
    </g>
    <g id="line2d_27"/>
    <g id="text_21">
     <!-- C -->
     <g transform="translate(1732.821875 87.284063)scale(0.1 -0.1)">
      <use xlink:href="#Palatino-Roman-67"/>
     </g>
    </g>
   </g>
  </g>
 </g>
 <defs>
  <clipPath id="p1f636a58d0">
   <rect height="157.68" width="1506.6" x="243" y="25.92"/>
  </clipPath>
 </defs>
</svg>
