<?xml version="1.0" encoding="utf-8" standalone="no"?>
<!DOCTYPE svg PUBLIC "-//W3C//DTD SVG 1.1//EN"
  "http://www.w3.org/Graphics/SVG/1.1/DTD/svg11.dtd">
<!-- Created with matplotlib (https://matplotlib.org/) -->
<svg height="216pt" version="1.1" viewBox="0 0 1944 216" width="1944pt" xmlns="http://www.w3.org/2000/svg" xmlns:xlink="http://www.w3.org/1999/xlink">
 <metadata>
  <rdf:RDF xmlns:cc="http://creativecommons.org/ns#" xmlns:dc="http://purl.org/dc/elements/1.1/" xmlns:rdf="http://www.w3.org/1999/02/22-rdf-syntax-ns#">
   <cc:Work>
    <dc:type rdf:resource="http://purl.org/dc/dcmitype/StillImage"/>
    <dc:date>2021-11-04T01:41:30.097080</dc:date>
    <dc:format>image/svg+xml</dc:format>
    <dc:creator>
     <cc:Agent>
      <dc:title>Matplotlib v3.3.4, https://matplotlib.org/</dc:title>
     </cc:Agent>
    </dc:creator>
   </cc:Work>
  </rdf:RDF>
 </metadata>
 <defs>
  <style type="text/css">*{stroke-linecap:butt;stroke-linejoin:round;}</style>
 </defs>
 <g id="figure_1">
  <g id="patch_1">
   <path d="M 0 216 
L 1944 216 
L 1944 0 
L 0 0 
z
" style="fill:#ffffff;"/>
  </g>
  <g id="axes_1">
   <g id="patch_2">
    <path d="M 243 183.6 
L 1749.6 183.6 
L 1749.6 25.92 
L 243 25.92 
z
" style="fill:#ffffff;"/>
   </g>
   <g id="matplotlib.axis_1">
    <g id="xtick_1">
     <g id="line2d_1">
      <defs>
       <path d="M 0 0 
L 0 3.5 
" id="md8bb96a701" style="stroke:#000000;stroke-width:0.8;"/>
      </defs>
      <g>
       <use style="stroke:#000000;stroke-width:0.8;" x="403.237408" xlink:href="#md8bb96a701" y="183.6"/>
      </g>
     </g>
     <g id="text_1">
      <!-- 0 -->
      <g transform="translate(400.737408 197.875)scale(0.1 -0.1)">
       <defs>
        <path d="M 3.03125 30.21875 
Q 3.03125 44.140625 5.03125 51.703125 
Q 7.03125 59.28125 12.296875 64.203125 
Q 17.578125 69.140625 25.6875 69.140625 
Q 29.78125 69.140625 33.265625 67.75 
Q 36.765625 66.359375 38.984375 64.234375 
Q 41.21875 62.109375 42.75 59 
Q 44.28125 55.90625 44.921875 52.78125 
Q 46.390625 45.65625 46.390625 37.25 
Q 46.390625 26.3125 44.671875 18.5 
Q 43.703125 14.0625 41.890625 10.375 
Q 40.09375 6.6875 37.59375 4.09375 
Q 35.109375 1.515625 31.59375 -0.015625 
Q 28.078125 -1.5625 23.6875 -1.5625 
Q 18.359375 -1.5625 14.546875 0.6875 
Q 10.75 2.9375 8.5 6.453125 
Q 5.375 11.46875 4.203125 17.9375 
Q 3.03125 24.421875 3.03125 30.21875 
z
M 11.421875 33.0625 
Q 11.421875 26.03125 12.34375 19.265625 
Q 13.28125 12.5 15.28125 8.296875 
Q 16.65625 5.46875 19.28125 3.65625 
Q 21.921875 1.859375 25.203125 1.859375 
Q 30.765625 1.859375 33.734375 6.5 
Q 38.03125 13.140625 38.03125 32.90625 
Q 38.03125 41.40625 37.125 48.171875 
Q 36.234375 54.9375 34.125 59.28125 
Q 32.765625 62.0625 30.296875 63.84375 
Q 27.828125 65.625 24.359375 65.625 
Q 20.5625 65.625 17.546875 63.1875 
Q 14.546875 60.75 12.984375 54.328125 
Q 11.421875 47.90625 11.421875 33.0625 
z
" id="Palatino-Roman-48"/>
       </defs>
       <use xlink:href="#Palatino-Roman-48"/>
      </g>
     </g>
    </g>
    <g id="xtick_2">
     <g id="line2d_2">
      <g>
       <use style="stroke:#000000;stroke-width:0.8;" x="587.418337" xlink:href="#md8bb96a701" y="183.6"/>
      </g>
     </g>
     <g id="text_2">
      <!-- 100 -->
      <g transform="translate(579.918337 197.875)scale(0.1 -0.1)">
       <defs>
        <path d="M 7.46875 55.609375 
L 6.59375 55.859375 
L 6.109375 59.859375 
L 6.59375 60.359375 
Q 11.8125 61.859375 17.96875 64.5 
Q 27.046875 68.359375 29.640625 69.671875 
L 30.90625 69.1875 
Q 30.125 46.828125 30.125 43.5 
L 30.125 25.390625 
Q 30.125 14.546875 30.375 8.984375 
Q 30.515625 5.71875 31.171875 4.859375 
Q 31.84375 4 33.125 3.625 
Q 34.421875 3.265625 41.609375 2.984375 
L 41.609375 0 
Q 29.25 0.390625 26.125 0.390625 
Q 23.78125 0.390625 9.578125 0 
L 9.578125 2.984375 
Q 17 3.421875 18.140625 3.6875 
Q 19.28125 3.953125 19.84375 4.484375 
Q 20.40625 5.03125 20.65625 6 
Q 21.046875 7.515625 21.328125 14.71875 
Q 21.625 21.921875 21.625 25.640625 
L 21.625 44.875 
Q 21.625 56.640625 21.578125 59.625 
Q 21.578125 60.9375 21.234375 61.28125 
Q 21.046875 61.46875 20.703125 61.46875 
Q 20.265625 61.46875 18.453125 60.6875 
Q 10.15625 56.984375 7.46875 55.609375 
z
" id="Palatino-Roman-49"/>
       </defs>
       <use xlink:href="#Palatino-Roman-49"/>
       <use x="50" xlink:href="#Palatino-Roman-48"/>
       <use x="100" xlink:href="#Palatino-Roman-48"/>
      </g>
     </g>
    </g>
    <g id="xtick_3">
     <g id="line2d_3">
      <g>
       <use style="stroke:#000000;stroke-width:0.8;" x="771.599267" xlink:href="#md8bb96a701" y="183.6"/>
      </g>
     </g>
     <g id="text_3">
      <!-- 200 -->
      <g transform="translate(764.099267 197.875)scale(0.1 -0.1)">
       <defs>
        <path d="M 1.65625 0 
L 1.65625 2.734375 
Q 3.171875 4.640625 7.125 8.6875 
L 18.015625 20.015625 
Q 19.28125 21.34375 24.21875 26.90625 
Q 27.9375 31.15625 30.03125 34.640625 
Q 32.125 38.140625 33.09375 41.4375 
Q 34.078125 44.734375 34.078125 47.703125 
Q 34.078125 52.78125 31.25 56.5 
Q 27.59375 61.421875 20.609375 61.421875 
Q 16.703125 61.421875 13.765625 60.15625 
Q 10.84375 58.890625 9.84375 57.34375 
Q 8.84375 55.8125 6.890625 48.53125 
L 3.953125 48.53125 
Q 5.125 55.078125 5.609375 62.015625 
Q 8.6875 64.9375 10.765625 66.203125 
Q 12.84375 67.484375 15.859375 68.234375 
Q 18.890625 69 22.46875 69 
Q 28.859375 69 33.25 66.828125 
Q 37.640625 64.65625 40.28125 60.359375 
Q 42.921875 56.0625 42.921875 50.640625 
Q 42.921875 44.78125 39.921875 39.09375 
Q 36.921875 33.40625 27.4375 23.96875 
L 19.09375 15.671875 
Q 14.546875 11.140625 12.203125 8.453125 
L 33.640625 8.453125 
Q 40.09375 8.453125 46.296875 9.078125 
L 46.625 8.6875 
Q 46.34375 6.84375 46.34375 4.34375 
Q 46.34375 2.09375 46.625 0.53125 
L 46.296875 0 
Q 42.828125 0.203125 38.375 0.296875 
Q 28.421875 0.484375 25.046875 0.484375 
Q 20.796875 0.484375 10.75 0.296875 
Q 5.21875 0.203125 1.65625 0 
z
" id="Palatino-Roman-50"/>
       </defs>
       <use xlink:href="#Palatino-Roman-50"/>
       <use x="50" xlink:href="#Palatino-Roman-48"/>
       <use x="100" xlink:href="#Palatino-Roman-48"/>
      </g>
     </g>
    </g>
    <g id="xtick_4">
     <g id="line2d_4">
      <g>
       <use style="stroke:#000000;stroke-width:0.8;" x="955.780196" xlink:href="#md8bb96a701" y="183.6"/>
      </g>
     </g>
     <g id="text_4">
      <!-- 300 -->
      <g transform="translate(948.280196 197.875)scale(0.1 -0.1)">
       <defs>
        <path d="M 5.078125 1.515625 
Q 4.390625 5.671875 3.859375 7.90625 
Q 3.515625 9.328125 1.65625 15.96875 
L 4.34375 17 
Q 7.421875 8.796875 11.390625 5.890625 
Q 15.375 2.984375 21.78125 2.984375 
Q 26.46875 2.984375 29.65625 4.828125 
Q 32.859375 6.6875 34.859375 10.734375 
Q 36.859375 14.796875 36.859375 19.875 
Q 36.859375 26.65625 33.390625 30.296875 
Q 29.9375 33.9375 24.078125 33.9375 
Q 22.125 33.9375 20.4375 33.546875 
Q 18.75 33.15625 15.4375 31.78125 
L 14.84375 32.28125 
L 15.921875 37.59375 
Q 19.828125 37.359375 21.140625 37.359375 
Q 27.09375 37.359375 30.34375 41.53125 
Q 33.59375 45.703125 33.59375 50.984375 
Q 33.59375 55.71875 30.140625 59.03125 
Q 26.703125 62.359375 21.4375 62.359375 
Q 18.265625 62.359375 15.328125 61.078125 
Q 12.40625 59.8125 10.15625 57.671875 
Q 9.28125 55.8125 7.375 50.6875 
L 4.34375 50.6875 
L 7.375 62.40625 
Q 10.640625 65.828125 13.53125 67.1875 
Q 18.265625 69.34375 23.875 69.34375 
Q 32.125 69.34375 36.9375 64.984375 
Q 41.75 60.640625 41.75 54.4375 
Q 41.75 50.25 39.25 46.171875 
Q 36.765625 42.09375 30.8125 37.84375 
Q 36.328125 37.109375 39.515625 35.328125 
Q 42.71875 33.546875 44.421875 30.296875 
Q 46.140625 27.046875 46.140625 23.046875 
Q 46.140625 17.234375 42.46875 11.609375 
Q 38.8125 6 32.171875 2.34375 
Q 25.53125 -1.3125 17.78125 -1.3125 
Q 14.359375 -1.3125 11.515625 -0.671875 
Q 8.6875 -0.046875 5.078125 1.515625 
z
" id="Palatino-Roman-51"/>
       </defs>
       <use xlink:href="#Palatino-Roman-51"/>
       <use x="50" xlink:href="#Palatino-Roman-48"/>
       <use x="100" xlink:href="#Palatino-Roman-48"/>
      </g>
     </g>
    </g>
    <g id="xtick_5">
     <g id="line2d_5">
      <g>
       <use style="stroke:#000000;stroke-width:0.8;" x="1139.961125" xlink:href="#md8bb96a701" y="183.6"/>
      </g>
     </g>
     <g id="text_5">
      <!-- 400 -->
      <g transform="translate(1132.461125 197.875)scale(0.1 -0.1)">
       <defs>
        <path d="M 15.671875 0 
L 15.671875 2.875 
Q 23.296875 3.03125 24.609375 3.296875 
Q 25.921875 3.5625 26.46875 4.15625 
Q 27.15625 4.984375 27.4375 7.125 
Q 27.875 10.75 27.875 14.59375 
L 27.875 18.21875 
L 17.1875 18.21875 
Q 8.34375 18.21875 1.421875 17.921875 
L 0.59375 20.5625 
Q 4.34375 27.640625 10.640625 37.890625 
Q 19.828125 52.828125 28.953125 66.65625 
Q 29.5 66.890625 31.59375 67.78125 
Q 35.296875 69.234375 35.84375 69.4375 
L 37.0625 68.84375 
Q 36.71875 62.984375 36.625 54.390625 
Q 36.375 36.28125 36.375 34.515625 
L 36.375 24.421875 
Q 43.015625 24.46875 47.265625 24.75 
Q 47.125 22.3125 47.125 21.53125 
L 47.265625 17.921875 
Q 42.28125 18.21875 38.875 18.21875 
L 36.375 18.21875 
L 36.375 14.9375 
Q 36.375 6.734375 37.109375 4.9375 
Q 37.40625 4.203125 38.28125 3.765625 
Q 40.140625 2.9375 47.265625 2.875 
L 47.265625 0 
Q 36.71875 0.390625 31.0625 0.390625 
Q 24.953125 0.390625 15.671875 0 
z
M 7.03125 24.421875 
L 27.875 24.421875 
L 28.328125 59.125 
Q 23 51.46875 16.28125 40.375 
Q 9.578125 29.296875 7.03125 24.421875 
z
" id="Palatino-Roman-52"/>
       </defs>
       <use xlink:href="#Palatino-Roman-52"/>
       <use x="50" xlink:href="#Palatino-Roman-48"/>
       <use x="100" xlink:href="#Palatino-Roman-48"/>
      </g>
     </g>
    </g>
    <g id="xtick_6">
     <g id="line2d_6">
      <g>
       <use style="stroke:#000000;stroke-width:0.8;" x="1324.142054" xlink:href="#md8bb96a701" y="183.6"/>
      </g>
     </g>
     <g id="text_6">
      <!-- 500 -->
      <g transform="translate(1316.642054 197.875)scale(0.1 -0.1)">
       <defs>
        <path d="M 6.453125 1.078125 
Q 5.328125 4.390625 4.640625 6.15625 
L 1.421875 14.109375 
L 3.8125 15.53125 
Q 8.203125 7.515625 9.21875 6.5625 
Q 10.25 5.609375 13.8125 4.34375 
Q 17.390625 3.078125 21.09375 3.078125 
Q 25.984375 3.078125 29.65625 5.125 
Q 33.34375 7.171875 35.375 11.25 
Q 37.40625 15.328125 37.40625 21.09375 
Q 37.40625 29.59375 32.78125 33.6875 
Q 28.171875 37.796875 21.875 37.796875 
Q 18.171875 37.796875 15.140625 36.375 
Q 12.84375 35.25 9.671875 31.78125 
L 7.671875 32.375 
L 8.25 44.4375 
Q 8.34375 47.171875 8.34375 48.875 
L 8.34375 57.5625 
Q 8.34375 61.46875 8.109375 65.375 
Q 8.015625 66.890625 7.953125 67.828125 
L 8.59375 68.3125 
Q 16.546875 67.71875 25.296875 67.71875 
Q 32.71875 67.71875 43.0625 68.3125 
L 43.3125 67.828125 
Q 42.96875 65.328125 42.96875 63.328125 
Q 42.96875 62.359375 43.0625 59.96875 
L 42.578125 59.671875 
Q 35.796875 60.109375 22.265625 60.109375 
Q 17.28125 60.109375 12.84375 59.96875 
Q 12.109375 53.21875 11.859375 39.65625 
Q 15.765625 42.484375 18.890625 43.578125 
Q 22.015625 44.671875 25.828125 44.671875 
Q 31.5 44.671875 36.203125 42.25 
Q 40.921875 39.84375 43.453125 35.296875 
Q 46 30.765625 46 25.34375 
Q 46 16.890625 40.234375 9.625 
Q 31.546875 -1.421875 16.890625 -1.421875 
Q 13.671875 -1.421875 11.390625 -0.859375 
Q 9.125 -0.296875 6.453125 1.078125 
z
" id="Palatino-Roman-53"/>
       </defs>
       <use xlink:href="#Palatino-Roman-53"/>
       <use x="50" xlink:href="#Palatino-Roman-48"/>
       <use x="100" xlink:href="#Palatino-Roman-48"/>
      </g>
     </g>
    </g>
    <g id="xtick_7">
     <g id="line2d_7">
      <g>
       <use style="stroke:#000000;stroke-width:0.8;" x="1508.322983" xlink:href="#md8bb96a701" y="183.6"/>
      </g>
     </g>
     <g id="text_7">
      <!-- 600 -->
      <g transform="translate(1500.822983 197.875)scale(0.1 -0.1)">
       <defs>
        <path d="M 42.1875 67.921875 
L 42.1875 67.328125 
Q 36.765625 66.109375 30.859375 62.5 
Q 24.953125 58.890625 21.1875 54.265625 
Q 17.4375 49.65625 15.59375 44.796875 
Q 13.765625 39.9375 13.234375 33.640625 
Q 16.0625 35.640625 17.4375 36.671875 
Q 20.953125 39.40625 21.953125 39.9375 
Q 22.953125 40.484375 24.6875 40.890625 
Q 26.421875 41.3125 28.859375 41.3125 
Q 37.359375 41.3125 41.984375 36.46875 
Q 46.625 31.640625 46.625 22.46875 
Q 46.625 16.21875 44.34375 11.578125 
Q 42 6.84375 39.234375 4.390625 
Q 36.46875 1.953125 32.875 0.265625 
Q 29.296875 -1.421875 24.078125 -1.421875 
Q 15.140625 -1.421875 9.28125 5.34375 
Q 3.421875 12.109375 3.421875 25.046875 
Q 3.421875 33.9375 6.171875 41.453125 
Q 8.9375 48.96875 13.71875 54.390625 
Q 18.5 59.8125 25.109375 63.890625 
Q 31.734375 67.96875 38.625 69.625 
z
M 12.3125 21.34375 
Q 12.3125 17.484375 13.1875 13.671875 
Q 13.71875 11.421875 14.671875 9.265625 
Q 15.625 7.125 17.15625 5.421875 
Q 18.703125 3.71875 20.828125 2.78125 
Q 22.953125 1.859375 25.4375 1.859375 
Q 28.8125 1.859375 31.71875 3.6875 
Q 34.625 5.515625 36.40625 9.640625 
Q 38.1875 13.765625 38.1875 19.09375 
Q 38.1875 24.21875 36.453125 28.046875 
Q 34.71875 31.890625 31.65625 33.6875 
Q 28.609375 35.5 25.203125 35.5 
Q 20.90625 35.5 16.796875 32.625 
Q 13.875 30.5625 13.09375 28.296875 
Q 12.3125 26.03125 12.3125 21.34375 
z
" id="Palatino-Roman-54"/>
       </defs>
       <use xlink:href="#Palatino-Roman-54"/>
       <use x="50" xlink:href="#Palatino-Roman-48"/>
       <use x="100" xlink:href="#Palatino-Roman-48"/>
      </g>
     </g>
    </g>
    <g id="xtick_8">
     <g id="line2d_8">
      <g>
       <use style="stroke:#000000;stroke-width:0.8;" x="1692.503912" xlink:href="#md8bb96a701" y="183.6"/>
      </g>
     </g>
     <g id="text_8">
      <!-- 700 -->
      <g transform="translate(1685.003912 197.875)scale(0.1 -0.1)">
       <defs>
        <path d="M 6.59375 0 
L 5.5625 1.03125 
Q 7.28125 3.5625 15.234375 16.109375 
Q 17.828125 20.265625 28.125 37.015625 
Q 32.328125 43.84375 39.453125 56.34375 
Q 40.09375 57.421875 41.21875 59.578125 
L 40.71875 60.0625 
L 25.59375 60.0625 
Q 21.046875 60.0625 16.15625 59.890625 
Q 11.28125 59.71875 10.203125 59.28125 
Q 9.578125 59.03125 9.28125 58.640625 
L 8.890625 58.0625 
L 7.46875 47.40625 
L 4.59375 47.40625 
L 4.828125 60.25 
Q 4.828125 63.421875 4.59375 68.265625 
L 5.5625 68.75 
Q 9.46875 68.40625 16.265625 68.109375 
Q 25.046875 67.78125 27.78125 67.78125 
Q 33.890625 67.78125 49.515625 68.453125 
L 49.515625 65.53125 
L 42.484375 53.078125 
Q 40.234375 49.03125 31.640625 33.15625 
Q 25.640625 22.015625 21.140625 12.453125 
Q 17.71875 5.21875 15.765625 0 
Q 12.984375 0.25 11.078125 0.25 
Q 9.03125 0.25 6.59375 0 
z
" id="Palatino-Roman-55"/>
       </defs>
       <use xlink:href="#Palatino-Roman-55"/>
       <use x="50" xlink:href="#Palatino-Roman-48"/>
       <use x="100" xlink:href="#Palatino-Roman-48"/>
      </g>
     </g>
    </g>
    <g id="text_9">
     <!-- Base position -->
     <g transform="translate(966.944531 211.904687)scale(0.1 -0.1)">
      <defs>
       <path d="M 5.375 0 
L 5.375 2.296875 
Q 8.40625 3.8125 8.734375 4.171875 
Q 9.078125 4.546875 9.28125 5.46875 
Q 9.578125 6.9375 9.796875 11.6875 
Q 10.015625 16.453125 10.015625 18.953125 
L 10.015625 48.390625 
Q 10.015625 53.171875 9.71875 59.625 
Q 9.515625 63.671875 9.03125 64.65625 
Q 8.6875 65.28125 8.015625 65.578125 
Q 6.390625 66.265625 1.3125 66.3125 
L 1.3125 69.390625 
Q 2.9375 69.28125 5.375 69.28125 
L 15.53125 69.046875 
L 33.5 69.484375 
Q 40.625 69.484375 44.484375 68.015625 
Q 48.34375 66.546875 50.515625 63.25 
Q 52.6875 59.96875 52.6875 55.90625 
Q 52.6875 52.6875 51.390625 49.84375 
Q 50.09375 47.015625 47.921875 44.9375 
Q 45.75 42.875 43.09375 41.578125 
Q 40.4375 40.28125 36.140625 39.203125 
Q 41.84375 38.671875 45.359375 37.625 
Q 48.875 36.578125 51.234375 34.5 
Q 53.609375 32.421875 54.828125 29.4375 
Q 56.0625 26.46875 56.0625 22.796875 
Q 56.0625 15.578125 51.6875 10.078125 
Q 47.3125 4.59375 40.4375 1.953125 
Q 35.296875 0 28.265625 0 
L 14.109375 0.390625 
Q 11.8125 0.390625 5.375 0 
z
M 19.28125 40.578125 
Q 22.078125 40.4375 24.171875 40.4375 
Q 30.21875 40.4375 33.515625 41.359375 
Q 36.8125 42.28125 38.625 43.796875 
Q 40.4375 45.3125 41.625 47.890625 
Q 42.828125 50.484375 42.828125 53.953125 
Q 42.828125 60.0625 38.9375 62.765625 
Q 35.0625 65.484375 27.59375 65.484375 
Q 23.4375 65.484375 19.734375 64.75 
Q 19.28125 60.6875 19.28125 52.203125 
z
M 19.4375 5.03125 
Q 23.09375 4.15625 27.15625 4.15625 
Q 33.59375 4.15625 37.546875 6.125 
Q 41.5 8.109375 43.625 12.109375 
Q 45.75 16.109375 45.75 21.296875 
Q 45.75 26.421875 43.75 29.90625 
Q 41.75 33.40625 37.765625 35.078125 
Q 33.796875 36.765625 24.65625 36.765625 
Q 22.5625 36.765625 19.28125 36.578125 
L 19.28125 18.0625 
Q 19.28125 15.375 19.4375 5.03125 
z
" id="Palatino-Roman-66"/>
       <path d="M 10.59375 33.453125 
L 8.015625 34.125 
Q 8.0625 35.25 8.0625 37.203125 
Q 8.0625 39.265625 8.015625 40.484375 
Q 14.203125 44.53125 18.171875 45.953125 
Q 21.1875 46.96875 24.953125 46.96875 
Q 30.515625 46.96875 34.328125 44.875 
Q 38.140625 42.78125 39.984375 38.875 
Q 41.265625 36.140625 41.265625 31.390625 
L 41.0625 22.46875 
L 41.0625 7.90625 
Q 41.0625 5.5625 41.453125 4.546875 
Q 41.75 3.8125 42.390625 3.46875 
Q 42.875 3.171875 44.4375 3.078125 
L 47.609375 2.78125 
L 47.609375 0 
Q 43.609375 0.34375 40.578125 0.34375 
Q 37.640625 0.34375 32.765625 0 
L 33.015625 8.59375 
Q 23.046875 1.078125 21.1875 0.125 
Q 19.34375 -0.828125 16.5 -0.828125 
Q 10.59375 -0.828125 7.296875 2.3125 
Q 4 5.46875 4 10.6875 
Q 4 14.0625 5.140625 16.84375 
Q 6.296875 19.625 7.90625 21.265625 
Q 9.515625 22.90625 11.1875 23.6875 
Q 14.015625 25 20.390625 26.515625 
Q 26.765625 28.03125 33.015625 28.765625 
Q 33.0625 33.40625 31.890625 35.984375 
Q 30.71875 38.578125 27.921875 40.234375 
Q 25.140625 41.890625 21.140625 41.890625 
Q 18.265625 41.890625 16.09375 41.109375 
Q 13.921875 40.328125 13.421875 39.796875 
L 12.546875 38.03125 
Q 11.234375 35.109375 10.59375 33.453125 
z
M 33.015625 25.78125 
Q 26.65625 24.703125 22.15625 23.390625 
Q 17.671875 22.078125 15.828125 20.65625 
Q 14.703125 19.828125 13.875 18.171875 
Q 12.59375 15.71875 12.59375 12.75 
Q 12.59375 9.125 14.59375 7.09375 
Q 16.609375 5.078125 20.171875 5.078125 
Q 23.4375 5.078125 26.625 6.953125 
Q 29.828125 8.84375 33.015625 12.59375 
z
" id="Palatino-Roman-97"/>
       <path d="M 4.546875 14.75 
L 7.46875 14.75 
Q 7.515625 11.921875 7.765625 10.25 
Q 8.015625 8.59375 8.59375 7 
Q 9.1875 5.421875 10.40625 4.3125 
Q 11.625 3.21875 13.0625 2.609375 
Q 14.5 2 15.984375 1.796875 
Q 17.484375 1.609375 20.515625 1.609375 
Q 25.484375 1.609375 28.6875 4.25 
Q 31.890625 6.890625 31.890625 11.46875 
Q 31.890625 13.53125 30.890625 15.09375 
Q 29.890625 16.65625 28 17.53125 
Q 26.125 18.40625 19.921875 19.8125 
Q 13.71875 21.234375 11.921875 21.875 
Q 9.1875 22.90625 7.5625 24.359375 
Q 5.953125 25.828125 5 28.078125 
Q 4.046875 30.328125 4.046875 32.953125 
Q 4.046875 36.8125 6.078125 40.0625 
Q 8.109375 43.3125 12.453125 45.328125 
Q 16.796875 47.359375 21.921875 47.359375 
Q 25 47.359375 29.046875 46.5 
Q 33.109375 45.65625 35.640625 44.390625 
Q 35.296875 38.96875 35.15625 33.34375 
L 32.375 33.34375 
Q 32.125 36.921875 31.8125 38.03125 
Q 31.5 39.15625 30.953125 40.03125 
Q 30.421875 40.921875 29.09375 41.921875 
Q 27.78125 42.921875 25.703125 43.703125 
Q 23.640625 44.484375 20.609375 44.484375 
Q 16.3125 44.484375 13.6875 41.9375 
Q 11.078125 39.40625 11.078125 35.984375 
Q 11.078125 34.078125 11.828125 32.703125 
Q 12.59375 31.34375 13.859375 30.484375 
Q 15.140625 29.640625 17.4375 28.953125 
L 25.53125 26.953125 
Q 31.6875 25.390625 34 24.265625 
Q 36.328125 23.140625 37.734375 20.765625 
Q 39.15625 18.40625 39.15625 15.09375 
Q 39.15625 8.5 33.703125 3.59375 
Q 28.265625 -1.3125 19.140625 -1.3125 
Q 14.9375 -1.3125 7.953125 -0.046875 
Q 4.109375 0.6875 3.8125 0.984375 
Q 3.609375 1.125 3.609375 1.46875 
Q 3.609375 1.8125 3.71875 2.296875 
Q 4.15625 4.390625 4.296875 6.390625 
Q 4.4375 8.40625 4.546875 14.75 
z
" id="Palatino-Roman-115"/>
       <path d="M 43.171875 7.5625 
L 41.609375 4.046875 
Q 38.234375 1.953125 36.671875 1.265625 
Q 34.375 0.25 31.421875 -0.453125 
Q 28.46875 -1.171875 25.203125 -1.171875 
Q 18.75 -1.171875 13.515625 1.515625 
Q 8.296875 4.203125 5.390625 9.546875 
Q 2.484375 14.890625 2.484375 22.078125 
Q 2.484375 27.6875 4.015625 32.203125 
Q 5.5625 36.71875 7.515625 38.875 
Q 8.9375 40.4375 11.90625 42.453125 
Q 14.890625 44.484375 17.828125 45.65625 
Q 21.6875 47.265625 26.171875 47.265625 
Q 31.640625 47.265625 36.0625 44.765625 
Q 40.484375 42.28125 42.53125 37.984375 
Q 44.578125 33.6875 44.578125 28.265625 
Q 44.578125 26.90625 44.390625 24.953125 
Q 40.875 24.265625 38.09375 24.078125 
Q 32.8125 23.6875 27.546875 23.6875 
L 11.859375 23.6875 
Q 11.96875 16.703125 14.28125 12.375 
Q 16.609375 8.0625 20.671875 6 
Q 24.75 3.953125 29.15625 3.953125 
Q 32.125 3.953125 35.078125 4.90625 
Q 38.03125 5.859375 42.390625 8.40625 
z
M 11.859375 27.546875 
Q 13.234375 27.390625 17.046875 27.25 
Q 24.3125 27 27.046875 27 
Q 33.546875 27 35.59375 27.25 
Q 35.640625 28.421875 35.640625 29.046875 
Q 35.640625 36.765625 32.515625 40.375 
Q 29.390625 44 24.171875 44 
Q 18.65625 44 15.28125 40.03125 
Q 11.921875 36.078125 11.859375 27.546875 
z
" id="Palatino-Roman-101"/>
       <path id="Palatino-Roman-32"/>
       <path d="M 1.765625 40.1875 
L 1.765625 43.015625 
Q 2.640625 43.015625 5.46875 43.421875 
Q 8.296875 43.84375 11.765625 44.84375 
Q 15.234375 45.84375 17 46.78125 
Q 17.53125 47.078125 17.875 47.078125 
Q 18.21875 47.078125 18.4375 46.828125 
Q 18.65625 46.578125 18.65625 46 
Q 18.65625 45.75 18.609375 44.828125 
Q 18.5 43.40625 18.5 42.234375 
L 18.5 37.0625 
Q 26.765625 44.734375 28.8125 45.703125 
Q 31.5 47.015625 36.8125 47.015625 
Q 43.015625 47.015625 47.5 44.203125 
Q 52 41.40625 54.03125 36.9375 
Q 56.0625 32.46875 56.0625 27.390625 
Q 56.0625 24.3125 55.34375 21.578125 
Q 54.640625 18.84375 53.53125 16.421875 
Q 52.4375 14.015625 51.09375 11.984375 
Q 49.75 9.96875 48.578125 8.9375 
Q 47.90625 8.296875 45.046875 6 
Q 42.1875 3.71875 38.9375 2.03125 
Q 35.6875 0.34375 34.421875 -0.046875 
Q 31.640625 -0.921875 28.515625 -0.921875 
Q 26.078125 -0.921875 23.75 -0.328125 
Q 21.4375 0.25 18.5 1.65625 
L 18.5 -6.109375 
Q 18.75 -18.453125 18.796875 -19.734375 
Q 18.84375 -22.125 19.390625 -23.25 
Q 19.578125 -23.78125 19.984375 -24.09375 
Q 20.40625 -24.421875 21.1875 -24.5625 
Q 21.625 -24.65625 27 -24.75 
L 27 -27.546875 
Q 20.90625 -27.296875 10.84375 -27.296875 
Q 5.28125 -27.296875 2.296875 -27.546875 
L 2.296875 -24.75 
L 6.9375 -24.703125 
Q 7.953125 -24.65625 8.515625 -24.34375 
Q 9.078125 -24.03125 9.375 -23.53125 
Q 9.90625 -22.5625 10.0625 -20.0625 
Q 10.109375 -19.4375 10.359375 -6.109375 
L 10.359375 11.234375 
Q 10.359375 19.671875 10.15625 28.5625 
Q 9.96875 37.453125 9.734375 38.25 
Q 9.515625 39.0625 9.03125 39.46875 
Q 8.546875 39.890625 7.765625 40.046875 
z
M 18.5 10.0625 
Q 21.09375 7.421875 24.40625 5.90625 
Q 27.734375 4.390625 31.390625 4.390625 
Q 35.84375 4.390625 39.46875 6.609375 
Q 43.109375 8.84375 45.234375 13.53125 
Q 47.359375 18.21875 47.359375 23.734375 
Q 47.359375 29.046875 45.328125 32.984375 
Q 43.3125 36.921875 39.59375 38.890625 
Q 35.890625 40.875 32.125 40.875 
Q 29.34375 40.875 26.625 39.765625 
Q 23.921875 38.671875 21.71875 36.5625 
Q 19.53125 34.46875 18.796875 32.5625 
Q 18.5 31.640625 18.5 29 
z
" id="Palatino-Roman-112"/>
       <path d="M 3.328125 22.46875 
Q 3.328125 33.40625 10.28125 40.3125 
Q 17.234375 47.21875 28.125 47.21875 
Q 38.375 47.21875 44.8125 40.765625 
Q 51.265625 34.328125 51.265625 24.125 
Q 51.265625 17 47.9375 11.078125 
Q 44.625 5.171875 38.5625 1.828125 
Q 32.515625 -1.515625 25.25 -1.515625 
Q 19.578125 -1.515625 15.640625 0.390625 
Q 11.71875 2.296875 9.28125 5.171875 
Q 6.84375 8.0625 5.5625 11.078125 
Q 3.328125 16.40625 3.328125 22.46875 
z
M 12.546875 26.078125 
Q 12.546875 20.0625 14.546875 13.859375 
Q 16.546875 7.671875 20.328125 4.8125 
Q 24.125 1.953125 28.5625 1.953125 
Q 34.234375 1.953125 38.03125 6.4375 
Q 41.84375 10.9375 41.84375 20.265625 
Q 41.84375 28.03125 39.578125 33.671875 
Q 37.3125 39.3125 33.796875 41.625 
Q 30.28125 43.953125 26.03125 43.953125 
Q 20.015625 43.953125 16.28125 39.59375 
Q 12.546875 35.25 12.546875 26.078125 
z
" id="Palatino-Roman-111"/>
       <path d="M 14.109375 68.75 
Q 16.40625 68.75 17.984375 67.140625 
Q 19.578125 65.53125 19.578125 63.234375 
Q 19.578125 60.984375 17.96875 59.375 
Q 16.359375 57.765625 14.109375 57.765625 
Q 11.8125 57.765625 10.203125 59.375 
Q 8.59375 60.984375 8.59375 63.234375 
Q 8.59375 65.53125 10.203125 67.140625 
Q 11.8125 68.75 14.109375 68.75 
z
M 2.203125 40.1875 
L 2.203125 42.96875 
Q 11.671875 44.046875 18.109375 47.078125 
L 19.1875 46.296875 
Q 18.796875 35.890625 18.796875 30.375 
L 18.796875 21.484375 
Q 19.046875 8.796875 19.09375 7.765625 
Q 19.140625 5.328125 19.625 4.203125 
Q 19.875 3.765625 20.265625 3.4375 
Q 20.65625 3.125 21.4375 2.9375 
Q 21.734375 2.875 26.859375 2.78125 
L 26.859375 0 
Q 19.4375 0.34375 14.984375 0.34375 
Q 11.078125 0.34375 2.203125 0 
L 2.203125 2.78125 
L 6.84375 2.828125 
Q 7.859375 2.875 8.421875 3.1875 
Q 8.984375 3.515625 9.28125 4 
Q 9.8125 4.984375 9.96875 7.46875 
Q 9.96875 8.109375 10.25 21.484375 
L 10.25 30.078125 
Q 10.25 37.359375 9.765625 38.71875 
Q 9.46875 39.453125 8.703125 39.8125 
Q 7.953125 40.1875 2.203125 40.1875 
z
" id="Palatino-Roman-105"/>
       <path d="M 2.25 38.28125 
L 2.25 40.328125 
Q 7.125 42.1875 10.015625 43.65625 
Q 10.015625 55.28125 9.71875 58.5 
Q 14.796875 60.25 17.96875 62.25 
L 19.140625 61.28125 
Q 18.609375 57.234375 17.96875 43.40625 
Q 21.875 43.359375 22.65625 43.359375 
Q 23.09375 43.359375 27.6875 43.453125 
Q 30.21875 43.5 31.5 43.65625 
L 31.84375 43.3125 
L 30.8125 38.765625 
Q 27.734375 38.8125 25.140625 38.8125 
Q 22.5625 38.8125 17.96875 38.765625 
L 17.671875 18.890625 
Q 17.53125 11.625 17.765625 10.203125 
Q 18.015625 8.796875 18.703125 7.734375 
Q 19.390625 6.6875 20.484375 6.046875 
Q 21.578125 5.421875 24.21875 5.078125 
Q 26.21875 5.078125 27.46875 5.25 
Q 28.71875 5.421875 30.609375 6.109375 
L 31.203125 4.203125 
Q 28.90625 2.390625 26.765625 0.4375 
Q 24.90625 -0.25 23.296875 -0.46875 
Q 21.6875 -0.6875 19.578125 -0.6875 
Q 17 -0.6875 15.453125 -0.09375 
Q 13.921875 0.484375 12.640625 1.53125 
Q 11.375 2.59375 10.546875 4.203125 
Q 9.71875 5.8125 9.46875 9.28125 
Q 9.515625 12.59375 9.671875 16.546875 
Q 9.71875 17.328125 9.71875 18.265625 
L 9.71875 38.53125 
L 7.71875 38.53125 
Q 5.28125 38.53125 2.25 38.28125 
z
" id="Palatino-Roman-116"/>
       <path d="M 1.375 0 
L 1.375 2.78125 
L 6 2.828125 
Q 7.03125 2.875 7.59375 3.1875 
Q 8.15625 3.515625 8.453125 4 
Q 8.984375 4.984375 9.125 7.46875 
Q 9.125 8.109375 9.421875 21.484375 
L 9.421875 27.296875 
Q 9.421875 31.203125 9.28125 35.6875 
Q 9.125 38.578125 8.8125 39.109375 
Q 8.5 39.65625 7.71875 39.921875 
Q 6.9375 40.1875 1.375 40.140625 
L 1.375 42.921875 
Q 11.234375 44.28125 15.765625 46.484375 
Q 16.75 46.96875 17.09375 46.96875 
Q 17.4375 46.96875 17.625 46.71875 
Q 17.828125 46.484375 17.828125 46 
Q 17.828125 45.65625 17.78125 45.21875 
Q 17.625 43.453125 17.484375 37.796875 
L 26.5625 45.5625 
Q 30.5625 47.015625 34.125 47.015625 
Q 38.09375 47.015625 41.625 45.40625 
Q 45.171875 43.796875 46.953125 41.359375 
Q 48.734375 38.921875 49.3125 35.203125 
Q 49.65625 33.015625 49.65625 22.953125 
L 49.65625 14.3125 
Q 49.65625 7.953125 50 5.671875 
Q 50.25 4.203125 50.75 3.640625 
Q 51.265625 3.078125 52.34375 2.9375 
L 57.5625 2.78125 
L 57.5625 0 
Q 52.78125 0.34375 49.609375 0.34375 
Q 46.875 0.34375 40.53125 0 
Q 41.21875 12.0625 41.21875 15.234375 
L 41.21875 23.4375 
Q 41.21875 31.109375 40.625 33.5 
Q 39.796875 36.765625 36.859375 38.765625 
Q 33.9375 40.765625 29.78125 40.765625 
Q 26.125 40.765625 23.09375 39.03125 
Q 20.0625 37.3125 18.765625 35.03125 
Q 17.484375 32.765625 17.484375 27.390625 
L 17.484375 21.484375 
Q 17.78125 8.796875 17.78125 7.765625 
Q 17.875 5.328125 18.359375 4.203125 
Q 18.5625 3.765625 18.953125 3.4375 
Q 19.34375 3.125 20.171875 2.9375 
Q 20.453125 2.875 25.53125 2.78125 
L 25.53125 0 
Q 19.578125 0.34375 14.75 0.34375 
Q 10.640625 0.34375 1.375 0 
z
" id="Palatino-Roman-110"/>
      </defs>
      <use xlink:href="#Palatino-Roman-66"/>
      <use x="61.083984" xlink:href="#Palatino-Roman-97"/>
      <use x="111.083984" xlink:href="#Palatino-Roman-115"/>
      <use x="153.466797" xlink:href="#Palatino-Roman-101"/>
      <use x="201.367188" xlink:href="#Palatino-Roman-32"/>
      <use x="226.367188" xlink:href="#Palatino-Roman-112"/>
      <use x="286.474609" xlink:href="#Palatino-Roman-111"/>
      <use x="341.064453" xlink:href="#Palatino-Roman-115"/>
      <use x="383.447266" xlink:href="#Palatino-Roman-105"/>
      <use x="412.548828" xlink:href="#Palatino-Roman-116"/>
      <use x="445.166016" xlink:href="#Palatino-Roman-105"/>
      <use x="474.267578" xlink:href="#Palatino-Roman-111"/>
      <use x="528.857422" xlink:href="#Palatino-Roman-110"/>
     </g>
    </g>
   </g>
   <g id="matplotlib.axis_2">
    <g id="ytick_1">
     <g id="line2d_9">
      <defs>
       <path d="M 0 0 
L -3.5 0 
" id="m8344032876" style="stroke:#000000;stroke-width:0.8;"/>
      </defs>
      <g>
       <use style="stroke:#000000;stroke-width:0.8;" x="243" xlink:href="#m8344032876" y="173.34706"/>
      </g>
     </g>
     <g id="text_10">
      <!-- −7500 -->
      <g transform="translate(209.940625 176.98456)scale(0.1 -0.1)">
       <defs>
        <path d="M 3.65625 32.234375 
L 57.078125 32.234375 
L 57.03125 26.8125 
L 3.609375 26.8125 
z
" id="Palatino-Roman-8722"/>
       </defs>
       <use xlink:href="#Palatino-Roman-8722"/>
       <use x="60.595703" xlink:href="#Palatino-Roman-55"/>
       <use x="110.595703" xlink:href="#Palatino-Roman-53"/>
       <use x="160.595703" xlink:href="#Palatino-Roman-48"/>
       <use x="210.595703" xlink:href="#Palatino-Roman-48"/>
      </g>
     </g>
    </g>
    <g id="ytick_2">
     <g id="line2d_10">
      <g>
       <use style="stroke:#000000;stroke-width:0.8;" x="243" xlink:href="#m8344032876" y="148.262873"/>
      </g>
     </g>
     <g id="text_11">
      <!-- −5000 -->
      <g transform="translate(209.940625 151.900373)scale(0.1 -0.1)">
       <use xlink:href="#Palatino-Roman-8722"/>
       <use x="60.595703" xlink:href="#Palatino-Roman-53"/>
       <use x="110.595703" xlink:href="#Palatino-Roman-48"/>
       <use x="160.595703" xlink:href="#Palatino-Roman-48"/>
       <use x="210.595703" xlink:href="#Palatino-Roman-48"/>
      </g>
     </g>
    </g>
    <g id="ytick_3">
     <g id="line2d_11">
      <g>
       <use style="stroke:#000000;stroke-width:0.8;" x="243" xlink:href="#m8344032876" y="123.178686"/>
      </g>
     </g>
     <g id="text_12">
      <!-- −2500 -->
      <g transform="translate(209.940625 126.816186)scale(0.1 -0.1)">
       <use xlink:href="#Palatino-Roman-8722"/>
       <use x="60.595703" xlink:href="#Palatino-Roman-50"/>
       <use x="110.595703" xlink:href="#Palatino-Roman-53"/>
       <use x="160.595703" xlink:href="#Palatino-Roman-48"/>
       <use x="210.595703" xlink:href="#Palatino-Roman-48"/>
      </g>
     </g>
    </g>
    <g id="ytick_4">
     <g id="line2d_12">
      <g>
       <use style="stroke:#000000;stroke-width:0.8;" x="243" xlink:href="#m8344032876" y="98.094498"/>
      </g>
     </g>
     <g id="text_13">
      <!-- 0 -->
      <g transform="translate(231 101.731998)scale(0.1 -0.1)">
       <use xlink:href="#Palatino-Roman-48"/>
      </g>
     </g>
    </g>
    <g id="ytick_5">
     <g id="line2d_13">
      <g>
       <use style="stroke:#000000;stroke-width:0.8;" x="243" xlink:href="#m8344032876" y="73.010311"/>
      </g>
     </g>
     <g id="text_14">
      <!-- 2500 -->
      <g transform="translate(216 76.647811)scale(0.1 -0.1)">
       <use xlink:href="#Palatino-Roman-50"/>
       <use x="50" xlink:href="#Palatino-Roman-53"/>
       <use x="100" xlink:href="#Palatino-Roman-48"/>
       <use x="150" xlink:href="#Palatino-Roman-48"/>
      </g>
     </g>
    </g>
    <g id="ytick_6">
     <g id="line2d_14">
      <g>
       <use style="stroke:#000000;stroke-width:0.8;" x="243" xlink:href="#m8344032876" y="47.926124"/>
      </g>
     </g>
     <g id="text_15">
      <!-- 5000 -->
      <g transform="translate(216 51.563624)scale(0.1 -0.1)">
       <use xlink:href="#Palatino-Roman-53"/>
       <use x="50" xlink:href="#Palatino-Roman-48"/>
       <use x="100" xlink:href="#Palatino-Roman-48"/>
       <use x="150" xlink:href="#Palatino-Roman-48"/>
      </g>
     </g>
    </g>
    <g id="text_16">
     <!-- Feature importance -->
     <g transform="translate(203.185938 147.850625)rotate(-90)scale(0.1 -0.1)">
      <defs>
       <path d="M 2.15625 66.265625 
L 2.15625 69.390625 
Q 9.578125 69.09375 14.75 69.09375 
Q 18.40625 69.09375 27.875 69.28125 
Q 37.359375 69.484375 40.671875 69.484375 
Q 44.234375 69.484375 47.1875 69.40625 
Q 50.140625 69.34375 52.546875 69.140625 
Q 51.3125 64.984375 50.984375 54.34375 
L 47.90625 54.34375 
Q 47.46875 60.25 46.6875 63.421875 
Q 44.140625 64.3125 40.40625 64.71875 
Q 36.671875 65.140625 31.734375 65.140625 
Q 26.8125 65.140625 21.53125 64.546875 
Q 21.234375 61.921875 21.140625 59.625 
Q 21.09375 58.296875 20.90625 48.4375 
L 20.90625 37.59375 
Q 26.375 37.453125 30.5625 37.453125 
Q 36.765625 37.453125 40.484375 38.09375 
Q 41.890625 38.328125 42.296875 38.890625 
Q 42.71875 39.453125 43.21875 43.015625 
L 43.609375 46.046875 
L 46.6875 46.046875 
L 46.34375 34.90625 
L 46.6875 22.953125 
L 43.609375 22.953125 
L 43.265625 26.078125 
Q 42.71875 31.390625 42.484375 31.78125 
Q 42.09375 32.46875 40.625 32.8125 
Q 37.84375 33.453125 28.03125 33.453125 
Q 24.5625 33.453125 20.90625 33.25 
L 20.90625 23.390625 
Q 20.90625 16.75 21.09375 10.453125 
Q 21.1875 5.8125 21.75 4.921875 
Q 22.3125 4.046875 23.578125 3.625 
Q 24.859375 3.21875 30.609375 3.125 
L 30.609375 0 
Q 24.421875 0.390625 18.265625 0.390625 
Q 12.75 0.390625 2.15625 0 
L 2.15625 3.125 
Q 7.90625 3.21875 9.171875 3.625 
Q 10.453125 4.046875 10.9375 4.78125 
Q 11.53125 5.765625 11.671875 9.515625 
Q 11.71875 10.546875 11.859375 23.390625 
L 11.859375 46 
Q 11.859375 52.640625 11.71875 58.984375 
Q 11.578125 63.625 11.015625 64.46875 
Q 10.453125 65.328125 9.203125 65.734375 
Q 7.953125 66.15625 2.15625 66.265625 
z
" id="Palatino-Roman-70"/>
       <path d="M 57.765625 2.78125 
L 57.765625 0 
Q 51.375 0.34375 48.09375 0.34375 
Q 44.484375 0.34375 40.765625 0 
Q 41.0625 3.953125 41.21875 8.890625 
Q 38.28125 6.546875 34.234375 2.484375 
Q 33.296875 1.5625 32.421875 1.125 
Q 30.328125 -0.046875 28.21875 -0.5625 
Q 26.125 -1.078125 23.1875 -1.078125 
Q 19.234375 -1.078125 16.578125 0 
Q 13.921875 1.078125 12.015625 3.265625 
Q 10.59375 4.890625 9.828125 7.453125 
Q 9.078125 10.015625 9.078125 13.625 
Q 9.078125 15.328125 9.203125 16.84375 
Q 9.328125 18.359375 9.328125 19.828125 
L 9.328125 28.171875 
Q 9.328125 29.4375 9.1875 34.578125 
Q 9.078125 37.796875 8.734375 38.765625 
Q 8.546875 39.265625 8.109375 39.546875 
Q 7.375 40.046875 5.515625 40.046875 
Q 2.828125 40.046875 1.265625 40.09375 
L 1.265625 42.875 
Q 11.765625 44.046875 16.5 46.625 
Q 17.28125 47.078125 17.71875 47.078125 
Q 18.0625 47.078125 18.28125 46.828125 
Q 18.5 46.578125 18.5 46.09375 
Q 18.5 45.703125 18.453125 45.125 
Q 18.265625 43.5625 18.109375 39.109375 
Q 17.828125 30.953125 17.828125 28.171875 
L 17.828125 18.65625 
Q 17.828125 12.703125 18.625 10.28125 
Q 19.4375 7.859375 21.75 6.421875 
Q 24.078125 4.984375 27.484375 4.984375 
Q 29.828125 4.984375 32.140625 5.78125 
Q 34.46875 6.59375 36.328125 8.109375 
Q 37.703125 9.234375 39.109375 11.140625 
Q 40.1875 12.546875 40.53125 13.296875 
Q 40.875 14.0625 40.96875 15.53125 
Q 41.21875 19.828125 41.21875 24.078125 
L 41.21875 28.171875 
Q 41.21875 29.4375 41.0625 34.578125 
Q 40.96875 37.796875 40.625 38.765625 
Q 40.4375 39.265625 39.984375 39.546875 
Q 39.265625 40.046875 37.40625 40.046875 
Q 34.71875 40.046875 33.15625 40.09375 
L 33.15625 42.875 
Q 43.65625 44.046875 48.390625 46.625 
Q 49.171875 47.078125 49.609375 47.078125 
Q 49.953125 47.078125 50.171875 46.828125 
Q 50.390625 46.578125 50.390625 46.09375 
Q 50.390625 45.703125 50.34375 45.125 
Q 50.203125 43.5625 50 38.921875 
Q 49.703125 30.953125 49.703125 28.171875 
L 49.703125 21.484375 
L 49.8125 14.703125 
Q 49.953125 8.796875 50 7.765625 
Q 50.046875 5.328125 50.53125 4.203125 
Q 50.78125 3.765625 51.171875 3.4375 
Q 51.5625 3.125 52.34375 2.9375 
Q 52.640625 2.875 57.765625 2.78125 
z
" id="Palatino-Roman-117"/>
       <path d="M 2.296875 0 
L 2.296875 2.78125 
Q 7.8125 2.875 8.25 2.984375 
Q 9.078125 3.125 9.484375 3.4375 
Q 9.90625 3.765625 10.15625 4.34375 
Q 10.640625 5.46875 10.75 7.859375 
Q 11.03125 20.90625 11.03125 21.484375 
L 11.03125 27.296875 
Q 11.03125 31.203125 10.890625 35.6875 
Q 10.796875 38.578125 10.46875 39.109375 
Q 10.15625 39.65625 9.34375 39.921875 
Q 8.546875 40.1875 2.984375 40.140625 
L 2.984375 42.921875 
Q 12.84375 44.28125 17.390625 46.484375 
Q 18.359375 46.96875 18.703125 46.96875 
Q 19.046875 46.96875 19.234375 46.71875 
Q 19.4375 46.484375 19.4375 46 
Q 19.4375 45.65625 19.390625 45.21875 
Q 19.140625 42.234375 19.09375 35.984375 
Q 21.296875 38.53125 23.140625 41.015625 
Q 25 43.5 25.828125 44.234375 
Q 27.296875 45.515625 29.203125 46.265625 
Q 31.109375 47.015625 33.15625 47.015625 
Q 35.203125 47.015625 37.203125 46.140625 
L 37.5 45.453125 
Q 36.765625 38.96875 36.671875 34.03125 
L 34.46875 34.03125 
Q 33.34375 36.375 31.859375 37.453125 
Q 30.375 38.53125 28.125 38.53125 
Q 24.359375 38.53125 21.71875 35.421875 
Q 19.09375 32.328125 19.09375 26.125 
L 19.09375 21.09375 
Q 19.09375 17.875 19.34375 9.328125 
Q 19.390625 6.296875 19.578125 5.46875 
Q 19.78125 4.640625 20.09375 4.265625 
Q 20.40625 3.90625 21.140625 3.65625 
Q 22.609375 3.21875 29.046875 2.78125 
L 29.046875 0 
Q 20.453125 0.34375 14.40625 0.34375 
Q 8.15625 0.34375 2.296875 0 
z
" id="Palatino-Roman-114"/>
       <path d="M 2.046875 0 
L 2.046875 2.78125 
L 6.6875 2.828125 
Q 7.71875 2.875 8.28125 3.1875 
Q 8.84375 3.515625 9.125 4 
Q 9.671875 4.984375 9.8125 7.46875 
Q 9.8125 8.109375 10.109375 21.484375 
L 10.109375 27.296875 
Q 10.109375 31.203125 9.96875 35.6875 
Q 9.8125 38.578125 9.5 39.109375 
Q 9.1875 39.65625 8.40625 39.921875 
Q 7.625 40.1875 2.046875 40.140625 
L 2.046875 42.921875 
Q 11.921875 44.28125 16.453125 46.484375 
Q 17.4375 46.96875 17.78125 46.96875 
Q 18.109375 46.96875 18.296875 46.71875 
Q 18.5 46.484375 18.5 46 
Q 18.5 45.65625 18.453125 45.21875 
Q 18.265625 42.875 18.171875 38.234375 
L 24.5625 44.09375 
Q 25.78125 45.171875 26.078125 45.3125 
Q 27.203125 45.953125 29.296875 46.484375 
Q 31.390625 47.015625 33.6875 47.015625 
Q 38.375 47.015625 42.03125 44.71875 
Q 45.703125 42.4375 47.65625 37.9375 
L 53.03125 42.921875 
Q 54.828125 44.578125 55.515625 44.96875 
Q 56.78125 45.703125 59.125 46.328125 
Q 61.46875 46.96875 63.765625 46.96875 
Q 69.34375 46.96875 73.09375 44.015625 
Q 76.859375 41.0625 77.9375 37.3125 
Q 78.609375 34.8125 78.609375 26.5625 
L 78.609375 21.484375 
L 78.765625 14.703125 
Q 78.90625 8.796875 78.90625 7.765625 
Q 79 5.328125 79.5 4.203125 
Q 79.6875 3.765625 80.09375 3.4375 
Q 80.515625 3.125 81.296875 2.9375 
Q 81.59375 2.875 86.671875 2.78125 
L 86.671875 0 
Q 80.515625 0.296875 78.265625 0.296875 
Q 76.125 0.296875 69.625 0 
L 70.0625 13.484375 
L 70.21875 18.75 
L 70.21875 22.953125 
Q 70.21875 31.15625 69.390625 34.15625 
Q 68.5625 37.15625 65.890625 39.015625 
Q 63.234375 40.875 59.71875 40.875 
Q 55.671875 40.875 52.390625 38.53125 
Q 49.953125 36.71875 49.171875 34.28125 
Q 48.390625 31.84375 48.390625 24.75 
L 48.390625 21.484375 
L 48.53125 14.703125 
Q 48.640625 8.796875 48.6875 7.765625 
Q 48.78125 5.328125 49.265625 4.203125 
Q 49.46875 3.765625 49.859375 3.4375 
Q 50.25 3.125 51.03125 2.9375 
Q 51.375 2.875 56.453125 2.78125 
L 56.453125 0 
Q 49.265625 0.390625 44.921875 0.390625 
Q 41.40625 0.390625 32.125 0 
L 32.125 2.78125 
L 36.765625 2.828125 
Q 37.84375 2.875 38.40625 3.1875 
Q 38.96875 3.515625 39.265625 4 
Q 39.796875 4.984375 39.890625 7.46875 
Q 39.9375 8.109375 40.1875 21.484375 
L 40.1875 25.296875 
Q 40.1875 31.59375 39.203125 34.5 
Q 38.234375 37.40625 35.78125 39.140625 
Q 33.34375 40.875 29.9375 40.875 
Q 27 40.875 24.390625 39.625 
Q 21.78125 38.375 20.359375 36.515625 
Q 18.953125 34.671875 18.65625 32.5625 
Q 18.171875 29.203125 18.171875 24.46875 
L 18.171875 21.484375 
Q 18.453125 8.796875 18.453125 7.765625 
Q 18.5625 5.328125 19.046875 4.203125 
Q 19.234375 3.765625 19.625 3.4375 
Q 20.015625 3.125 20.84375 2.9375 
Q 21.140625 2.875 26.21875 2.78125 
L 26.21875 0 
Q 19.484375 0.390625 14.75 0.390625 
Q 10.546875 0.390625 2.046875 0 
z
" id="Palatino-Roman-109"/>
       <path d="M 42.390625 5.609375 
L 40.4375 2.34375 
Q 37.0625 0.53125 33.765625 -0.296875 
Q 30.46875 -1.125 26.3125 -1.125 
Q 16.0625 -1.125 9.984375 5.046875 
Q 3.90625 11.234375 3.90625 22.015625 
Q 3.90625 27.734375 5.53125 31.953125 
Q 7.171875 36.1875 9.578125 38.484375 
Q 11.1875 40.09375 15.703125 42.65625 
Q 20.21875 45.21875 22.015625 45.953125 
Q 25.34375 47.359375 29.984375 47.359375 
Q 34.375 47.359375 37.890625 46.4375 
Q 40.140625 45.84375 42.390625 44.484375 
Q 41.796875 40.71875 41.546875 38.78125 
Q 41.3125 36.859375 40.921875 31.78125 
L 38.140625 31.78125 
Q 37.84375 36.53125 37.546875 37.703125 
Q 37.359375 38.421875 36.671875 39.015625 
Q 34.90625 40.375 32.140625 41.375 
Q 29.390625 42.390625 26.125 42.390625 
Q 22.015625 42.390625 19.015625 40.703125 
Q 16.015625 39.015625 14.359375 35.34375 
Q 12.703125 31.6875 12.703125 26.265625 
Q 12.703125 19.625 15.046875 14.25 
Q 17.390625 8.890625 21.40625 6.421875 
Q 25.4375 3.953125 30.421875 3.953125 
Q 32.90625 3.953125 35.265625 4.5625 
Q 37.640625 5.171875 41.359375 6.890625 
z
" id="Palatino-Roman-99"/>
      </defs>
      <use xlink:href="#Palatino-Roman-70"/>
      <use x="55.615234" xlink:href="#Palatino-Roman-101"/>
      <use x="103.515625" xlink:href="#Palatino-Roman-97"/>
      <use x="153.515625" xlink:href="#Palatino-Roman-116"/>
      <use x="186.132812" xlink:href="#Palatino-Roman-117"/>
      <use x="246.435547" xlink:href="#Palatino-Roman-114"/>
      <use x="284.1875" xlink:href="#Palatino-Roman-101"/>
      <use x="332.087891" xlink:href="#Palatino-Roman-32"/>
      <use x="357.087891" xlink:href="#Palatino-Roman-105"/>
      <use x="386.189453" xlink:href="#Palatino-Roman-109"/>
      <use x="474.470703" xlink:href="#Palatino-Roman-112"/>
      <use x="534.578125" xlink:href="#Palatino-Roman-111"/>
      <use x="589.167969" xlink:href="#Palatino-Roman-114"/>
      <use x="628.669922" xlink:href="#Palatino-Roman-116"/>
      <use x="661.287109" xlink:href="#Palatino-Roman-97"/>
      <use x="711.287109" xlink:href="#Palatino-Roman-110"/>
      <use x="769.490234" xlink:href="#Palatino-Roman-99"/>
      <use x="813.875" xlink:href="#Palatino-Roman-101"/>
     </g>
    </g>
   </g>
   <g id="line2d_15">
    <path clip-path="url(#p498c716877)" d="M 408.762836 98.094498 
L 414.288264 97.086134 
L 419.813692 32.481318 
L 425.33912 54.351398 
L 430.864548 35.735169 
L 436.389976 98.094498 
L 441.915403 38.162335 
L 447.440831 175.826773 
L 452.966259 74.539413 
L 458.491687 98.094498 
L 491.644254 98.094498 
L 497.169682 107.407575 
L 502.69511 98.094498 
L 513.745966 98.094498 
L 519.271394 94.104126 
L 524.796822 97.291423 
L 530.322249 98.094498 
L 563.474817 98.094498 
L 569.000244 103.260446 
L 574.525672 98.094498 
L 580.0511 110.6389 
L 585.576528 98.094498 
L 602.152812 98.094498 
L 607.67824 108.06458 
L 613.203667 98.094498 
L 635.305379 98.094498 
L 640.830807 98.981485 
L 646.356235 100.352767 
L 651.881663 99.472664 
L 657.40709 106.086491 
L 662.932518 102.20972 
L 668.457946 97.862289 
L 673.983374 98.094498 
L 679.508802 99.130867 
L 685.03423 98.094498 
L 690.559658 98.094498 
L 696.085086 93.189757 
L 701.610513 98.094498 
L 745.813936 98.094498 
L 751.339364 100.846043 
L 756.864792 98.094498 
L 773.441076 98.094498 
L 778.966504 100.876846 
L 784.491932 103.120928 
L 790.017359 98.439416 
L 795.542787 98.094498 
L 801.068215 98.094498 
L 806.593643 99.409773 
L 812.119071 98.094498 
L 823.169927 98.094498 
L 828.695355 104.584861 
L 834.220782 98.094498 
L 883.949633 98.094498 
L 889.475061 99.439633 
L 895.000489 101.425227 
L 900.525917 98.094498 
L 961.305623 98.094498 
L 966.831051 94.895261 
L 972.356479 101.677805 
L 977.881907 98.094498 
L 983.407335 98.094498 
L 988.932763 101.899579 
L 994.458191 98.094498 
L 1066.288753 98.094498 
L 1071.814181 95.49088 
L 1077.339609 103.373265 
L 1082.865037 98.094498 
L 1088.390465 98.094498 
L 1093.915892 99.910222 
L 1099.44132 98.094498 
L 1138.119315 98.094498 
L 1143.644743 101.031806 
L 1149.170171 98.094498 
L 1154.695599 98.094498 
L 1160.221027 102.724477 
L 1165.746455 98.094498 
L 1171.271883 96.277791 
L 1176.797311 98.094498 
L 1204.42445 98.094498 
L 1209.949878 106.629363 
L 1215.475306 99.777587 
L 1221.000733 98.094498 
L 1237.577017 98.094498 
L 1243.102445 103.800057 
L 1248.627873 97.537549 
L 1254.153301 98.094498 
L 1265.204156 98.094498 
L 1270.729584 101.00312 
L 1276.255012 98.00564 
L 1287.305868 98.094498 
L 1292.831296 103.162999 
L 1298.356724 98.094498 
L 1320.458435 98.094498 
L 1325.983863 104.632923 
L 1331.509291 98.094498 
L 1375.712714 98.094498 
L 1381.238142 98.496146 
L 1386.76357 98.094498 
L 1408.865281 98.094498 
L 1414.390709 107.590699 
L 1419.916137 96.165223 
L 1425.441565 98.094498 
L 1447.543276 98.094498 
L 1453.068704 96.462501 
L 1458.594132 98.094498 
L 1464.11956 93.182864 
L 1469.644988 98.094498 
L 1491.746699 98.094498 
L 1497.272127 106.399813 
L 1502.797555 106.249829 
L 1508.322983 98.094498 
L 1513.848411 117.26858 
L 1519.373839 98.094498 
L 1535.950122 98.094498 
L 1541.47555 99.775962 
L 1547.000978 98.094498 
L 1558.051834 98.094498 
L 1563.577262 100.578605 
L 1569.102689 98.094498 
L 1574.628117 103.092964 
L 1580.153545 99.844532 
L 1585.678973 98.094498 
L 1591.204401 98.094498 
L 1596.729829 112.599008 
L 1602.255257 98.094498 
L 1607.780685 98.094498 
L 1613.306112 100.543568 
L 1618.83154 98.094498 
L 1624.356968 98.094498 
L 1629.882396 106.585155 
L 1635.407824 98.094498 
L 1651.984108 98.094498 
L 1651.984108 98.094498 
" style="fill:none;stroke:#ff1656;stroke-linecap:square;stroke-width:1.5;"/>
   </g>
   <g id="line2d_16">
    <path clip-path="url(#p498c716877)" d="M 408.762836 98.094498 
L 414.288264 91.553566 
L 419.813692 98.094498 
L 425.33912 91.950137 
L 430.864548 98.094498 
L 436.389976 98.094498 
L 441.915403 98.572242 
L 447.440831 98.094498 
L 469.542543 98.094498 
L 475.067971 92.654762 
L 480.593399 98.094498 
L 491.644254 98.094498 
L 497.169682 95.742043 
L 502.69511 98.094498 
L 513.745966 98.094498 
L 519.271394 93.036583 
L 524.796822 98.094498 
L 569.000244 98.094498 
L 574.525672 90.53876 
L 580.0511 98.094498 
L 618.729095 98.094498 
L 624.254523 92.412739 
L 629.779951 97.405656 
L 635.305379 98.094498 
L 640.830807 97.205053 
L 646.356235 98.094498 
L 679.508802 98.094498 
L 685.03423 97.649635 
L 690.559658 97.414336 
L 696.085086 98.094498 
L 701.610513 92.418749 
L 707.135941 98.094498 
L 729.237653 98.094498 
L 734.763081 102.925883 
L 740.288509 95.647737 
L 745.813936 98.094498 
L 773.441076 98.094498 
L 778.966504 98.96502 
L 784.491932 98.094498 
L 839.74621 98.094498 
L 845.271638 95.038993 
L 850.797066 98.094498 
L 867.37335 98.094498 
L 872.898778 103.478388 
L 878.424205 98.094498 
L 972.356479 98.094498 
L 977.881907 89.685897 
L 983.407335 91.99575 
L 988.932763 96.761294 
L 994.458191 98.094498 
L 1011.034474 98.094498 
L 1016.559902 87.761017 
L 1022.08533 98.094498 
L 1099.44132 98.094498 
L 1104.966748 95.16023 
L 1110.492176 98.094498 
L 1116.017604 98.094498 
L 1121.543032 96.080168 
L 1127.06846 98.094498 
L 1132.593888 98.094498 
L 1138.119315 89.074967 
L 1143.644743 97.898531 
L 1149.170171 98.094498 
L 1198.899022 98.094498 
L 1204.42445 94.952012 
L 1209.949878 98.094498 
L 1259.678729 98.06808 
L 1265.204156 96.80181 
L 1270.729584 98.094498 
L 1287.305868 98.094498 
L 1292.831296 96.456059 
L 1298.356724 98.094498 
L 1320.458435 98.094498 
L 1325.983863 90.350789 
L 1331.509291 98.094498 
L 1337.034719 98.094498 
L 1342.560147 92.906416 
L 1348.085575 98.094498 
L 1375.712714 98.094498 
L 1381.238142 92.683398 
L 1386.76357 98.094498 
L 1408.865281 98.094498 
L 1414.390709 87.407812 
L 1419.916137 98.094498 
L 1442.017848 98.094498 
L 1447.543276 91.222123 
L 1453.068704 98.094498 
L 1497.272127 98.094498 
L 1502.797555 96.177083 
L 1508.322983 98.094498 
L 1558.051834 98.094498 
L 1563.577262 87.921145 
L 1569.102689 98.094498 
L 1607.780685 98.094498 
L 1613.306112 93.003 
L 1618.83154 88.626803 
L 1624.356968 98.094498 
L 1629.882396 87.370958 
L 1635.407824 98.094498 
L 1640.933252 93.915573 
L 1646.45868 84.255612 
L 1651.984108 98.094498 
L 1651.984108 98.094498 
" style="fill:none;stroke:#0194dd;stroke-linecap:square;stroke-width:1.5;"/>
   </g>
   <g id="line2d_17">
    <path clip-path="url(#p498c716877)" d="M 408.762836 98.094498 
L 414.288264 99.66229 
L 419.813692 98.094498 
L 425.33912 125.927712 
L 430.864548 98.094498 
L 436.389976 98.094498 
L 441.915403 96.98669 
L 447.440831 98.094498 
L 469.542543 98.094498 
L 475.067971 102.489188 
L 480.593399 98.094498 
L 491.644254 98.094498 
L 497.169682 113.586232 
L 502.69511 98.094498 
L 508.220538 98.094498 
L 513.745966 105.136151 
L 519.271394 113.870907 
L 524.796822 98.094498 
L 530.322249 98.094498 
L 535.847677 100.586502 
L 541.373105 98.094498 
L 580.0511 98.094498 
L 585.576528 125.746925 
L 591.101956 98.094498 
L 596.627384 99.589175 
L 602.152812 104.853282 
L 607.67824 98.094498 
L 635.305379 98.094498 
L 640.830807 95.215777 
L 646.356235 98.094498 
L 662.932518 98.094498 
L 668.457946 98.518812 
L 673.983374 98.094498 
L 685.03423 98.094498 
L 690.559658 103.631331 
L 696.085086 98.094498 
L 701.610513 107.361259 
L 707.135941 97.078187 
L 712.661369 98.094498 
L 740.288509 98.094498 
L 745.813936 91.967826 
L 751.339364 98.094498 
L 773.441076 98.094498 
L 778.966504 95.935542 
L 784.491932 97.846797 
L 790.017359 98.094498 
L 795.542787 86.864288 
L 801.068215 98.094498 
L 823.169927 98.094498 
L 828.695355 91.524428 
L 834.220782 98.094498 
L 883.949633 98.094498 
L 889.475061 95.689697 
L 895.000489 98.094498 
L 928.153056 98.094498 
L 933.678484 104.966793 
L 939.203912 98.094498 
L 966.831051 98.094498 
L 972.356479 97.810094 
L 977.881907 98.094498 
L 1088.390465 98.094498 
L 1093.915892 92.288241 
L 1099.44132 98.094498 
L 1104.966748 100.035031 
L 1110.492176 98.094498 
L 1143.644743 98.094498 
L 1149.170171 101.741759 
L 1154.695599 98.094498 
L 1209.949878 98.094498 
L 1215.475306 84.439128 
L 1221.000733 98.094498 
L 1254.153301 98.094498 
L 1259.678729 103.276781 
L 1265.204156 98.094498 
L 1270.729584 95.929673 
L 1276.255012 98.094498 
L 1337.034719 98.094498 
L 1342.560147 100.172844 
L 1348.085575 98.094498 
L 1375.712714 98.094498 
L 1381.238142 101.141324 
L 1386.76357 98.094498 
L 1408.865281 98.094498 
L 1414.390709 100.337396 
L 1419.916137 98.094498 
L 1430.966993 98.094498 
L 1436.492421 92.471517 
L 1442.017848 98.094498 
L 1475.170416 98.094498 
L 1480.695844 98.2171 
L 1486.221271 98.094498 
L 1519.373839 98.094498 
L 1524.899267 96.270597 
L 1530.424694 98.094498 
L 1552.526406 98.094498 
L 1558.051834 96.95397 
L 1563.577262 98.094498 
L 1569.102689 93.557762 
L 1574.628117 98.094498 
L 1596.729829 98.094498 
L 1602.255257 102.316829 
L 1607.780685 98.094498 
L 1613.306112 103.603508 
L 1618.83154 98.094498 
L 1629.882396 98.094498 
L 1635.407824 101.859966 
L 1640.933252 106.021984 
L 1646.45868 98.094498 
L 1651.984108 98.094498 
L 1651.984108 98.094498 
" style="fill:none;stroke:#06b658;stroke-linecap:square;stroke-width:1.5;"/>
   </g>
   <g id="line2d_18">
    <path clip-path="url(#p498c716877)" d="M 408.762836 98.094498 
L 414.288264 174.735319 
L 419.813692 163.245106 
L 425.33912 99.486199 
L 430.864548 98.094498 
L 436.389976 104.409212 
L 441.915403 147.908895 
L 447.440831 83.157266 
L 452.966259 98.094498 
L 458.491687 98.094498 
L 464.017115 77.471433 
L 469.542543 98.094498 
L 475.067971 98.094498 
L 480.593399 97.210592 
L 486.118826 98.094498 
L 491.644254 95.208904 
L 497.169682 78.327035 
L 502.69511 98.094498 
L 513.745966 98.094498 
L 519.271394 100.939597 
L 524.796822 98.094498 
L 530.322249 97.37998 
L 535.847677 98.094498 
L 635.305379 98.094498 
L 640.830807 112.941688 
L 646.356235 84.679074 
L 651.881663 98.094498 
L 690.559658 98.094498 
L 696.085086 105.736928 
L 701.610513 98.094498 
L 707.135941 99.094946 
L 712.661369 98.094498 
L 723.712225 98.094498 
L 729.237653 94.983929 
L 734.763081 96.167942 
L 740.288509 98.094498 
L 756.864792 98.094498 
L 762.39022 94.733629 
L 767.915648 98.094498 
L 773.441076 98.094498 
L 778.966504 87.696942 
L 784.491932 98.094498 
L 801.068215 98.094498 
L 806.593643 93.086581 
L 812.119071 98.094498 
L 817.644499 92.440874 
L 823.169927 98.094498 
L 828.695355 98.094498 
L 834.220782 97.907069 
L 839.74621 96.222365 
L 845.271638 98.094498 
L 850.797066 100.31772 
L 856.322494 98.094498 
L 872.898778 98.094498 
L 878.424205 97.495287 
L 883.949633 98.094498 
L 928.153056 98.094498 
L 933.678484 93.611663 
L 939.203912 98.094498 
L 944.72934 98.094498 
L 950.254768 87.934439 
L 955.780196 98.094498 
L 961.305623 98.094498 
L 966.831051 98.824679 
L 972.356479 98.094498 
L 1005.509046 98.094498 
L 1011.034474 96.324668 
L 1016.559902 98.094498 
L 1033.136186 98.094498 
L 1038.661614 97.809542 
L 1044.187042 98.094498 
L 1049.712469 98.094498 
L 1055.237897 89.108158 
L 1060.763325 98.094498 
L 1066.288753 97.859339 
L 1071.814181 98.094498 
L 1082.865037 98.094498 
L 1088.390465 100.049369 
L 1093.915892 98.094498 
L 1104.966748 98.094498 
L 1110.492176 98.811465 
L 1116.017604 96.151879 
L 1121.543032 98.094498 
L 1127.06846 98.094498 
L 1132.593888 95.299698 
L 1138.119315 98.094498 
L 1221.000733 98.094498 
L 1226.526161 94.332362 
L 1232.051589 98.094498 
L 1348.085575 98.094498 
L 1353.611002 101.840089 
L 1359.13643 91.645013 
L 1364.661858 98.094498 
L 1375.712714 98.094498 
L 1381.238142 97.800191 
L 1386.76357 98.094498 
L 1392.288998 96.239723 
L 1397.814425 98.094498 
L 1408.865281 98.094498 
L 1414.390709 95.959884 
L 1419.916137 98.094498 
L 1453.068704 98.094498 
L 1458.594132 99.745841 
L 1464.11956 98.094498 
L 1502.797555 98.094498 
L 1508.322983 95.19598 
L 1513.848411 98.094498 
L 1519.373839 91.410907 
L 1524.899267 98.094498 
L 1530.424694 111.455842 
L 1535.950122 98.094498 
L 1552.526406 98.075605 
L 1558.051834 98.933273 
L 1563.577262 98.094498 
L 1580.153545 98.094498 
L 1585.678973 105.516277 
L 1591.204401 98.094498 
L 1607.780685 98.094498 
L 1613.306112 96.016725 
L 1618.83154 98.094498 
L 1624.356968 102.230098 
L 1629.882396 98.094498 
L 1651.984108 98.094498 
L 1651.984108 98.094498 
" style="fill:none;stroke:#ffda6b;stroke-linecap:square;stroke-width:1.5;"/>
   </g>
   <g id="line2d_19">
    <path clip-path="url(#p498c716877)" d="M 243 98.094498 
L 246.683619 98.094498 
L 248.525428 106.112097 
L 250.367237 98.094498 
L 336.932274 98.094498 
L 338.774083 88.631719 
L 340.615892 98.094498 
L 360.875795 98.094498 
L 362.717604 104.661529 
L 364.559413 98.094498 
L 382.977506 98.094498 
L 384.819315 110.934231 
L 386.661125 98.094498 
L 406.921027 98.094498 
L 408.762836 110.245389 
L 410.604645 98.094498 
L 412.446455 98.094498 
L 414.288264 132.958659 
L 416.130073 98.094498 
L 421.655501 98.094498 
L 423.497311 78.194641 
L 425.33912 89.243754 
L 427.180929 98.094498 
L 438.231785 98.094498 
L 440.073594 80.829724 
L 441.915403 98.094498 
L 452.966259 98.094498 
L 454.808068 93.483332 
L 456.649878 98.094498 
L 458.491687 95.878009 
L 460.333496 98.094498 
L 478.751589 98.094498 
L 480.593399 87.542323 
L 482.435208 98.094498 
L 489.802445 98.094498 
L 491.644254 93.355654 
L 493.486064 98.094498 
L 510.062347 98.094498 
L 511.904156 81.767552 
L 513.745966 98.094498 
L 530.322249 98.094498 
L 532.164059 96.908076 
L 534.005868 98.094498 
L 535.847677 93.730703 
L 537.689487 98.094498 
L 543.214914 98.094498 
L 545.056724 95.905251 
L 546.898533 98.094498 
L 583.734719 98.094498 
L 585.576528 101.18777 
L 587.418337 98.094498 
L 598.469193 98.094498 
L 600.311002 88.914298 
L 602.152812 98.094498 
L 605.83643 98.094498 
L 607.67824 96.079827 
L 609.520049 98.094498 
L 611.361858 98.094498 
L 613.203667 91.337139 
L 615.045477 92.805879 
L 616.887286 89.431152 
L 618.729095 98.094498 
L 720.028606 98.094498 
L 721.870416 100.638456 
L 723.712225 98.094498 
L 753.181174 98.094498 
L 755.022983 99.452506 
L 756.864792 98.094498 
L 791.859169 98.094498 
L 793.700978 107.192282 
L 795.542787 98.094498 
L 817.644499 98.094498 
L 819.486308 102.222151 
L 821.328117 98.094498 
L 825.011736 98.094498 
L 826.853545 98.222939 
L 828.695355 98.094498 
L 830.537164 99.446797 
L 832.378973 113.088471 
L 834.220782 98.094498 
L 871.056968 98.094498 
L 872.898778 90.451116 
L 874.740587 98.094498 
L 883.949633 98.094498 
L 885.791443 102.740832 
L 887.633252 98.094498 
L 926.311247 98.094498 
L 928.153056 98.21711 
L 929.994866 98.094498 
L 931.836675 99.96914 
L 933.678484 98.094498 
L 935.520293 100.168148 
L 937.362103 98.094498 
L 953.938386 98.094498 
L 955.780196 100.841829 
L 957.622005 98.094498 
L 988.932763 98.094498 
L 990.774572 94.717876 
L 992.616381 98.094498 
L 994.458191 93.982779 
L 996.3 98.094498 
L 1042.345232 98.094498 
L 1044.187042 102.073151 
L 1046.028851 98.094498 
L 1119.701222 98.094498 
L 1121.543032 114.745051 
L 1123.384841 98.094498 
L 1138.119315 98.094498 
L 1139.961125 101.274672 
L 1141.802934 98.094498 
L 1149.170171 98.094498 
L 1151.01198 109.392356 
L 1152.85379 98.094498 
L 1154.695599 98.094498 
L 1156.537408 103.795743 
L 1158.379218 98.094498 
L 1197.057213 98.094498 
L 1198.899022 105.879747 
L 1200.740831 98.094498 
L 1230.20978 98.094498 
L 1232.051589 96.588363 
L 1233.893399 98.094498 
L 1267.045966 98.094498 
L 1268.887775 96.179411 
L 1270.729584 98.094498 
L 1311.249389 98.094498 
L 1313.091198 96.812747 
L 1314.933007 98.094498 
L 1337.034719 98.094498 
L 1338.876528 100.88683 
L 1340.718337 98.094498 
L 1342.560147 110.908996 
L 1344.401956 98.094498 
L 1348.085575 98.094498 
L 1349.927384 106.715954 
L 1351.769193 98.094498 
L 1360.97824 98.094498 
L 1362.820049 93.700943 
L 1364.661858 98.094498 
L 1412.5489 98.094498 
L 1414.390709 96.799803 
L 1416.232518 98.094498 
L 1425.441565 98.094498 
L 1427.283374 82.440049 
L 1429.125183 98.094498 
L 1458.594132 98.094498 
L 1460.435941 100.803119 
L 1462.277751 98.094498 
L 1480.695844 98.094498 
L 1482.537653 108.916379 
L 1484.379462 98.094498 
L 1519.373839 98.094498 
L 1521.215648 95.990437 
L 1523.057457 98.094498 
L 1535.950122 98.094498 
L 1537.791932 99.746563 
L 1539.633741 98.094498 
L 1567.26088 98.094498 
L 1569.102689 82.165187 
L 1570.944499 98.094498 
L 1587.520782 98.094498 
L 1589.362592 108.453826 
L 1591.204401 98.094498 
L 1607.780685 98.094498 
L 1609.622494 96.540091 
L 1611.464303 98.094498 
L 1616.989731 98.094498 
L 1618.83154 111.641916 
L 1620.67335 98.094498 
L 1749.6 98.094498 
L 1749.6 98.094498 
" style="fill:none;stroke:#808080;stroke-linecap:square;stroke-width:1.5;"/>
   </g>
   <g id="patch_3">
    <path d="M 243 183.6 
L 243 25.92 
" style="fill:none;stroke:#000000;stroke-linecap:square;stroke-linejoin:miter;stroke-width:0.8;"/>
   </g>
   <g id="patch_4">
    <path d="M 1749.6 183.6 
L 1749.6 25.92 
" style="fill:none;stroke:#000000;stroke-linecap:square;stroke-linejoin:miter;stroke-width:0.8;"/>
   </g>
   <g id="patch_5">
    <path d="M 243 183.6 
L 1749.6 183.6 
" style="fill:none;stroke:#000000;stroke-linecap:square;stroke-linejoin:miter;stroke-width:0.8;"/>
   </g>
   <g id="patch_6">
    <path d="M 243 25.92 
L 1749.6 25.92 
" style="fill:none;stroke:#000000;stroke-linecap:square;stroke-linejoin:miter;stroke-width:0.8;"/>
   </g>
   <g id="legend_1">
    <g id="patch_7">
     <path d="M 1679.003125 109.068437 
L 1742.6 109.068437 
Q 1744.6 109.068437 1744.6 107.068437 
L 1744.6 32.92 
Q 1744.6 30.92 1742.6 30.92 
L 1679.003125 30.92 
Q 1677.003125 30.92 1677.003125 32.92 
L 1677.003125 107.068437 
Q 1677.003125 109.068437 1679.003125 109.068437 
z
" style="fill:#ffffff;opacity:0.8;stroke:#cccccc;stroke-linejoin:miter;"/>
    </g>
    <g id="line2d_20">
     <path d="M 1681.003125 38.695 
L 1701.003125 38.695 
" style="fill:none;stroke:#ff1656;stroke-linecap:square;stroke-width:1.5;"/>
    </g>
    <g id="line2d_21"/>
    <g id="text_17">
     <!-- A -->
     <g transform="translate(1709.003125 42.195)scale(0.1 -0.1)">
      <defs>
       <path d="M 1.703125 0 
L 1.703125 3.328125 
Q 5.5625 3.375 6.515625 3.640625 
Q 7.46875 3.90625 8.265625 4.65625 
Q 9.078125 5.421875 10.59375 8.59375 
Q 11.46875 10.40625 16.9375 22.3125 
L 29.15625 49.859375 
Q 31.15625 54.390625 37.703125 70.0625 
L 40.875 70.0625 
L 61.71875 21.09375 
Q 66.796875 9.1875 68.453125 6.15625 
Q 69.390625 4.4375 70.484375 3.90625 
Q 71.578125 3.375 75.4375 3.328125 
L 75.4375 0 
Q 67.828125 0.484375 64.796875 0.484375 
L 49.078125 0 
L 49.078125 3.328125 
Q 54.546875 3.421875 55.71875 3.65625 
Q 56.890625 3.90625 57.296875 4.359375 
Q 57.71875 4.828125 57.71875 5.515625 
Q 57.71875 6.59375 57.03125 8.296875 
L 51.03125 23.25 
L 22.75 23.25 
L 17.4375 10.6875 
Q 16.015625 7.328125 16.015625 5.765625 
Q 16.015625 5.078125 16.40625 4.640625 
Q 16.9375 4 18.0625 3.765625 
Q 19.875 3.375 24.421875 3.328125 
L 24.421875 0 
Q 16.15625 0.4375 12.0625 0.4375 
Q 7.328125 0.4375 1.703125 0 
z
M 24.421875 27.390625 
L 49.078125 27.390625 
L 36.859375 56.84375 
z
" id="Palatino-Roman-65"/>
      </defs>
      <use xlink:href="#Palatino-Roman-65"/>
     </g>
    </g>
    <g id="line2d_22">
     <path d="M 1681.003125 53.724687 
L 1701.003125 53.724687 
" style="fill:none;stroke:#0194dd;stroke-linecap:square;stroke-width:1.5;"/>
    </g>
    <g id="line2d_23"/>
    <g id="text_18">
     <!-- T -->
     <g transform="translate(1709.003125 57.224687)scale(0.1 -0.1)">
      <defs>
       <path d="M 5.609375 53.21875 
L 2.59375 53.21875 
Q 2.546875 64.890625 2.09375 69.390625 
Q 7.421875 69.1875 18.796875 68.890625 
Q 28.03125 68.703125 31.109375 68.703125 
Q 34.421875 68.703125 46.484375 69 
Q 55.21875 69.1875 59.234375 69.390625 
Q 58.640625 63.921875 58.453125 53.21875 
L 55.328125 53.21875 
L 54.9375 57.90625 
Q 54.546875 62.15625 54.390625 62.734375 
Q 54.25 63.328125 53.984375 63.5625 
Q 53.71875 63.8125 53.171875 63.96875 
Q 52.484375 64.109375 48.28125 64.34375 
Q 44.09375 64.59375 41.65625 64.59375 
L 35.6875 64.59375 
Q 35.203125 59.90625 35.203125 51.953125 
L 35.203125 23.390625 
Q 35.203125 16.75 35.359375 10.453125 
Q 35.5 5.8125 36.0625 4.921875 
Q 36.625 4.046875 37.859375 3.625 
Q 39.109375 3.21875 44.921875 3.125 
L 44.921875 0 
Q 36.1875 0.390625 31.78125 0.390625 
Q 29.890625 0.390625 16.546875 0 
L 16.546875 3.125 
Q 22.359375 3.21875 23.625 3.625 
Q 24.90625 4.046875 25.34375 4.78125 
Q 25.984375 5.765625 26.125 9.515625 
Q 26.125 10.546875 26.3125 23.390625 
L 26.3125 51.859375 
Q 26.3125 53.90625 26.21875 56.34375 
L 25.921875 64.59375 
L 18.65625 64.59375 
Q 12.359375 64.59375 8.640625 64.109375 
Q 7.46875 63.96875 7.125 63.484375 
Q 6.59375 62.640625 6.15625 58.15625 
z
" id="Palatino-Roman-84"/>
      </defs>
      <use xlink:href="#Palatino-Roman-84"/>
     </g>
    </g>
    <g id="line2d_24">
     <path d="M 1681.003125 68.754375 
L 1701.003125 68.754375 
" style="fill:none;stroke:#06b658;stroke-linecap:square;stroke-width:1.5;"/>
    </g>
    <g id="line2d_25"/>
    <g id="text_19">
     <!-- G -->
     <g transform="translate(1709.003125 72.254375)scale(0.1 -0.1)">
      <defs>
       <path d="M 69.53125 3.8125 
Q 62.109375 1.125 57.375 0.203125 
Q 49.03125 -1.421875 41.546875 -1.421875 
Q 30.28125 -1.421875 21.484375 3 
Q 12.703125 7.421875 7.90625 15.375 
Q 3.125 23.34375 3.125 34.1875 
Q 3.125 43.703125 6.5625 50.359375 
Q 10.015625 57.03125 15.15625 61.328125 
Q 20.3125 65.625 25.4375 67.671875 
Q 33.296875 70.796875 44.875 70.796875 
Q 50.296875 70.75 56.265625 69.546875 
Q 62.25 68.359375 69.78125 66.265625 
Q 69.046875 63.765625 68.65625 61.375 
Q 68.265625 58.984375 67.625 51.5625 
L 64.65625 51.5625 
L 64.40625 57.125 
Q 64.359375 58.40625 64.3125 59.1875 
Q 64.265625 59.96875 63.671875 61.1875 
Q 62.359375 62.9375 59.46875 64.359375 
Q 54.5 66.265625 51.25 66.890625 
Q 48 67.53125 43.5 67.53125 
Q 34.234375 67.53125 27.4375 63.578125 
Q 20.65625 59.625 17.15625 52.25 
Q 13.671875 44.875 13.671875 36.140625 
Q 13.671875 26.515625 17.75 18.828125 
Q 21.828125 11.140625 28.6875 7.0625 
Q 35.546875 2.984375 44.671875 2.984375 
Q 48.96875 2.984375 53 3.8125 
Q 57.03125 4.640625 59.8125 6.109375 
Q 60.25 8.0625 60.25 12.359375 
L 60.25 17.78125 
Q 60.25 22.078125 59.8125 22.796875 
Q 59.375 23.53125 57.4375 23.890625 
Q 55.515625 24.265625 48.578125 24.46875 
L 48.578125 27.4375 
L 63.8125 27.09375 
Q 68.265625 27.09375 72.90625 27.4375 
L 73.1875 25.09375 
L 69.53125 22.953125 
Q 68.953125 17.71875 68.953125 13.328125 
Q 68.953125 8.9375 69.53125 3.8125 
z
" id="Palatino-Roman-71"/>
      </defs>
      <use xlink:href="#Palatino-Roman-71"/>
     </g>
    </g>
    <g id="line2d_26">
     <path d="M 1681.003125 83.784063 
L 1701.003125 83.784063 
" style="fill:none;stroke:#ffda6b;stroke-linecap:square;stroke-width:1.5;"/>
    </g>
    <g id="line2d_27"/>
    <g id="text_20">
     <!-- C -->
     <g transform="translate(1709.003125 87.284063)scale(0.1 -0.1)">
      <defs>
       <path d="M 68.109375 8.640625 
L 66.21875 4.109375 
Q 60.5 1.21875 55.03125 -0.078125 
Q 49.5625 -1.375 43.109375 -1.375 
Q 35.546875 -1.375 29.046875 0.53125 
Q 22.5625 2.4375 17.703125 5.96875 
Q 12.84375 9.515625 9.765625 13.90625 
Q 6.6875 18.3125 5.078125 23.453125 
Q 3.46875 28.609375 3.46875 34.765625 
Q 3.46875 50.34375 14.328125 60.5625 
Q 25.203125 70.796875 44 70.796875 
Q 48.4375 70.796875 52.21875 70.28125 
Q 56 69.78125 61.4375 68.328125 
Q 66.890625 66.890625 68.109375 66.65625 
Q 67.046875 63.96875 66.5 61.375 
Q 65.71875 57.234375 65.4375 51.765625 
L 62.359375 51.765625 
L 62.3125 57.515625 
Q 61.8125 62.3125 57 64.65625 
Q 52.203125 67 42.921875 67 
Q 35.984375 66.890625 31.140625 65.203125 
Q 26.3125 63.53125 22.625 59.890625 
Q 18.953125 56.25 16.609375 50.65625 
Q 14.265625 45.0625 14.203125 36.625 
Q 14.203125 21.828125 23.234375 12.8125 
Q 32.28125 3.8125 47.125 3.8125 
Q 53.8125 3.8125 59.515625 5.671875 
Q 63.421875 6.9375 67.28125 9.671875 
z
" id="Palatino-Roman-67"/>
      </defs>
      <use xlink:href="#Palatino-Roman-67"/>
     </g>
    </g>
    <g id="line2d_28">
     <path d="M 1681.003125 98.81375 
L 1701.003125 98.81375 
" style="fill:none;stroke:#808080;stroke-linecap:square;stroke-width:1.5;"/>
    </g>
    <g id="line2d_29"/>
    <g id="text_21">
     <!-- mRNA -->
     <g transform="translate(1709.003125 102.31375)scale(0.1 -0.1)">
      <defs>
       <path d="M 2.203125 66.265625 
L 2.203125 69.390625 
Q 4.109375 69.34375 8.015625 69.234375 
L 17.390625 69 
Q 20.171875 69 26.03125 69.1875 
Q 33.640625 69.484375 34.859375 69.484375 
Q 44.1875 69.484375 48.453125 67.8125 
Q 52.734375 66.15625 55.078125 62.421875 
Q 57.421875 58.6875 57.421875 54.296875 
Q 57.421875 50.203125 55.21875 46.140625 
Q 53.03125 42.09375 48.84375 39.40625 
Q 44.671875 36.71875 37.984375 35.25 
Q 39.203125 33.546875 43.75 27.640625 
L 56.0625 11.421875 
Q 61.328125 4.640625 62.203125 3.859375 
Q 62.640625 3.515625 63.09375 3.375 
Q 63.8125 3.125 66.3125 3.125 
L 66.3125 0 
Q 62.59375 0.296875 59.8125 0.296875 
Q 56.9375 0.296875 52.734375 0 
Q 49.5625 3.65625 42.09375 14.3125 
Q 37.9375 20.21875 34.765625 24.171875 
Q 29.640625 30.71875 25 36.03125 
L 25.484375 37.5 
Q 28.03125 37.359375 29.34375 37.359375 
Q 38.234375 37.359375 42.8125 41.546875 
Q 47.40625 45.75 47.40625 52.640625 
Q 47.40625 58.640625 43.453125 62.171875 
Q 39.5 65.71875 31.5 65.71875 
Q 26.46875 65.71875 21.625 64.203125 
Q 21.4375 61.578125 21.34375 59.28125 
Q 21.296875 58.59375 21 45.0625 
L 21 23.390625 
Q 21 16.75 21.1875 10.453125 
Q 21.296875 5.8125 21.84375 4.921875 
Q 22.40625 4.046875 23.671875 3.625 
Q 24.953125 3.21875 30.71875 3.125 
L 30.71875 0 
Q 23.78125 0.390625 17.96875 0.390625 
Q 13.28125 0.390625 2.203125 0 
L 2.203125 3.125 
Q 7.953125 3.21875 9.21875 3.625 
Q 10.5 4.046875 10.984375 4.78125 
Q 11.578125 5.765625 11.71875 9.515625 
Q 11.765625 10.546875 11.921875 23.390625 
L 11.921875 46 
Q 11.921875 52.640625 11.765625 58.984375 
Q 11.625 63.625 11.0625 64.46875 
Q 10.5 65.328125 9.25 65.734375 
Q 8.015625 66.15625 2.203125 66.265625 
z
" id="Palatino-Roman-82"/>
       <path d="M 2.78125 0 
L 2.78125 3.078125 
Q 7.90625 3.125 9.515625 3.859375 
Q 10.203125 4.15625 10.5 4.78125 
Q 10.984375 5.765625 11.1875 9.90625 
Q 11.46875 16.359375 11.46875 21.046875 
L 11.46875 60.84375 
Q 11.46875 62.453125 11.28125 62.9375 
Q 10.890625 63.8125 9.515625 65.046875 
Q 8.640625 65.828125 7.484375 66.046875 
Q 6.34375 66.265625 2.390625 66.3125 
L 2.390625 69.390625 
Q 10.546875 69.1875 12.640625 69.1875 
Q 16.21875 69.1875 19.734375 69.390625 
Q 23.875 63.96875 25.828125 61.375 
L 35.9375 48.921875 
L 50.6875 31.15625 
Q 57.765625 22.65625 62.0625 17.78125 
Q 64.796875 14.546875 66.65625 12.703125 
L 66.65625 48.390625 
Q 66.65625 53.171875 66.3125 59.625 
Q 66.109375 63.671875 65.671875 64.65625 
Q 65.328125 65.28125 64.65625 65.578125 
Q 63.03125 66.265625 57.953125 66.3125 
L 57.953125 69.390625 
Q 63.71875 69.1875 69.625 69.1875 
Q 75.203125 69.1875 79.734375 69.390625 
L 79.734375 66.3125 
Q 74.65625 66.265625 73.046875 65.578125 
Q 72.359375 65.28125 72.078125 64.59375 
Q 71.578125 63.671875 71.390625 59.46875 
Q 71.09375 53.03125 71.09375 48.390625 
L 71.09375 24.90625 
Q 71.09375 17.78125 71.34375 -1.703125 
L 66.3125 -0.25 
L 65.140625 0 
Q 64.84375 0.09375 64.59375 0.296875 
Q 64.265625 0.53125 62.75 2.25 
Q 58.6875 6.84375 56.78125 9.1875 
L 50.484375 17.140625 
L 15.875 58.5 
L 15.875 21.046875 
Q 15.875 16.265625 16.21875 9.765625 
Q 16.40625 5.71875 16.84375 4.78125 
Q 17.1875 4.109375 17.875 3.8125 
Q 19.484375 3.125 24.5625 3.078125 
L 24.5625 0 
Q 20.265625 0.34375 15.09375 0.34375 
Q 9.421875 0.34375 2.78125 0 
z
" id="Palatino-Roman-78"/>
      </defs>
      <use xlink:href="#Palatino-Roman-109"/>
      <use x="88.28125" xlink:href="#Palatino-Roman-82"/>
      <use x="155.078125" xlink:href="#Palatino-Roman-78"/>
      <use x="238.183594" xlink:href="#Palatino-Roman-65"/>
     </g>
    </g>
   </g>
  </g>
 </g>
 <defs>
  <clipPath id="p498c716877">
   <rect height="157.68" width="1506.6" x="243" y="25.92"/>
  </clipPath>
 </defs>
</svg>
