<?xml version="1.0" encoding="utf-8" standalone="no"?>
<!DOCTYPE svg PUBLIC "-//W3C//DTD SVG 1.1//EN"
  "http://www.w3.org/Graphics/SVG/1.1/DTD/svg11.dtd">
<!-- Created with matplotlib (https://matplotlib.org/) -->
<svg height="216pt" version="1.1" viewBox="0 0 1944 216" width="1944pt" xmlns="http://www.w3.org/2000/svg" xmlns:xlink="http://www.w3.org/1999/xlink">
 <metadata>
  <rdf:RDF xmlns:cc="http://creativecommons.org/ns#" xmlns:dc="http://purl.org/dc/elements/1.1/" xmlns:rdf="http://www.w3.org/1999/02/22-rdf-syntax-ns#">
   <cc:Work>
    <dc:type rdf:resource="http://purl.org/dc/dcmitype/StillImage"/>
    <dc:date>2021-11-04T01:36:32.123768</dc:date>
    <dc:format>image/svg+xml</dc:format>
    <dc:creator>
     <cc:Agent>
      <dc:title>Matplotlib v3.3.4, https://matplotlib.org/</dc:title>
     </cc:Agent>
    </dc:creator>
   </cc:Work>
  </rdf:RDF>
 </metadata>
 <defs>
  <style type="text/css">*{stroke-linecap:butt;stroke-linejoin:round;}</style>
 </defs>
 <g id="figure_1">
  <g id="patch_1">
   <path d="M 0 216 
L 1944 216 
L 1944 0 
L 0 0 
z
" style="fill:#ffffff;"/>
  </g>
  <g id="axes_1">
   <g id="patch_2">
    <path d="M 243 183.6 
L 1749.6 183.6 
L 1749.6 25.92 
L 243 25.92 
z
" style="fill:#ffffff;"/>
   </g>
   <g id="matplotlib.axis_1">
    <g id="xtick_1">
     <g id="line2d_1">
      <defs>
       <path d="M 0 0 
L 0 3.5 
" id="m6ebb437448" style="stroke:#000000;stroke-width:0.8;"/>
      </defs>
      <g>
       <use style="stroke:#000000;stroke-width:0.8;" x="403.237408" xlink:href="#m6ebb437448" y="183.6"/>
      </g>
     </g>
     <g id="text_1">
      <!-- 0 -->
      <g transform="translate(400.737408 197.875)scale(0.1 -0.1)">
       <defs>
        <path d="M 3.03125 30.21875 
Q 3.03125 44.140625 5.03125 51.703125 
Q 7.03125 59.28125 12.296875 64.203125 
Q 17.578125 69.140625 25.6875 69.140625 
Q 29.78125 69.140625 33.265625 67.75 
Q 36.765625 66.359375 38.984375 64.234375 
Q 41.21875 62.109375 42.75 59 
Q 44.28125 55.90625 44.921875 52.78125 
Q 46.390625 45.65625 46.390625 37.25 
Q 46.390625 26.3125 44.671875 18.5 
Q 43.703125 14.0625 41.890625 10.375 
Q 40.09375 6.6875 37.59375 4.09375 
Q 35.109375 1.515625 31.59375 -0.015625 
Q 28.078125 -1.5625 23.6875 -1.5625 
Q 18.359375 -1.5625 14.546875 0.6875 
Q 10.75 2.9375 8.5 6.453125 
Q 5.375 11.46875 4.203125 17.9375 
Q 3.03125 24.421875 3.03125 30.21875 
z
M 11.421875 33.0625 
Q 11.421875 26.03125 12.34375 19.265625 
Q 13.28125 12.5 15.28125 8.296875 
Q 16.65625 5.46875 19.28125 3.65625 
Q 21.921875 1.859375 25.203125 1.859375 
Q 30.765625 1.859375 33.734375 6.5 
Q 38.03125 13.140625 38.03125 32.90625 
Q 38.03125 41.40625 37.125 48.171875 
Q 36.234375 54.9375 34.125 59.28125 
Q 32.765625 62.0625 30.296875 63.84375 
Q 27.828125 65.625 24.359375 65.625 
Q 20.5625 65.625 17.546875 63.1875 
Q 14.546875 60.75 12.984375 54.328125 
Q 11.421875 47.90625 11.421875 33.0625 
z
" id="Palatino-Roman-48"/>
       </defs>
       <use xlink:href="#Palatino-Roman-48"/>
      </g>
     </g>
    </g>
    <g id="xtick_2">
     <g id="line2d_2">
      <g>
       <use style="stroke:#000000;stroke-width:0.8;" x="587.418337" xlink:href="#m6ebb437448" y="183.6"/>
      </g>
     </g>
     <g id="text_2">
      <!-- 100 -->
      <g transform="translate(579.918337 197.875)scale(0.1 -0.1)">
       <defs>
        <path d="M 7.46875 55.609375 
L 6.59375 55.859375 
L 6.109375 59.859375 
L 6.59375 60.359375 
Q 11.8125 61.859375 17.96875 64.5 
Q 27.046875 68.359375 29.640625 69.671875 
L 30.90625 69.1875 
Q 30.125 46.828125 30.125 43.5 
L 30.125 25.390625 
Q 30.125 14.546875 30.375 8.984375 
Q 30.515625 5.71875 31.171875 4.859375 
Q 31.84375 4 33.125 3.625 
Q 34.421875 3.265625 41.609375 2.984375 
L 41.609375 0 
Q 29.25 0.390625 26.125 0.390625 
Q 23.78125 0.390625 9.578125 0 
L 9.578125 2.984375 
Q 17 3.421875 18.140625 3.6875 
Q 19.28125 3.953125 19.84375 4.484375 
Q 20.40625 5.03125 20.65625 6 
Q 21.046875 7.515625 21.328125 14.71875 
Q 21.625 21.921875 21.625 25.640625 
L 21.625 44.875 
Q 21.625 56.640625 21.578125 59.625 
Q 21.578125 60.9375 21.234375 61.28125 
Q 21.046875 61.46875 20.703125 61.46875 
Q 20.265625 61.46875 18.453125 60.6875 
Q 10.15625 56.984375 7.46875 55.609375 
z
" id="Palatino-Roman-49"/>
       </defs>
       <use xlink:href="#Palatino-Roman-49"/>
       <use x="50" xlink:href="#Palatino-Roman-48"/>
       <use x="100" xlink:href="#Palatino-Roman-48"/>
      </g>
     </g>
    </g>
    <g id="xtick_3">
     <g id="line2d_3">
      <g>
       <use style="stroke:#000000;stroke-width:0.8;" x="771.599267" xlink:href="#m6ebb437448" y="183.6"/>
      </g>
     </g>
     <g id="text_3">
      <!-- 200 -->
      <g transform="translate(764.099267 197.875)scale(0.1 -0.1)">
       <defs>
        <path d="M 1.65625 0 
L 1.65625 2.734375 
Q 3.171875 4.640625 7.125 8.6875 
L 18.015625 20.015625 
Q 19.28125 21.34375 24.21875 26.90625 
Q 27.9375 31.15625 30.03125 34.640625 
Q 32.125 38.140625 33.09375 41.4375 
Q 34.078125 44.734375 34.078125 47.703125 
Q 34.078125 52.78125 31.25 56.5 
Q 27.59375 61.421875 20.609375 61.421875 
Q 16.703125 61.421875 13.765625 60.15625 
Q 10.84375 58.890625 9.84375 57.34375 
Q 8.84375 55.8125 6.890625 48.53125 
L 3.953125 48.53125 
Q 5.125 55.078125 5.609375 62.015625 
Q 8.6875 64.9375 10.765625 66.203125 
Q 12.84375 67.484375 15.859375 68.234375 
Q 18.890625 69 22.46875 69 
Q 28.859375 69 33.25 66.828125 
Q 37.640625 64.65625 40.28125 60.359375 
Q 42.921875 56.0625 42.921875 50.640625 
Q 42.921875 44.78125 39.921875 39.09375 
Q 36.921875 33.40625 27.4375 23.96875 
L 19.09375 15.671875 
Q 14.546875 11.140625 12.203125 8.453125 
L 33.640625 8.453125 
Q 40.09375 8.453125 46.296875 9.078125 
L 46.625 8.6875 
Q 46.34375 6.84375 46.34375 4.34375 
Q 46.34375 2.09375 46.625 0.53125 
L 46.296875 0 
Q 42.828125 0.203125 38.375 0.296875 
Q 28.421875 0.484375 25.046875 0.484375 
Q 20.796875 0.484375 10.75 0.296875 
Q 5.21875 0.203125 1.65625 0 
z
" id="Palatino-Roman-50"/>
       </defs>
       <use xlink:href="#Palatino-Roman-50"/>
       <use x="50" xlink:href="#Palatino-Roman-48"/>
       <use x="100" xlink:href="#Palatino-Roman-48"/>
      </g>
     </g>
    </g>
    <g id="xtick_4">
     <g id="line2d_4">
      <g>
       <use style="stroke:#000000;stroke-width:0.8;" x="955.780196" xlink:href="#m6ebb437448" y="183.6"/>
      </g>
     </g>
     <g id="text_4">
      <!-- 300 -->
      <g transform="translate(948.280196 197.875)scale(0.1 -0.1)">
       <defs>
        <path d="M 5.078125 1.515625 
Q 4.390625 5.671875 3.859375 7.90625 
Q 3.515625 9.328125 1.65625 15.96875 
L 4.34375 17 
Q 7.421875 8.796875 11.390625 5.890625 
Q 15.375 2.984375 21.78125 2.984375 
Q 26.46875 2.984375 29.65625 4.828125 
Q 32.859375 6.6875 34.859375 10.734375 
Q 36.859375 14.796875 36.859375 19.875 
Q 36.859375 26.65625 33.390625 30.296875 
Q 29.9375 33.9375 24.078125 33.9375 
Q 22.125 33.9375 20.4375 33.546875 
Q 18.75 33.15625 15.4375 31.78125 
L 14.84375 32.28125 
L 15.921875 37.59375 
Q 19.828125 37.359375 21.140625 37.359375 
Q 27.09375 37.359375 30.34375 41.53125 
Q 33.59375 45.703125 33.59375 50.984375 
Q 33.59375 55.71875 30.140625 59.03125 
Q 26.703125 62.359375 21.4375 62.359375 
Q 18.265625 62.359375 15.328125 61.078125 
Q 12.40625 59.8125 10.15625 57.671875 
Q 9.28125 55.8125 7.375 50.6875 
L 4.34375 50.6875 
L 7.375 62.40625 
Q 10.640625 65.828125 13.53125 67.1875 
Q 18.265625 69.34375 23.875 69.34375 
Q 32.125 69.34375 36.9375 64.984375 
Q 41.75 60.640625 41.75 54.4375 
Q 41.75 50.25 39.25 46.171875 
Q 36.765625 42.09375 30.8125 37.84375 
Q 36.328125 37.109375 39.515625 35.328125 
Q 42.71875 33.546875 44.421875 30.296875 
Q 46.140625 27.046875 46.140625 23.046875 
Q 46.140625 17.234375 42.46875 11.609375 
Q 38.8125 6 32.171875 2.34375 
Q 25.53125 -1.3125 17.78125 -1.3125 
Q 14.359375 -1.3125 11.515625 -0.671875 
Q 8.6875 -0.046875 5.078125 1.515625 
z
" id="Palatino-Roman-51"/>
       </defs>
       <use xlink:href="#Palatino-Roman-51"/>
       <use x="50" xlink:href="#Palatino-Roman-48"/>
       <use x="100" xlink:href="#Palatino-Roman-48"/>
      </g>
     </g>
    </g>
    <g id="xtick_5">
     <g id="line2d_5">
      <g>
       <use style="stroke:#000000;stroke-width:0.8;" x="1139.961125" xlink:href="#m6ebb437448" y="183.6"/>
      </g>
     </g>
     <g id="text_5">
      <!-- 400 -->
      <g transform="translate(1132.461125 197.875)scale(0.1 -0.1)">
       <defs>
        <path d="M 15.671875 0 
L 15.671875 2.875 
Q 23.296875 3.03125 24.609375 3.296875 
Q 25.921875 3.5625 26.46875 4.15625 
Q 27.15625 4.984375 27.4375 7.125 
Q 27.875 10.75 27.875 14.59375 
L 27.875 18.21875 
L 17.1875 18.21875 
Q 8.34375 18.21875 1.421875 17.921875 
L 0.59375 20.5625 
Q 4.34375 27.640625 10.640625 37.890625 
Q 19.828125 52.828125 28.953125 66.65625 
Q 29.5 66.890625 31.59375 67.78125 
Q 35.296875 69.234375 35.84375 69.4375 
L 37.0625 68.84375 
Q 36.71875 62.984375 36.625 54.390625 
Q 36.375 36.28125 36.375 34.515625 
L 36.375 24.421875 
Q 43.015625 24.46875 47.265625 24.75 
Q 47.125 22.3125 47.125 21.53125 
L 47.265625 17.921875 
Q 42.28125 18.21875 38.875 18.21875 
L 36.375 18.21875 
L 36.375 14.9375 
Q 36.375 6.734375 37.109375 4.9375 
Q 37.40625 4.203125 38.28125 3.765625 
Q 40.140625 2.9375 47.265625 2.875 
L 47.265625 0 
Q 36.71875 0.390625 31.0625 0.390625 
Q 24.953125 0.390625 15.671875 0 
z
M 7.03125 24.421875 
L 27.875 24.421875 
L 28.328125 59.125 
Q 23 51.46875 16.28125 40.375 
Q 9.578125 29.296875 7.03125 24.421875 
z
" id="Palatino-Roman-52"/>
       </defs>
       <use xlink:href="#Palatino-Roman-52"/>
       <use x="50" xlink:href="#Palatino-Roman-48"/>
       <use x="100" xlink:href="#Palatino-Roman-48"/>
      </g>
     </g>
    </g>
    <g id="xtick_6">
     <g id="line2d_6">
      <g>
       <use style="stroke:#000000;stroke-width:0.8;" x="1324.142054" xlink:href="#m6ebb437448" y="183.6"/>
      </g>
     </g>
     <g id="text_6">
      <!-- 500 -->
      <g transform="translate(1316.642054 197.875)scale(0.1 -0.1)">
       <defs>
        <path d="M 6.453125 1.078125 
Q 5.328125 4.390625 4.640625 6.15625 
L 1.421875 14.109375 
L 3.8125 15.53125 
Q 8.203125 7.515625 9.21875 6.5625 
Q 10.25 5.609375 13.8125 4.34375 
Q 17.390625 3.078125 21.09375 3.078125 
Q 25.984375 3.078125 29.65625 5.125 
Q 33.34375 7.171875 35.375 11.25 
Q 37.40625 15.328125 37.40625 21.09375 
Q 37.40625 29.59375 32.78125 33.6875 
Q 28.171875 37.796875 21.875 37.796875 
Q 18.171875 37.796875 15.140625 36.375 
Q 12.84375 35.25 9.671875 31.78125 
L 7.671875 32.375 
L 8.25 44.4375 
Q 8.34375 47.171875 8.34375 48.875 
L 8.34375 57.5625 
Q 8.34375 61.46875 8.109375 65.375 
Q 8.015625 66.890625 7.953125 67.828125 
L 8.59375 68.3125 
Q 16.546875 67.71875 25.296875 67.71875 
Q 32.71875 67.71875 43.0625 68.3125 
L 43.3125 67.828125 
Q 42.96875 65.328125 42.96875 63.328125 
Q 42.96875 62.359375 43.0625 59.96875 
L 42.578125 59.671875 
Q 35.796875 60.109375 22.265625 60.109375 
Q 17.28125 60.109375 12.84375 59.96875 
Q 12.109375 53.21875 11.859375 39.65625 
Q 15.765625 42.484375 18.890625 43.578125 
Q 22.015625 44.671875 25.828125 44.671875 
Q 31.5 44.671875 36.203125 42.25 
Q 40.921875 39.84375 43.453125 35.296875 
Q 46 30.765625 46 25.34375 
Q 46 16.890625 40.234375 9.625 
Q 31.546875 -1.421875 16.890625 -1.421875 
Q 13.671875 -1.421875 11.390625 -0.859375 
Q 9.125 -0.296875 6.453125 1.078125 
z
" id="Palatino-Roman-53"/>
       </defs>
       <use xlink:href="#Palatino-Roman-53"/>
       <use x="50" xlink:href="#Palatino-Roman-48"/>
       <use x="100" xlink:href="#Palatino-Roman-48"/>
      </g>
     </g>
    </g>
    <g id="xtick_7">
     <g id="line2d_7">
      <g>
       <use style="stroke:#000000;stroke-width:0.8;" x="1508.322983" xlink:href="#m6ebb437448" y="183.6"/>
      </g>
     </g>
     <g id="text_7">
      <!-- 600 -->
      <g transform="translate(1500.822983 197.875)scale(0.1 -0.1)">
       <defs>
        <path d="M 42.1875 67.921875 
L 42.1875 67.328125 
Q 36.765625 66.109375 30.859375 62.5 
Q 24.953125 58.890625 21.1875 54.265625 
Q 17.4375 49.65625 15.59375 44.796875 
Q 13.765625 39.9375 13.234375 33.640625 
Q 16.0625 35.640625 17.4375 36.671875 
Q 20.953125 39.40625 21.953125 39.9375 
Q 22.953125 40.484375 24.6875 40.890625 
Q 26.421875 41.3125 28.859375 41.3125 
Q 37.359375 41.3125 41.984375 36.46875 
Q 46.625 31.640625 46.625 22.46875 
Q 46.625 16.21875 44.34375 11.578125 
Q 42 6.84375 39.234375 4.390625 
Q 36.46875 1.953125 32.875 0.265625 
Q 29.296875 -1.421875 24.078125 -1.421875 
Q 15.140625 -1.421875 9.28125 5.34375 
Q 3.421875 12.109375 3.421875 25.046875 
Q 3.421875 33.9375 6.171875 41.453125 
Q 8.9375 48.96875 13.71875 54.390625 
Q 18.5 59.8125 25.109375 63.890625 
Q 31.734375 67.96875 38.625 69.625 
z
M 12.3125 21.34375 
Q 12.3125 17.484375 13.1875 13.671875 
Q 13.71875 11.421875 14.671875 9.265625 
Q 15.625 7.125 17.15625 5.421875 
Q 18.703125 3.71875 20.828125 2.78125 
Q 22.953125 1.859375 25.4375 1.859375 
Q 28.8125 1.859375 31.71875 3.6875 
Q 34.625 5.515625 36.40625 9.640625 
Q 38.1875 13.765625 38.1875 19.09375 
Q 38.1875 24.21875 36.453125 28.046875 
Q 34.71875 31.890625 31.65625 33.6875 
Q 28.609375 35.5 25.203125 35.5 
Q 20.90625 35.5 16.796875 32.625 
Q 13.875 30.5625 13.09375 28.296875 
Q 12.3125 26.03125 12.3125 21.34375 
z
" id="Palatino-Roman-54"/>
       </defs>
       <use xlink:href="#Palatino-Roman-54"/>
       <use x="50" xlink:href="#Palatino-Roman-48"/>
       <use x="100" xlink:href="#Palatino-Roman-48"/>
      </g>
     </g>
    </g>
    <g id="xtick_8">
     <g id="line2d_8">
      <g>
       <use style="stroke:#000000;stroke-width:0.8;" x="1692.503912" xlink:href="#m6ebb437448" y="183.6"/>
      </g>
     </g>
     <g id="text_8">
      <!-- 700 -->
      <g transform="translate(1685.003912 197.875)scale(0.1 -0.1)">
       <defs>
        <path d="M 6.59375 0 
L 5.5625 1.03125 
Q 7.28125 3.5625 15.234375 16.109375 
Q 17.828125 20.265625 28.125 37.015625 
Q 32.328125 43.84375 39.453125 56.34375 
Q 40.09375 57.421875 41.21875 59.578125 
L 40.71875 60.0625 
L 25.59375 60.0625 
Q 21.046875 60.0625 16.15625 59.890625 
Q 11.28125 59.71875 10.203125 59.28125 
Q 9.578125 59.03125 9.28125 58.640625 
L 8.890625 58.0625 
L 7.46875 47.40625 
L 4.59375 47.40625 
L 4.828125 60.25 
Q 4.828125 63.421875 4.59375 68.265625 
L 5.5625 68.75 
Q 9.46875 68.40625 16.265625 68.109375 
Q 25.046875 67.78125 27.78125 67.78125 
Q 33.890625 67.78125 49.515625 68.453125 
L 49.515625 65.53125 
L 42.484375 53.078125 
Q 40.234375 49.03125 31.640625 33.15625 
Q 25.640625 22.015625 21.140625 12.453125 
Q 17.71875 5.21875 15.765625 0 
Q 12.984375 0.25 11.078125 0.25 
Q 9.03125 0.25 6.59375 0 
z
" id="Palatino-Roman-55"/>
       </defs>
       <use xlink:href="#Palatino-Roman-55"/>
       <use x="50" xlink:href="#Palatino-Roman-48"/>
       <use x="100" xlink:href="#Palatino-Roman-48"/>
      </g>
     </g>
    </g>
    <g id="text_9">
     <!-- Base position -->
     <g transform="translate(966.944531 211.904687)scale(0.1 -0.1)">
      <defs>
       <path d="M 5.375 0 
L 5.375 2.296875 
Q 8.40625 3.8125 8.734375 4.171875 
Q 9.078125 4.546875 9.28125 5.46875 
Q 9.578125 6.9375 9.796875 11.6875 
Q 10.015625 16.453125 10.015625 18.953125 
L 10.015625 48.390625 
Q 10.015625 53.171875 9.71875 59.625 
Q 9.515625 63.671875 9.03125 64.65625 
Q 8.6875 65.28125 8.015625 65.578125 
Q 6.390625 66.265625 1.3125 66.3125 
L 1.3125 69.390625 
Q 2.9375 69.28125 5.375 69.28125 
L 15.53125 69.046875 
L 33.5 69.484375 
Q 40.625 69.484375 44.484375 68.015625 
Q 48.34375 66.546875 50.515625 63.25 
Q 52.6875 59.96875 52.6875 55.90625 
Q 52.6875 52.6875 51.390625 49.84375 
Q 50.09375 47.015625 47.921875 44.9375 
Q 45.75 42.875 43.09375 41.578125 
Q 40.4375 40.28125 36.140625 39.203125 
Q 41.84375 38.671875 45.359375 37.625 
Q 48.875 36.578125 51.234375 34.5 
Q 53.609375 32.421875 54.828125 29.4375 
Q 56.0625 26.46875 56.0625 22.796875 
Q 56.0625 15.578125 51.6875 10.078125 
Q 47.3125 4.59375 40.4375 1.953125 
Q 35.296875 0 28.265625 0 
L 14.109375 0.390625 
Q 11.8125 0.390625 5.375 0 
z
M 19.28125 40.578125 
Q 22.078125 40.4375 24.171875 40.4375 
Q 30.21875 40.4375 33.515625 41.359375 
Q 36.8125 42.28125 38.625 43.796875 
Q 40.4375 45.3125 41.625 47.890625 
Q 42.828125 50.484375 42.828125 53.953125 
Q 42.828125 60.0625 38.9375 62.765625 
Q 35.0625 65.484375 27.59375 65.484375 
Q 23.4375 65.484375 19.734375 64.75 
Q 19.28125 60.6875 19.28125 52.203125 
z
M 19.4375 5.03125 
Q 23.09375 4.15625 27.15625 4.15625 
Q 33.59375 4.15625 37.546875 6.125 
Q 41.5 8.109375 43.625 12.109375 
Q 45.75 16.109375 45.75 21.296875 
Q 45.75 26.421875 43.75 29.90625 
Q 41.75 33.40625 37.765625 35.078125 
Q 33.796875 36.765625 24.65625 36.765625 
Q 22.5625 36.765625 19.28125 36.578125 
L 19.28125 18.0625 
Q 19.28125 15.375 19.4375 5.03125 
z
" id="Palatino-Roman-66"/>
       <path d="M 10.59375 33.453125 
L 8.015625 34.125 
Q 8.0625 35.25 8.0625 37.203125 
Q 8.0625 39.265625 8.015625 40.484375 
Q 14.203125 44.53125 18.171875 45.953125 
Q 21.1875 46.96875 24.953125 46.96875 
Q 30.515625 46.96875 34.328125 44.875 
Q 38.140625 42.78125 39.984375 38.875 
Q 41.265625 36.140625 41.265625 31.390625 
L 41.0625 22.46875 
L 41.0625 7.90625 
Q 41.0625 5.5625 41.453125 4.546875 
Q 41.75 3.8125 42.390625 3.46875 
Q 42.875 3.171875 44.4375 3.078125 
L 47.609375 2.78125 
L 47.609375 0 
Q 43.609375 0.34375 40.578125 0.34375 
Q 37.640625 0.34375 32.765625 0 
L 33.015625 8.59375 
Q 23.046875 1.078125 21.1875 0.125 
Q 19.34375 -0.828125 16.5 -0.828125 
Q 10.59375 -0.828125 7.296875 2.3125 
Q 4 5.46875 4 10.6875 
Q 4 14.0625 5.140625 16.84375 
Q 6.296875 19.625 7.90625 21.265625 
Q 9.515625 22.90625 11.1875 23.6875 
Q 14.015625 25 20.390625 26.515625 
Q 26.765625 28.03125 33.015625 28.765625 
Q 33.0625 33.40625 31.890625 35.984375 
Q 30.71875 38.578125 27.921875 40.234375 
Q 25.140625 41.890625 21.140625 41.890625 
Q 18.265625 41.890625 16.09375 41.109375 
Q 13.921875 40.328125 13.421875 39.796875 
L 12.546875 38.03125 
Q 11.234375 35.109375 10.59375 33.453125 
z
M 33.015625 25.78125 
Q 26.65625 24.703125 22.15625 23.390625 
Q 17.671875 22.078125 15.828125 20.65625 
Q 14.703125 19.828125 13.875 18.171875 
Q 12.59375 15.71875 12.59375 12.75 
Q 12.59375 9.125 14.59375 7.09375 
Q 16.609375 5.078125 20.171875 5.078125 
Q 23.4375 5.078125 26.625 6.953125 
Q 29.828125 8.84375 33.015625 12.59375 
z
" id="Palatino-Roman-97"/>
       <path d="M 4.546875 14.75 
L 7.46875 14.75 
Q 7.515625 11.921875 7.765625 10.25 
Q 8.015625 8.59375 8.59375 7 
Q 9.1875 5.421875 10.40625 4.3125 
Q 11.625 3.21875 13.0625 2.609375 
Q 14.5 2 15.984375 1.796875 
Q 17.484375 1.609375 20.515625 1.609375 
Q 25.484375 1.609375 28.6875 4.25 
Q 31.890625 6.890625 31.890625 11.46875 
Q 31.890625 13.53125 30.890625 15.09375 
Q 29.890625 16.65625 28 17.53125 
Q 26.125 18.40625 19.921875 19.8125 
Q 13.71875 21.234375 11.921875 21.875 
Q 9.1875 22.90625 7.5625 24.359375 
Q 5.953125 25.828125 5 28.078125 
Q 4.046875 30.328125 4.046875 32.953125 
Q 4.046875 36.8125 6.078125 40.0625 
Q 8.109375 43.3125 12.453125 45.328125 
Q 16.796875 47.359375 21.921875 47.359375 
Q 25 47.359375 29.046875 46.5 
Q 33.109375 45.65625 35.640625 44.390625 
Q 35.296875 38.96875 35.15625 33.34375 
L 32.375 33.34375 
Q 32.125 36.921875 31.8125 38.03125 
Q 31.5 39.15625 30.953125 40.03125 
Q 30.421875 40.921875 29.09375 41.921875 
Q 27.78125 42.921875 25.703125 43.703125 
Q 23.640625 44.484375 20.609375 44.484375 
Q 16.3125 44.484375 13.6875 41.9375 
Q 11.078125 39.40625 11.078125 35.984375 
Q 11.078125 34.078125 11.828125 32.703125 
Q 12.59375 31.34375 13.859375 30.484375 
Q 15.140625 29.640625 17.4375 28.953125 
L 25.53125 26.953125 
Q 31.6875 25.390625 34 24.265625 
Q 36.328125 23.140625 37.734375 20.765625 
Q 39.15625 18.40625 39.15625 15.09375 
Q 39.15625 8.5 33.703125 3.59375 
Q 28.265625 -1.3125 19.140625 -1.3125 
Q 14.9375 -1.3125 7.953125 -0.046875 
Q 4.109375 0.6875 3.8125 0.984375 
Q 3.609375 1.125 3.609375 1.46875 
Q 3.609375 1.8125 3.71875 2.296875 
Q 4.15625 4.390625 4.296875 6.390625 
Q 4.4375 8.40625 4.546875 14.75 
z
" id="Palatino-Roman-115"/>
       <path d="M 43.171875 7.5625 
L 41.609375 4.046875 
Q 38.234375 1.953125 36.671875 1.265625 
Q 34.375 0.25 31.421875 -0.453125 
Q 28.46875 -1.171875 25.203125 -1.171875 
Q 18.75 -1.171875 13.515625 1.515625 
Q 8.296875 4.203125 5.390625 9.546875 
Q 2.484375 14.890625 2.484375 22.078125 
Q 2.484375 27.6875 4.015625 32.203125 
Q 5.5625 36.71875 7.515625 38.875 
Q 8.9375 40.4375 11.90625 42.453125 
Q 14.890625 44.484375 17.828125 45.65625 
Q 21.6875 47.265625 26.171875 47.265625 
Q 31.640625 47.265625 36.0625 44.765625 
Q 40.484375 42.28125 42.53125 37.984375 
Q 44.578125 33.6875 44.578125 28.265625 
Q 44.578125 26.90625 44.390625 24.953125 
Q 40.875 24.265625 38.09375 24.078125 
Q 32.8125 23.6875 27.546875 23.6875 
L 11.859375 23.6875 
Q 11.96875 16.703125 14.28125 12.375 
Q 16.609375 8.0625 20.671875 6 
Q 24.75 3.953125 29.15625 3.953125 
Q 32.125 3.953125 35.078125 4.90625 
Q 38.03125 5.859375 42.390625 8.40625 
z
M 11.859375 27.546875 
Q 13.234375 27.390625 17.046875 27.25 
Q 24.3125 27 27.046875 27 
Q 33.546875 27 35.59375 27.25 
Q 35.640625 28.421875 35.640625 29.046875 
Q 35.640625 36.765625 32.515625 40.375 
Q 29.390625 44 24.171875 44 
Q 18.65625 44 15.28125 40.03125 
Q 11.921875 36.078125 11.859375 27.546875 
z
" id="Palatino-Roman-101"/>
       <path id="Palatino-Roman-32"/>
       <path d="M 1.765625 40.1875 
L 1.765625 43.015625 
Q 2.640625 43.015625 5.46875 43.421875 
Q 8.296875 43.84375 11.765625 44.84375 
Q 15.234375 45.84375 17 46.78125 
Q 17.53125 47.078125 17.875 47.078125 
Q 18.21875 47.078125 18.4375 46.828125 
Q 18.65625 46.578125 18.65625 46 
Q 18.65625 45.75 18.609375 44.828125 
Q 18.5 43.40625 18.5 42.234375 
L 18.5 37.0625 
Q 26.765625 44.734375 28.8125 45.703125 
Q 31.5 47.015625 36.8125 47.015625 
Q 43.015625 47.015625 47.5 44.203125 
Q 52 41.40625 54.03125 36.9375 
Q 56.0625 32.46875 56.0625 27.390625 
Q 56.0625 24.3125 55.34375 21.578125 
Q 54.640625 18.84375 53.53125 16.421875 
Q 52.4375 14.015625 51.09375 11.984375 
Q 49.75 9.96875 48.578125 8.9375 
Q 47.90625 8.296875 45.046875 6 
Q 42.1875 3.71875 38.9375 2.03125 
Q 35.6875 0.34375 34.421875 -0.046875 
Q 31.640625 -0.921875 28.515625 -0.921875 
Q 26.078125 -0.921875 23.75 -0.328125 
Q 21.4375 0.25 18.5 1.65625 
L 18.5 -6.109375 
Q 18.75 -18.453125 18.796875 -19.734375 
Q 18.84375 -22.125 19.390625 -23.25 
Q 19.578125 -23.78125 19.984375 -24.09375 
Q 20.40625 -24.421875 21.1875 -24.5625 
Q 21.625 -24.65625 27 -24.75 
L 27 -27.546875 
Q 20.90625 -27.296875 10.84375 -27.296875 
Q 5.28125 -27.296875 2.296875 -27.546875 
L 2.296875 -24.75 
L 6.9375 -24.703125 
Q 7.953125 -24.65625 8.515625 -24.34375 
Q 9.078125 -24.03125 9.375 -23.53125 
Q 9.90625 -22.5625 10.0625 -20.0625 
Q 10.109375 -19.4375 10.359375 -6.109375 
L 10.359375 11.234375 
Q 10.359375 19.671875 10.15625 28.5625 
Q 9.96875 37.453125 9.734375 38.25 
Q 9.515625 39.0625 9.03125 39.46875 
Q 8.546875 39.890625 7.765625 40.046875 
z
M 18.5 10.0625 
Q 21.09375 7.421875 24.40625 5.90625 
Q 27.734375 4.390625 31.390625 4.390625 
Q 35.84375 4.390625 39.46875 6.609375 
Q 43.109375 8.84375 45.234375 13.53125 
Q 47.359375 18.21875 47.359375 23.734375 
Q 47.359375 29.046875 45.328125 32.984375 
Q 43.3125 36.921875 39.59375 38.890625 
Q 35.890625 40.875 32.125 40.875 
Q 29.34375 40.875 26.625 39.765625 
Q 23.921875 38.671875 21.71875 36.5625 
Q 19.53125 34.46875 18.796875 32.5625 
Q 18.5 31.640625 18.5 29 
z
" id="Palatino-Roman-112"/>
       <path d="M 3.328125 22.46875 
Q 3.328125 33.40625 10.28125 40.3125 
Q 17.234375 47.21875 28.125 47.21875 
Q 38.375 47.21875 44.8125 40.765625 
Q 51.265625 34.328125 51.265625 24.125 
Q 51.265625 17 47.9375 11.078125 
Q 44.625 5.171875 38.5625 1.828125 
Q 32.515625 -1.515625 25.25 -1.515625 
Q 19.578125 -1.515625 15.640625 0.390625 
Q 11.71875 2.296875 9.28125 5.171875 
Q 6.84375 8.0625 5.5625 11.078125 
Q 3.328125 16.40625 3.328125 22.46875 
z
M 12.546875 26.078125 
Q 12.546875 20.0625 14.546875 13.859375 
Q 16.546875 7.671875 20.328125 4.8125 
Q 24.125 1.953125 28.5625 1.953125 
Q 34.234375 1.953125 38.03125 6.4375 
Q 41.84375 10.9375 41.84375 20.265625 
Q 41.84375 28.03125 39.578125 33.671875 
Q 37.3125 39.3125 33.796875 41.625 
Q 30.28125 43.953125 26.03125 43.953125 
Q 20.015625 43.953125 16.28125 39.59375 
Q 12.546875 35.25 12.546875 26.078125 
z
" id="Palatino-Roman-111"/>
       <path d="M 14.109375 68.75 
Q 16.40625 68.75 17.984375 67.140625 
Q 19.578125 65.53125 19.578125 63.234375 
Q 19.578125 60.984375 17.96875 59.375 
Q 16.359375 57.765625 14.109375 57.765625 
Q 11.8125 57.765625 10.203125 59.375 
Q 8.59375 60.984375 8.59375 63.234375 
Q 8.59375 65.53125 10.203125 67.140625 
Q 11.8125 68.75 14.109375 68.75 
z
M 2.203125 40.1875 
L 2.203125 42.96875 
Q 11.671875 44.046875 18.109375 47.078125 
L 19.1875 46.296875 
Q 18.796875 35.890625 18.796875 30.375 
L 18.796875 21.484375 
Q 19.046875 8.796875 19.09375 7.765625 
Q 19.140625 5.328125 19.625 4.203125 
Q 19.875 3.765625 20.265625 3.4375 
Q 20.65625 3.125 21.4375 2.9375 
Q 21.734375 2.875 26.859375 2.78125 
L 26.859375 0 
Q 19.4375 0.34375 14.984375 0.34375 
Q 11.078125 0.34375 2.203125 0 
L 2.203125 2.78125 
L 6.84375 2.828125 
Q 7.859375 2.875 8.421875 3.1875 
Q 8.984375 3.515625 9.28125 4 
Q 9.8125 4.984375 9.96875 7.46875 
Q 9.96875 8.109375 10.25 21.484375 
L 10.25 30.078125 
Q 10.25 37.359375 9.765625 38.71875 
Q 9.46875 39.453125 8.703125 39.8125 
Q 7.953125 40.1875 2.203125 40.1875 
z
" id="Palatino-Roman-105"/>
       <path d="M 2.25 38.28125 
L 2.25 40.328125 
Q 7.125 42.1875 10.015625 43.65625 
Q 10.015625 55.28125 9.71875 58.5 
Q 14.796875 60.25 17.96875 62.25 
L 19.140625 61.28125 
Q 18.609375 57.234375 17.96875 43.40625 
Q 21.875 43.359375 22.65625 43.359375 
Q 23.09375 43.359375 27.6875 43.453125 
Q 30.21875 43.5 31.5 43.65625 
L 31.84375 43.3125 
L 30.8125 38.765625 
Q 27.734375 38.8125 25.140625 38.8125 
Q 22.5625 38.8125 17.96875 38.765625 
L 17.671875 18.890625 
Q 17.53125 11.625 17.765625 10.203125 
Q 18.015625 8.796875 18.703125 7.734375 
Q 19.390625 6.6875 20.484375 6.046875 
Q 21.578125 5.421875 24.21875 5.078125 
Q 26.21875 5.078125 27.46875 5.25 
Q 28.71875 5.421875 30.609375 6.109375 
L 31.203125 4.203125 
Q 28.90625 2.390625 26.765625 0.4375 
Q 24.90625 -0.25 23.296875 -0.46875 
Q 21.6875 -0.6875 19.578125 -0.6875 
Q 17 -0.6875 15.453125 -0.09375 
Q 13.921875 0.484375 12.640625 1.53125 
Q 11.375 2.59375 10.546875 4.203125 
Q 9.71875 5.8125 9.46875 9.28125 
Q 9.515625 12.59375 9.671875 16.546875 
Q 9.71875 17.328125 9.71875 18.265625 
L 9.71875 38.53125 
L 7.71875 38.53125 
Q 5.28125 38.53125 2.25 38.28125 
z
" id="Palatino-Roman-116"/>
       <path d="M 1.375 0 
L 1.375 2.78125 
L 6 2.828125 
Q 7.03125 2.875 7.59375 3.1875 
Q 8.15625 3.515625 8.453125 4 
Q 8.984375 4.984375 9.125 7.46875 
Q 9.125 8.109375 9.421875 21.484375 
L 9.421875 27.296875 
Q 9.421875 31.203125 9.28125 35.6875 
Q 9.125 38.578125 8.8125 39.109375 
Q 8.5 39.65625 7.71875 39.921875 
Q 6.9375 40.1875 1.375 40.140625 
L 1.375 42.921875 
Q 11.234375 44.28125 15.765625 46.484375 
Q 16.75 46.96875 17.09375 46.96875 
Q 17.4375 46.96875 17.625 46.71875 
Q 17.828125 46.484375 17.828125 46 
Q 17.828125 45.65625 17.78125 45.21875 
Q 17.625 43.453125 17.484375 37.796875 
L 26.5625 45.5625 
Q 30.5625 47.015625 34.125 47.015625 
Q 38.09375 47.015625 41.625 45.40625 
Q 45.171875 43.796875 46.953125 41.359375 
Q 48.734375 38.921875 49.3125 35.203125 
Q 49.65625 33.015625 49.65625 22.953125 
L 49.65625 14.3125 
Q 49.65625 7.953125 50 5.671875 
Q 50.25 4.203125 50.75 3.640625 
Q 51.265625 3.078125 52.34375 2.9375 
L 57.5625 2.78125 
L 57.5625 0 
Q 52.78125 0.34375 49.609375 0.34375 
Q 46.875 0.34375 40.53125 0 
Q 41.21875 12.0625 41.21875 15.234375 
L 41.21875 23.4375 
Q 41.21875 31.109375 40.625 33.5 
Q 39.796875 36.765625 36.859375 38.765625 
Q 33.9375 40.765625 29.78125 40.765625 
Q 26.125 40.765625 23.09375 39.03125 
Q 20.0625 37.3125 18.765625 35.03125 
Q 17.484375 32.765625 17.484375 27.390625 
L 17.484375 21.484375 
Q 17.78125 8.796875 17.78125 7.765625 
Q 17.875 5.328125 18.359375 4.203125 
Q 18.5625 3.765625 18.953125 3.4375 
Q 19.34375 3.125 20.171875 2.9375 
Q 20.453125 2.875 25.53125 2.78125 
L 25.53125 0 
Q 19.578125 0.34375 14.75 0.34375 
Q 10.640625 0.34375 1.375 0 
z
" id="Palatino-Roman-110"/>
      </defs>
      <use xlink:href="#Palatino-Roman-66"/>
      <use x="61.083984" xlink:href="#Palatino-Roman-97"/>
      <use x="111.083984" xlink:href="#Palatino-Roman-115"/>
      <use x="153.466797" xlink:href="#Palatino-Roman-101"/>
      <use x="201.367188" xlink:href="#Palatino-Roman-32"/>
      <use x="226.367188" xlink:href="#Palatino-Roman-112"/>
      <use x="286.474609" xlink:href="#Palatino-Roman-111"/>
      <use x="341.064453" xlink:href="#Palatino-Roman-115"/>
      <use x="383.447266" xlink:href="#Palatino-Roman-105"/>
      <use x="412.548828" xlink:href="#Palatino-Roman-116"/>
      <use x="445.166016" xlink:href="#Palatino-Roman-105"/>
      <use x="474.267578" xlink:href="#Palatino-Roman-111"/>
      <use x="528.857422" xlink:href="#Palatino-Roman-110"/>
     </g>
    </g>
   </g>
   <g id="matplotlib.axis_2">
    <g id="ytick_1">
     <g id="line2d_9">
      <defs>
       <path d="M 0 0 
L -3.5 0 
" id="ma4a4534b92" style="stroke:#000000;stroke-width:0.8;"/>
      </defs>
      <g>
       <use style="stroke:#000000;stroke-width:0.8;" x="243" xlink:href="#ma4a4534b92" y="183.6"/>
      </g>
     </g>
     <g id="text_10">
      <!-- 0.00 -->
      <g transform="translate(218.5 187.2375)scale(0.1 -0.1)">
       <defs>
        <path d="M 12.5 11.1875 
Q 14.9375 11.1875 16.625 9.46875 
Q 18.3125 7.765625 18.3125 5.328125 
Q 18.3125 2.9375 16.59375 1.21875 
Q 14.890625 -0.484375 12.5 -0.484375 
Q 10.0625 -0.484375 8.34375 1.21875 
Q 6.640625 2.9375 6.640625 5.328125 
Q 6.640625 7.765625 8.34375 9.46875 
Q 10.0625 11.1875 12.5 11.1875 
z
" id="Palatino-Roman-46"/>
       </defs>
       <use xlink:href="#Palatino-Roman-48"/>
       <use x="50" xlink:href="#Palatino-Roman-46"/>
       <use x="75" xlink:href="#Palatino-Roman-48"/>
       <use x="125" xlink:href="#Palatino-Roman-48"/>
      </g>
     </g>
    </g>
    <g id="ytick_2">
     <g id="line2d_10">
      <g>
       <use style="stroke:#000000;stroke-width:0.8;" x="243" xlink:href="#ma4a4534b92" y="159.30416"/>
      </g>
     </g>
     <g id="text_11">
      <!-- 0.02 -->
      <g transform="translate(218.5 162.94166)scale(0.1 -0.1)">
       <use xlink:href="#Palatino-Roman-48"/>
       <use x="50" xlink:href="#Palatino-Roman-46"/>
       <use x="75" xlink:href="#Palatino-Roman-48"/>
       <use x="125" xlink:href="#Palatino-Roman-50"/>
      </g>
     </g>
    </g>
    <g id="ytick_3">
     <g id="line2d_11">
      <g>
       <use style="stroke:#000000;stroke-width:0.8;" x="243" xlink:href="#ma4a4534b92" y="135.00832"/>
      </g>
     </g>
     <g id="text_12">
      <!-- 0.04 -->
      <g transform="translate(218.5 138.64582)scale(0.1 -0.1)">
       <use xlink:href="#Palatino-Roman-48"/>
       <use x="50" xlink:href="#Palatino-Roman-46"/>
       <use x="75" xlink:href="#Palatino-Roman-48"/>
       <use x="125" xlink:href="#Palatino-Roman-52"/>
      </g>
     </g>
    </g>
    <g id="ytick_4">
     <g id="line2d_12">
      <g>
       <use style="stroke:#000000;stroke-width:0.8;" x="243" xlink:href="#ma4a4534b92" y="110.712481"/>
      </g>
     </g>
     <g id="text_13">
      <!-- 0.06 -->
      <g transform="translate(218.5 114.349981)scale(0.1 -0.1)">
       <use xlink:href="#Palatino-Roman-48"/>
       <use x="50" xlink:href="#Palatino-Roman-46"/>
       <use x="75" xlink:href="#Palatino-Roman-48"/>
       <use x="125" xlink:href="#Palatino-Roman-54"/>
      </g>
     </g>
    </g>
    <g id="ytick_5">
     <g id="line2d_13">
      <g>
       <use style="stroke:#000000;stroke-width:0.8;" x="243" xlink:href="#ma4a4534b92" y="86.416641"/>
      </g>
     </g>
     <g id="text_14">
      <!-- 0.08 -->
      <g transform="translate(218.5 90.054141)scale(0.1 -0.1)">
       <defs>
        <path d="M 16.40625 35.015625 
Q 10.40625 38.1875 7.890625 42.015625 
Q 5.375 45.84375 5.375 50.78125 
Q 5.375 58.34375 10.984375 63.59375 
Q 16.609375 68.84375 25.78125 68.84375 
Q 31.0625 68.84375 35.1875 67.03125 
Q 39.3125 65.234375 41.40625 61.90625 
Q 43.5 58.59375 43.5 54.6875 
Q 43.5 51.703125 42.203125 48.828125 
Q 40.921875 45.953125 38.03125 43.21875 
Q 35.84375 41.15625 31.546875 38.484375 
L 31.546875 38.03125 
Q 37.703125 35.109375 39.9375 33.453125 
Q 42.96875 31.25 44.625 28.078125 
Q 46.296875 24.90625 46.296875 20.75 
Q 46.296875 15.28125 43.1875 9.9375 
Q 40.09375 4.59375 34.5 1.640625 
Q 28.90625 -1.3125 22.5625 -1.3125 
Q 17.046875 -1.3125 12.46875 0.953125 
Q 7.90625 3.21875 5.515625 7.25 
Q 3.125 11.28125 3.125 16.21875 
Q 3.125 22.125 6.640625 26.90625 
Q 10.15625 31.6875 16.40625 34.578125 
z
M 27.78125 39.703125 
Q 32.765625 42.875 34.734375 46 
Q 36.71875 49.125 36.71875 53.375 
Q 36.71875 56.890625 35.28125 59.734375 
Q 33.84375 62.59375 31.078125 64.0625 
Q 28.328125 65.53125 24.8125 65.53125 
Q 19.34375 65.53125 16.09375 62.46875 
Q 12.84375 59.421875 12.84375 54.5 
Q 12.84375 49.65625 15.71875 46.921875 
Q 18.609375 44.1875 27.78125 39.703125 
z
M 20.359375 33.25 
Q 14.796875 29.828125 12.453125 26.0625 
Q 10.109375 22.3125 10.109375 17 
Q 10.109375 12.5 11.8125 9.078125 
Q 13.53125 5.671875 16.875 3.859375 
Q 20.21875 2.046875 24.078125 2.046875 
Q 28.078125 2.046875 31.484375 3.90625 
Q 34.90625 5.765625 36.6875 9.15625 
Q 38.484375 12.546875 38.484375 16.75 
Q 38.484375 20.359375 36.96875 22.84375 
Q 35.453125 25.34375 31.765625 27.578125 
Q 28.078125 29.828125 20.359375 33.25 
z
" id="Palatino-Roman-56"/>
       </defs>
       <use xlink:href="#Palatino-Roman-48"/>
       <use x="50" xlink:href="#Palatino-Roman-46"/>
       <use x="75" xlink:href="#Palatino-Roman-48"/>
       <use x="125" xlink:href="#Palatino-Roman-56"/>
      </g>
     </g>
    </g>
    <g id="ytick_6">
     <g id="line2d_14">
      <g>
       <use style="stroke:#000000;stroke-width:0.8;" x="243" xlink:href="#ma4a4534b92" y="62.120801"/>
      </g>
     </g>
     <g id="text_15">
      <!-- 0.10 -->
      <g transform="translate(218.5 65.758301)scale(0.1 -0.1)">
       <use xlink:href="#Palatino-Roman-48"/>
       <use x="50" xlink:href="#Palatino-Roman-46"/>
       <use x="75" xlink:href="#Palatino-Roman-49"/>
       <use x="125" xlink:href="#Palatino-Roman-48"/>
      </g>
     </g>
    </g>
    <g id="ytick_7">
     <g id="line2d_15">
      <g>
       <use style="stroke:#000000;stroke-width:0.8;" x="243" xlink:href="#ma4a4534b92" y="37.824961"/>
      </g>
     </g>
     <g id="text_16">
      <!-- 0.12 -->
      <g transform="translate(218.5 41.462461)scale(0.1 -0.1)">
       <use xlink:href="#Palatino-Roman-48"/>
       <use x="50" xlink:href="#Palatino-Roman-46"/>
       <use x="75" xlink:href="#Palatino-Roman-49"/>
       <use x="125" xlink:href="#Palatino-Roman-50"/>
      </g>
     </g>
    </g>
    <g id="text_17">
     <!-- Feature importance -->
     <g transform="translate(211.745313 147.850625)rotate(-90)scale(0.1 -0.1)">
      <defs>
       <path d="M 2.15625 66.265625 
L 2.15625 69.390625 
Q 9.578125 69.09375 14.75 69.09375 
Q 18.40625 69.09375 27.875 69.28125 
Q 37.359375 69.484375 40.671875 69.484375 
Q 44.234375 69.484375 47.1875 69.40625 
Q 50.140625 69.34375 52.546875 69.140625 
Q 51.3125 64.984375 50.984375 54.34375 
L 47.90625 54.34375 
Q 47.46875 60.25 46.6875 63.421875 
Q 44.140625 64.3125 40.40625 64.71875 
Q 36.671875 65.140625 31.734375 65.140625 
Q 26.8125 65.140625 21.53125 64.546875 
Q 21.234375 61.921875 21.140625 59.625 
Q 21.09375 58.296875 20.90625 48.4375 
L 20.90625 37.59375 
Q 26.375 37.453125 30.5625 37.453125 
Q 36.765625 37.453125 40.484375 38.09375 
Q 41.890625 38.328125 42.296875 38.890625 
Q 42.71875 39.453125 43.21875 43.015625 
L 43.609375 46.046875 
L 46.6875 46.046875 
L 46.34375 34.90625 
L 46.6875 22.953125 
L 43.609375 22.953125 
L 43.265625 26.078125 
Q 42.71875 31.390625 42.484375 31.78125 
Q 42.09375 32.46875 40.625 32.8125 
Q 37.84375 33.453125 28.03125 33.453125 
Q 24.5625 33.453125 20.90625 33.25 
L 20.90625 23.390625 
Q 20.90625 16.75 21.09375 10.453125 
Q 21.1875 5.8125 21.75 4.921875 
Q 22.3125 4.046875 23.578125 3.625 
Q 24.859375 3.21875 30.609375 3.125 
L 30.609375 0 
Q 24.421875 0.390625 18.265625 0.390625 
Q 12.75 0.390625 2.15625 0 
L 2.15625 3.125 
Q 7.90625 3.21875 9.171875 3.625 
Q 10.453125 4.046875 10.9375 4.78125 
Q 11.53125 5.765625 11.671875 9.515625 
Q 11.71875 10.546875 11.859375 23.390625 
L 11.859375 46 
Q 11.859375 52.640625 11.71875 58.984375 
Q 11.578125 63.625 11.015625 64.46875 
Q 10.453125 65.328125 9.203125 65.734375 
Q 7.953125 66.15625 2.15625 66.265625 
z
" id="Palatino-Roman-70"/>
       <path d="M 57.765625 2.78125 
L 57.765625 0 
Q 51.375 0.34375 48.09375 0.34375 
Q 44.484375 0.34375 40.765625 0 
Q 41.0625 3.953125 41.21875 8.890625 
Q 38.28125 6.546875 34.234375 2.484375 
Q 33.296875 1.5625 32.421875 1.125 
Q 30.328125 -0.046875 28.21875 -0.5625 
Q 26.125 -1.078125 23.1875 -1.078125 
Q 19.234375 -1.078125 16.578125 0 
Q 13.921875 1.078125 12.015625 3.265625 
Q 10.59375 4.890625 9.828125 7.453125 
Q 9.078125 10.015625 9.078125 13.625 
Q 9.078125 15.328125 9.203125 16.84375 
Q 9.328125 18.359375 9.328125 19.828125 
L 9.328125 28.171875 
Q 9.328125 29.4375 9.1875 34.578125 
Q 9.078125 37.796875 8.734375 38.765625 
Q 8.546875 39.265625 8.109375 39.546875 
Q 7.375 40.046875 5.515625 40.046875 
Q 2.828125 40.046875 1.265625 40.09375 
L 1.265625 42.875 
Q 11.765625 44.046875 16.5 46.625 
Q 17.28125 47.078125 17.71875 47.078125 
Q 18.0625 47.078125 18.28125 46.828125 
Q 18.5 46.578125 18.5 46.09375 
Q 18.5 45.703125 18.453125 45.125 
Q 18.265625 43.5625 18.109375 39.109375 
Q 17.828125 30.953125 17.828125 28.171875 
L 17.828125 18.65625 
Q 17.828125 12.703125 18.625 10.28125 
Q 19.4375 7.859375 21.75 6.421875 
Q 24.078125 4.984375 27.484375 4.984375 
Q 29.828125 4.984375 32.140625 5.78125 
Q 34.46875 6.59375 36.328125 8.109375 
Q 37.703125 9.234375 39.109375 11.140625 
Q 40.1875 12.546875 40.53125 13.296875 
Q 40.875 14.0625 40.96875 15.53125 
Q 41.21875 19.828125 41.21875 24.078125 
L 41.21875 28.171875 
Q 41.21875 29.4375 41.0625 34.578125 
Q 40.96875 37.796875 40.625 38.765625 
Q 40.4375 39.265625 39.984375 39.546875 
Q 39.265625 40.046875 37.40625 40.046875 
Q 34.71875 40.046875 33.15625 40.09375 
L 33.15625 42.875 
Q 43.65625 44.046875 48.390625 46.625 
Q 49.171875 47.078125 49.609375 47.078125 
Q 49.953125 47.078125 50.171875 46.828125 
Q 50.390625 46.578125 50.390625 46.09375 
Q 50.390625 45.703125 50.34375 45.125 
Q 50.203125 43.5625 50 38.921875 
Q 49.703125 30.953125 49.703125 28.171875 
L 49.703125 21.484375 
L 49.8125 14.703125 
Q 49.953125 8.796875 50 7.765625 
Q 50.046875 5.328125 50.53125 4.203125 
Q 50.78125 3.765625 51.171875 3.4375 
Q 51.5625 3.125 52.34375 2.9375 
Q 52.640625 2.875 57.765625 2.78125 
z
" id="Palatino-Roman-117"/>
       <path d="M 2.296875 0 
L 2.296875 2.78125 
Q 7.8125 2.875 8.25 2.984375 
Q 9.078125 3.125 9.484375 3.4375 
Q 9.90625 3.765625 10.15625 4.34375 
Q 10.640625 5.46875 10.75 7.859375 
Q 11.03125 20.90625 11.03125 21.484375 
L 11.03125 27.296875 
Q 11.03125 31.203125 10.890625 35.6875 
Q 10.796875 38.578125 10.46875 39.109375 
Q 10.15625 39.65625 9.34375 39.921875 
Q 8.546875 40.1875 2.984375 40.140625 
L 2.984375 42.921875 
Q 12.84375 44.28125 17.390625 46.484375 
Q 18.359375 46.96875 18.703125 46.96875 
Q 19.046875 46.96875 19.234375 46.71875 
Q 19.4375 46.484375 19.4375 46 
Q 19.4375 45.65625 19.390625 45.21875 
Q 19.140625 42.234375 19.09375 35.984375 
Q 21.296875 38.53125 23.140625 41.015625 
Q 25 43.5 25.828125 44.234375 
Q 27.296875 45.515625 29.203125 46.265625 
Q 31.109375 47.015625 33.15625 47.015625 
Q 35.203125 47.015625 37.203125 46.140625 
L 37.5 45.453125 
Q 36.765625 38.96875 36.671875 34.03125 
L 34.46875 34.03125 
Q 33.34375 36.375 31.859375 37.453125 
Q 30.375 38.53125 28.125 38.53125 
Q 24.359375 38.53125 21.71875 35.421875 
Q 19.09375 32.328125 19.09375 26.125 
L 19.09375 21.09375 
Q 19.09375 17.875 19.34375 9.328125 
Q 19.390625 6.296875 19.578125 5.46875 
Q 19.78125 4.640625 20.09375 4.265625 
Q 20.40625 3.90625 21.140625 3.65625 
Q 22.609375 3.21875 29.046875 2.78125 
L 29.046875 0 
Q 20.453125 0.34375 14.40625 0.34375 
Q 8.15625 0.34375 2.296875 0 
z
" id="Palatino-Roman-114"/>
       <path d="M 2.046875 0 
L 2.046875 2.78125 
L 6.6875 2.828125 
Q 7.71875 2.875 8.28125 3.1875 
Q 8.84375 3.515625 9.125 4 
Q 9.671875 4.984375 9.8125 7.46875 
Q 9.8125 8.109375 10.109375 21.484375 
L 10.109375 27.296875 
Q 10.109375 31.203125 9.96875 35.6875 
Q 9.8125 38.578125 9.5 39.109375 
Q 9.1875 39.65625 8.40625 39.921875 
Q 7.625 40.1875 2.046875 40.140625 
L 2.046875 42.921875 
Q 11.921875 44.28125 16.453125 46.484375 
Q 17.4375 46.96875 17.78125 46.96875 
Q 18.109375 46.96875 18.296875 46.71875 
Q 18.5 46.484375 18.5 46 
Q 18.5 45.65625 18.453125 45.21875 
Q 18.265625 42.875 18.171875 38.234375 
L 24.5625 44.09375 
Q 25.78125 45.171875 26.078125 45.3125 
Q 27.203125 45.953125 29.296875 46.484375 
Q 31.390625 47.015625 33.6875 47.015625 
Q 38.375 47.015625 42.03125 44.71875 
Q 45.703125 42.4375 47.65625 37.9375 
L 53.03125 42.921875 
Q 54.828125 44.578125 55.515625 44.96875 
Q 56.78125 45.703125 59.125 46.328125 
Q 61.46875 46.96875 63.765625 46.96875 
Q 69.34375 46.96875 73.09375 44.015625 
Q 76.859375 41.0625 77.9375 37.3125 
Q 78.609375 34.8125 78.609375 26.5625 
L 78.609375 21.484375 
L 78.765625 14.703125 
Q 78.90625 8.796875 78.90625 7.765625 
Q 79 5.328125 79.5 4.203125 
Q 79.6875 3.765625 80.09375 3.4375 
Q 80.515625 3.125 81.296875 2.9375 
Q 81.59375 2.875 86.671875 2.78125 
L 86.671875 0 
Q 80.515625 0.296875 78.265625 0.296875 
Q 76.125 0.296875 69.625 0 
L 70.0625 13.484375 
L 70.21875 18.75 
L 70.21875 22.953125 
Q 70.21875 31.15625 69.390625 34.15625 
Q 68.5625 37.15625 65.890625 39.015625 
Q 63.234375 40.875 59.71875 40.875 
Q 55.671875 40.875 52.390625 38.53125 
Q 49.953125 36.71875 49.171875 34.28125 
Q 48.390625 31.84375 48.390625 24.75 
L 48.390625 21.484375 
L 48.53125 14.703125 
Q 48.640625 8.796875 48.6875 7.765625 
Q 48.78125 5.328125 49.265625 4.203125 
Q 49.46875 3.765625 49.859375 3.4375 
Q 50.25 3.125 51.03125 2.9375 
Q 51.375 2.875 56.453125 2.78125 
L 56.453125 0 
Q 49.265625 0.390625 44.921875 0.390625 
Q 41.40625 0.390625 32.125 0 
L 32.125 2.78125 
L 36.765625 2.828125 
Q 37.84375 2.875 38.40625 3.1875 
Q 38.96875 3.515625 39.265625 4 
Q 39.796875 4.984375 39.890625 7.46875 
Q 39.9375 8.109375 40.1875 21.484375 
L 40.1875 25.296875 
Q 40.1875 31.59375 39.203125 34.5 
Q 38.234375 37.40625 35.78125 39.140625 
Q 33.34375 40.875 29.9375 40.875 
Q 27 40.875 24.390625 39.625 
Q 21.78125 38.375 20.359375 36.515625 
Q 18.953125 34.671875 18.65625 32.5625 
Q 18.171875 29.203125 18.171875 24.46875 
L 18.171875 21.484375 
Q 18.453125 8.796875 18.453125 7.765625 
Q 18.5625 5.328125 19.046875 4.203125 
Q 19.234375 3.765625 19.625 3.4375 
Q 20.015625 3.125 20.84375 2.9375 
Q 21.140625 2.875 26.21875 2.78125 
L 26.21875 0 
Q 19.484375 0.390625 14.75 0.390625 
Q 10.546875 0.390625 2.046875 0 
z
" id="Palatino-Roman-109"/>
       <path d="M 42.390625 5.609375 
L 40.4375 2.34375 
Q 37.0625 0.53125 33.765625 -0.296875 
Q 30.46875 -1.125 26.3125 -1.125 
Q 16.0625 -1.125 9.984375 5.046875 
Q 3.90625 11.234375 3.90625 22.015625 
Q 3.90625 27.734375 5.53125 31.953125 
Q 7.171875 36.1875 9.578125 38.484375 
Q 11.1875 40.09375 15.703125 42.65625 
Q 20.21875 45.21875 22.015625 45.953125 
Q 25.34375 47.359375 29.984375 47.359375 
Q 34.375 47.359375 37.890625 46.4375 
Q 40.140625 45.84375 42.390625 44.484375 
Q 41.796875 40.71875 41.546875 38.78125 
Q 41.3125 36.859375 40.921875 31.78125 
L 38.140625 31.78125 
Q 37.84375 36.53125 37.546875 37.703125 
Q 37.359375 38.421875 36.671875 39.015625 
Q 34.90625 40.375 32.140625 41.375 
Q 29.390625 42.390625 26.125 42.390625 
Q 22.015625 42.390625 19.015625 40.703125 
Q 16.015625 39.015625 14.359375 35.34375 
Q 12.703125 31.6875 12.703125 26.265625 
Q 12.703125 19.625 15.046875 14.25 
Q 17.390625 8.890625 21.40625 6.421875 
Q 25.4375 3.953125 30.421875 3.953125 
Q 32.90625 3.953125 35.265625 4.5625 
Q 37.640625 5.171875 41.359375 6.890625 
z
" id="Palatino-Roman-99"/>
      </defs>
      <use xlink:href="#Palatino-Roman-70"/>
      <use x="55.615234" xlink:href="#Palatino-Roman-101"/>
      <use x="103.515625" xlink:href="#Palatino-Roman-97"/>
      <use x="153.515625" xlink:href="#Palatino-Roman-116"/>
      <use x="186.132812" xlink:href="#Palatino-Roman-117"/>
      <use x="246.435547" xlink:href="#Palatino-Roman-114"/>
      <use x="284.1875" xlink:href="#Palatino-Roman-101"/>
      <use x="332.087891" xlink:href="#Palatino-Roman-32"/>
      <use x="357.087891" xlink:href="#Palatino-Roman-105"/>
      <use x="386.189453" xlink:href="#Palatino-Roman-109"/>
      <use x="474.470703" xlink:href="#Palatino-Roman-112"/>
      <use x="534.578125" xlink:href="#Palatino-Roman-111"/>
      <use x="589.167969" xlink:href="#Palatino-Roman-114"/>
      <use x="628.669922" xlink:href="#Palatino-Roman-116"/>
      <use x="661.287109" xlink:href="#Palatino-Roman-97"/>
      <use x="711.287109" xlink:href="#Palatino-Roman-110"/>
      <use x="769.490234" xlink:href="#Palatino-Roman-99"/>
      <use x="813.875" xlink:href="#Palatino-Roman-101"/>
     </g>
    </g>
   </g>
   <g id="line2d_16">
    <path clip-path="url(#p17ebd6084c)" d="M 243 182.385208 
L 244.841809 182.385208 
L 246.683619 183.6 
L 248.525428 181.170416 
L 250.367237 182.385208 
L 268.78533 182.385208 
L 270.627139 183.6 
L 272.468949 183.6 
L 274.310758 181.170416 
L 276.152567 182.385208 
L 285.361614 182.385208 
L 287.203423 183.6 
L 294.57066 183.6 
L 296.412469 182.385208 
L 301.937897 182.385208 
L 303.779707 183.6 
L 309.305134 183.6 
L 311.146944 182.385208 
L 312.988753 183.6 
L 314.830562 182.385208 
L 327.723227 182.385208 
L 329.565037 183.6 
L 333.248655 183.6 
L 335.090465 182.385208 
L 338.774083 182.385208 
L 340.615892 183.6 
L 342.457702 182.385208 
L 347.98313 182.385208 
L 349.824939 183.6 
L 351.666748 182.385208 
L 353.508557 183.6 
L 355.350367 183.6 
L 357.192176 182.385208 
L 362.717604 182.385208 
L 364.559413 181.170416 
L 366.401222 182.385208 
L 370.084841 182.385208 
L 371.92665 181.170416 
L 373.76846 182.385208 
L 381.135697 182.385208 
L 382.977506 178.740832 
L 384.819315 181.170416 
L 386.661125 181.170416 
L 388.502934 172.666872 
L 390.344743 181.170416 
L 392.186553 173.881664 
L 394.028362 181.170416 
L 397.71198 181.170416 
L 399.55379 178.740832 
L 401.395599 178.740832 
L 405.079218 179.955624 
L 406.921027 178.740832 
L 408.762836 167.807704 
L 410.604645 162.948536 
L 412.446455 175.096456 
L 414.288264 175.096456 
L 416.130073 179.955624 
L 417.971883 178.740832 
L 419.813692 175.096456 
L 421.655501 182.385208 
L 423.497311 160.518952 
L 425.33912 179.955624 
L 427.180929 182.385208 
L 429.022738 181.170416 
L 430.864548 165.37812 
L 432.706357 182.385208 
L 434.548166 181.170416 
L 436.389976 182.385208 
L 438.231785 181.170416 
L 440.073594 182.385208 
L 441.915403 164.163328 
L 443.757213 179.955624 
L 445.599022 179.955624 
L 447.440831 40.254545 
L 449.282641 182.385208 
L 451.12445 181.170416 
L 452.966259 182.385208 
L 460.333496 182.385208 
L 462.175306 181.170416 
L 464.017115 181.170416 
L 465.858924 182.385208 
L 467.700733 181.170416 
L 469.542543 181.170416 
L 471.384352 182.385208 
L 473.226161 179.955624 
L 475.067971 183.6 
L 476.90978 182.385208 
L 480.593399 182.385208 
L 482.435208 178.740832 
L 484.277017 181.170416 
L 486.118826 177.52604 
L 487.960636 181.170416 
L 489.802445 182.385208 
L 504.536919 182.385208 
L 506.378729 181.170416 
L 508.220538 182.385208 
L 510.062347 182.385208 
L 511.904156 181.170416 
L 513.745966 181.170416 
L 515.587775 182.385208 
L 528.48044 182.385208 
L 530.322249 183.6 
L 532.164059 183.6 
L 534.005868 182.385208 
L 539.531296 182.385208 
L 541.373105 183.6 
L 543.214914 182.385208 
L 545.056724 183.6 
L 546.898533 182.385208 
L 567.158435 182.385208 
L 569.000244 183.6 
L 570.842054 182.385208 
L 574.525672 182.385208 
L 576.367482 183.6 
L 578.209291 183.6 
L 580.0511 181.170416 
L 581.89291 182.385208 
L 583.734719 182.385208 
L 585.576528 179.955624 
L 587.418337 182.385208 
L 589.260147 181.170416 
L 591.101956 182.385208 
L 592.943765 182.385208 
L 594.785575 183.6 
L 596.627384 181.170416 
L 598.469193 182.385208 
L 600.311002 181.170416 
L 602.152812 181.170416 
L 603.994621 182.385208 
L 607.67824 182.385208 
L 609.520049 181.170416 
L 611.361858 181.170416 
L 613.203667 182.385208 
L 616.887286 179.955624 
L 620.570905 182.385208 
L 626.096333 182.385208 
L 627.938142 183.6 
L 629.779951 182.385208 
L 635.305379 182.385208 
L 637.147188 181.170416 
L 638.988998 182.385208 
L 640.830807 181.170416 
L 644.514425 183.6 
L 646.356235 182.385208 
L 648.198044 182.385208 
L 650.039853 181.170416 
L 653.723472 183.6 
L 655.565281 182.385208 
L 666.616137 182.385208 
L 668.457946 183.6 
L 670.299756 183.6 
L 672.141565 182.385208 
L 679.508802 182.385208 
L 681.350611 183.6 
L 683.192421 183.6 
L 685.03423 182.385208 
L 686.876039 183.6 
L 688.717848 182.385208 
L 690.559658 183.6 
L 694.243276 181.170416 
L 696.085086 182.385208 
L 697.926895 181.170416 
L 699.768704 182.385208 
L 701.610513 182.385208 
L 703.452323 183.6 
L 705.294132 183.6 
L 707.135941 182.385208 
L 708.977751 183.6 
L 712.661369 183.6 
L 716.344988 181.170416 
L 718.186797 181.170416 
L 720.028606 182.385208 
L 725.554034 182.385208 
L 727.395844 181.170416 
L 729.237653 182.385208 
L 732.921271 182.385208 
L 734.763081 183.6 
L 736.60489 183.6 
L 738.446699 182.385208 
L 740.288509 183.6 
L 742.130318 182.385208 
L 743.972127 183.6 
L 745.813936 182.385208 
L 747.655746 183.6 
L 749.497555 183.6 
L 751.339364 182.385208 
L 753.181174 183.6 
L 755.022983 182.385208 
L 760.548411 182.385208 
L 762.39022 183.6 
L 766.073839 181.170416 
L 767.915648 170.237288 
L 769.757457 179.955624 
L 775.282885 183.6 
L 777.124694 182.385208 
L 799.226406 182.385208 
L 801.068215 179.955624 
L 802.910024 182.385208 
L 806.593643 182.385208 
L 808.435452 183.6 
L 810.277262 181.170416 
L 812.119071 182.385208 
L 834.220782 182.385208 
L 836.062592 183.6 
L 839.74621 183.6 
L 841.58802 182.385208 
L 843.429829 183.6 
L 845.271638 182.385208 
L 852.638875 182.385208 
L 854.480685 183.6 
L 856.322494 182.385208 
L 860.006112 182.385208 
L 861.847922 183.6 
L 863.689731 182.385208 
L 869.215159 182.385208 
L 871.056968 183.6 
L 872.898778 181.170416 
L 874.740587 182.385208 
L 876.582396 182.385208 
L 878.424205 183.6 
L 880.266015 182.385208 
L 882.107824 183.6 
L 883.949633 182.385208 
L 885.791443 182.385208 
L 887.633252 183.6 
L 889.475061 182.385208 
L 891.31687 183.6 
L 893.15868 182.385208 
L 895.000489 182.385208 
L 896.842298 181.170416 
L 900.525917 183.6 
L 902.367726 183.6 
L 904.209535 182.385208 
L 918.94401 182.385208 
L 920.785819 183.6 
L 922.627628 182.385208 
L 926.311247 182.385208 
L 928.153056 183.6 
L 929.994866 182.385208 
L 963.147433 182.385208 
L 964.989242 183.6 
L 976.040098 183.6 
L 977.881907 182.385208 
L 979.723716 182.385208 
L 981.565526 183.6 
L 983.407335 182.385208 
L 1007.350856 182.385208 
L 1009.192665 181.170416 
L 1011.034474 183.6 
L 1014.718093 183.6 
L 1016.559902 182.385208 
L 1018.401711 182.385208 
L 1020.243521 183.6 
L 1022.08533 182.385208 
L 1027.610758 182.385208 
L 1029.452567 183.6 
L 1033.136186 181.170416 
L 1034.977995 182.385208 
L 1038.661614 182.385208 
L 1040.503423 183.6 
L 1042.345232 182.385208 
L 1044.187042 183.6 
L 1046.028851 183.6 
L 1047.87066 182.385208 
L 1049.712469 183.6 
L 1051.554279 182.385208 
L 1053.396088 182.385208 
L 1055.237897 183.6 
L 1057.079707 182.385208 
L 1058.921516 183.6 
L 1060.763325 181.170416 
L 1062.605134 182.385208 
L 1064.446944 182.385208 
L 1066.288753 183.6 
L 1068.130562 182.385208 
L 1069.972372 179.955624 
L 1071.814181 181.170416 
L 1073.65599 183.6 
L 1075.4978 182.385208 
L 1095.757702 182.385208 
L 1097.599511 183.6 
L 1099.44132 182.385208 
L 1108.650367 182.385208 
L 1110.492176 183.6 
L 1112.333985 183.6 
L 1114.175795 182.385208 
L 1116.017604 183.6 
L 1119.701222 183.6 
L 1121.543032 182.385208 
L 1123.384841 182.385208 
L 1125.22665 183.6 
L 1127.06846 183.6 
L 1128.910269 182.385208 
L 1134.435697 182.385208 
L 1136.277506 183.6 
L 1138.119315 181.170416 
L 1141.802934 183.6 
L 1143.644743 182.385208 
L 1152.85379 182.385208 
L 1154.695599 183.6 
L 1156.537408 182.385208 
L 1158.379218 182.385208 
L 1160.221027 181.170416 
L 1162.062836 182.385208 
L 1163.904645 179.955624 
L 1165.746455 173.881664 
L 1167.588264 182.385208 
L 1169.430073 182.385208 
L 1171.271883 183.6 
L 1173.113692 181.170416 
L 1174.955501 183.6 
L 1176.797311 183.6 
L 1178.63912 182.385208 
L 1186.006357 182.385208 
L 1187.848166 183.6 
L 1189.689976 182.385208 
L 1193.373594 182.385208 
L 1195.215403 183.6 
L 1197.057213 182.385208 
L 1198.899022 182.385208 
L 1200.740831 183.6 
L 1202.582641 182.385208 
L 1208.108068 182.385208 
L 1209.949878 183.6 
L 1211.791687 182.385208 
L 1213.633496 183.6 
L 1215.475306 182.385208 
L 1217.317115 182.385208 
L 1219.158924 183.6 
L 1221.000733 182.385208 
L 1230.20978 182.385208 
L 1232.051589 181.170416 
L 1233.893399 182.385208 
L 1235.735208 179.955624 
L 1237.577017 183.6 
L 1239.418826 183.6 
L 1241.260636 182.385208 
L 1243.102445 183.6 
L 1244.944254 182.385208 
L 1287.305868 182.385208 
L 1289.147677 183.6 
L 1290.989487 182.385208 
L 1307.56577 182.385208 
L 1309.407579 183.6 
L 1311.249389 182.385208 
L 1324.142054 182.385208 
L 1325.983863 183.6 
L 1327.825672 183.6 
L 1331.509291 181.170416 
L 1333.3511 182.385208 
L 1340.718337 182.385208 
L 1342.560147 183.6 
L 1344.401956 182.385208 
L 1346.243765 183.6 
L 1348.085575 182.385208 
L 1353.611002 182.385208 
L 1355.452812 183.6 
L 1357.294621 182.385208 
L 1362.820049 182.385208 
L 1364.661858 183.6 
L 1366.503667 182.385208 
L 1377.554523 182.385208 
L 1379.396333 183.6 
L 1381.238142 182.385208 
L 1392.288998 182.385208 
L 1394.130807 183.6 
L 1395.972616 182.385208 
L 1401.498044 182.385208 
L 1403.339853 183.6 
L 1405.181663 182.385208 
L 1407.023472 182.385208 
L 1408.865281 183.6 
L 1410.70709 182.385208 
L 1412.5489 182.385208 
L 1414.390709 181.170416 
L 1416.232518 182.385208 
L 1421.757946 182.385208 
L 1423.599756 183.6 
L 1425.441565 182.385208 
L 1427.283374 183.6 
L 1429.125183 182.385208 
L 1442.017848 182.385208 
L 1443.859658 183.6 
L 1445.701467 183.6 
L 1447.543276 182.385208 
L 1451.226895 182.385208 
L 1453.068704 183.6 
L 1456.752323 183.6 
L 1458.594132 182.385208 
L 1460.435941 183.6 
L 1462.277751 182.385208 
L 1471.486797 182.385208 
L 1473.328606 181.170416 
L 1475.170416 181.170416 
L 1477.012225 182.385208 
L 1478.854034 182.385208 
L 1480.695844 183.6 
L 1482.537653 183.6 
L 1484.379462 182.385208 
L 1499.113936 182.385208 
L 1500.955746 183.6 
L 1502.797555 183.6 
L 1504.639364 182.385208 
L 1510.164792 182.385208 
L 1512.006601 183.6 
L 1513.848411 182.385208 
L 1515.69022 179.955624 
L 1517.532029 182.385208 
L 1528.582885 182.385208 
L 1530.424694 183.6 
L 1532.266504 182.385208 
L 1534.108313 182.385208 
L 1535.950122 183.6 
L 1537.791932 182.385208 
L 1539.633741 182.385208 
L 1541.47555 181.170416 
L 1543.317359 182.385208 
L 1545.159169 182.385208 
L 1548.842787 179.955624 
L 1550.684597 165.37812 
L 1552.526406 182.385208 
L 1554.368215 179.955624 
L 1556.210024 182.385208 
L 1558.051834 181.170416 
L 1561.735452 183.6 
L 1563.577262 182.385208 
L 1576.469927 182.385208 
L 1578.311736 183.6 
L 1581.995355 183.6 
L 1583.837164 182.385208 
L 1585.678973 178.740832 
L 1587.520782 182.385208 
L 1589.362592 183.6 
L 1591.204401 182.385208 
L 1594.88802 182.385208 
L 1596.729829 178.740832 
L 1598.571638 183.6 
L 1600.413447 183.6 
L 1602.255257 182.385208 
L 1613.306112 182.385208 
L 1615.147922 183.6 
L 1616.989731 182.385208 
L 1620.67335 182.385208 
L 1622.515159 181.170416 
L 1624.356968 183.6 
L 1626.198778 182.385208 
L 1628.040587 179.955624 
L 1629.882396 182.385208 
L 1633.566015 182.385208 
L 1635.407824 183.6 
L 1637.249633 181.170416 
L 1639.091443 183.6 
L 1640.933252 182.385208 
L 1646.45868 182.385208 
L 1648.300489 183.6 
L 1650.142298 182.385208 
L 1653.825917 182.385208 
L 1655.667726 183.6 
L 1659.351345 183.6 
L 1661.193154 182.385208 
L 1664.876773 182.385208 
L 1666.718582 183.6 
L 1668.560391 182.385208 
L 1670.4022 183.6 
L 1690.662103 183.6 
L 1692.503912 182.385208 
L 1694.345721 183.6 
L 1696.187531 183.6 
L 1698.02934 182.385208 
L 1705.396577 182.385208 
L 1707.238386 181.170416 
L 1709.080196 182.385208 
L 1710.922005 182.385208 
L 1712.763814 181.170416 
L 1714.605623 181.170416 
L 1716.447433 182.385208 
L 1718.289242 182.385208 
L 1720.131051 183.6 
L 1734.865526 183.6 
L 1736.707335 182.385208 
L 1738.549144 183.6 
L 1749.6 183.6 
L 1749.6 183.6 
" style="fill:none;stroke:#808080;stroke-linecap:square;stroke-width:1.5;"/>
   </g>
   <g id="patch_3">
    <path d="M 243 183.6 
L 243 25.92 
" style="fill:none;stroke:#000000;stroke-linecap:square;stroke-linejoin:miter;stroke-width:0.8;"/>
   </g>
   <g id="patch_4">
    <path d="M 1749.6 183.6 
L 1749.6 25.92 
" style="fill:none;stroke:#000000;stroke-linecap:square;stroke-linejoin:miter;stroke-width:0.8;"/>
   </g>
   <g id="patch_5">
    <path d="M 243 183.6 
L 1749.6 183.6 
" style="fill:none;stroke:#000000;stroke-linecap:square;stroke-linejoin:miter;stroke-width:0.8;"/>
   </g>
   <g id="patch_6">
    <path d="M 243 25.92 
L 1749.6 25.92 
" style="fill:none;stroke:#000000;stroke-linecap:square;stroke-linejoin:miter;stroke-width:0.8;"/>
   </g>
  </g>
 </g>
 <defs>
  <clipPath id="p17ebd6084c">
   <rect height="157.68" width="1506.6" x="243" y="25.92"/>
  </clipPath>
 </defs>
</svg>
